<svg width="15" height="15" viewBox="0 0 15 15" fill="none" xmlns="http://www.w3.org/2000/svg">
<path d="M12.5192 5.95664L7.83166 10.6441C7.78812 10.6877 7.73643 10.7223 7.67952 10.7459C7.62261 10.7695 7.56162 10.7816 7.50002 10.7816C7.43842 10.7816 7.37742 10.7695 7.32051 10.7459C7.26361 10.7223 7.21191 10.6877 7.16838 10.6441L2.48088 5.95664C2.39292 5.86869 2.34351 5.74939 2.34351 5.625C2.34351 5.50061 2.39292 5.38132 2.48088 5.29336C2.56883 5.2054 2.68813 5.15599 2.81252 5.15599C2.93691 5.15599 3.0562 5.2054 3.14416 5.29336L7.50002 9.64981L11.8559 5.29336C11.8994 5.24981 11.9511 5.21526 12.008 5.19169C12.0649 5.16812 12.1259 5.15599 12.1875 5.15599C12.2491 5.15599 12.3101 5.16812 12.367 5.19169C12.4239 5.21526 12.4756 5.24981 12.5192 5.29336C12.5627 5.33691 12.5973 5.38862 12.6208 5.44552C12.6444 5.50242 12.6565 5.56341 12.6565 5.625C12.6565 5.68659 12.6444 5.74758 12.6208 5.80448C12.5973 5.86139 12.5627 5.91309 12.5192 5.95664Z" fill="black"/>
</svg>
