<svg width="16" height="16" viewBox="0 0 16 16" fill="none" xmlns="http://www.w3.org/2000/svg">
<path fill-rule="evenodd" clip-rule="evenodd" d="M4.5 14.5H11.5C11.5874 14.5 11.6733 14.4771 11.749 14.4336C11.8248 14.3901 11.8879 14.3274 11.9319 14.252L15.4319 8.25195C15.4765 8.17548 15.5 8.08853 15.5 8C15.5 7.91147 15.4765 7.82452 15.4319 7.74805L11.9319 1.74805C11.8879 1.67257 11.8248 1.60994 11.749 1.56642C11.6733 1.5229 11.5874 1.5 11.5 1.5H4.5C4.41261 1.5 4.32675 1.5229 4.25097 1.56642C4.17519 1.60994 4.11214 1.67257 4.0681 1.74805L0.568104 7.74805C0.523492 7.82452 0.499985 7.91147 0.499985 8C0.499985 8.08853 0.523492 8.17548 0.568104 8.25195L4.0681 14.252C4.11214 14.3274 4.17519 14.3901 4.25097 14.4336C4.32675 14.4771 4.41261 14.5 4.5 14.5ZM11.2129 13.5H4.7871L1.57885 8L4.7871 2.5H11.2129L14.4212 8L11.2129 13.5ZM8.5 4H7.5V9H8.5V4ZM8 10.5C7.85167 10.5 7.70666 10.544 7.58333 10.6264C7.45999 10.7088 7.36386 10.8259 7.30709 10.963C7.25033 11.1 7.23548 11.2508 7.26441 11.3963C7.29335 11.5418 7.36478 11.6754 7.46967 11.7803C7.57456 11.8852 7.7082 11.9566 7.85369 11.9856C7.99917 12.0145 8.14997 11.9997 8.28702 11.9429C8.42406 11.8861 8.54119 11.79 8.62361 11.6667C8.70602 11.5433 8.75 11.3983 8.75 11.25C8.75 11.0511 8.67099 10.8603 8.53033 10.7197C8.38968 10.579 8.19892 10.5 8 10.5Z" fill="black"/>
</svg>
