<svg width="10" height="10" viewBox="0 0 10 10" fill="none" xmlns="http://www.w3.org/2000/svg">
<path d="M7.1875 2.8125H1.5625C1.39674 2.8125 1.23777 2.87835 1.12056 2.99556C1.00335 3.11277 0.9375 3.27174 0.9375 3.4375V7.8125C0.9375 7.97826 1.00335 8.13723 1.12056 8.25444C1.23777 8.37165 1.39674 8.4375 1.5625 8.4375H7.1875C7.35326 8.4375 7.51223 8.37165 7.62944 8.25444C7.74665 8.13723 7.8125 7.97826 7.8125 7.8125V3.4375C7.8125 3.27174 7.74665 3.11277 7.62944 2.99556C7.51223 2.87835 7.35326 2.8125 7.1875 2.8125ZM7.1875 7.8125H1.5625V3.4375H7.1875V7.8125ZM9.0625 2.1875V6.875C9.0625 6.95788 9.02958 7.03737 8.97097 7.09597C8.91237 7.15458 8.83288 7.1875 8.75 7.1875C8.66712 7.1875 8.58763 7.15458 8.52903 7.09597C8.47042 7.03737 8.4375 6.95788 8.4375 6.875V2.1875H2.5C2.41712 2.1875 2.33763 2.15458 2.27903 2.09597C2.22042 2.03737 2.1875 1.95788 2.1875 1.875C2.1875 1.79212 2.22042 1.71263 2.27903 1.65403C2.33763 1.59542 2.41712 1.5625 2.5 1.5625H8.4375C8.60326 1.5625 8.76223 1.62835 8.87944 1.74556C8.99665 1.86277 9.0625 2.02174 9.0625 2.1875Z" fill="black"/>
</svg>
