<svg width="28" height="17" viewBox="0 0 28 17" fill="none" xmlns="http://www.w3.org/2000/svg">
<g opacity="0.5">
<rect width="28" height="17" rx="2" fill="#FBCDCD"/>
<rect x="0.5" y="0.5" width="27" height="16" rx="1.5" stroke="black" stroke-opacity="0.2"/>
</g>
<path d="M21 7.05556C21 7.2029 20.9405 7.34421 20.8345 7.44839C20.7285 7.55258 20.5847 7.61111 20.4348 7.61111H18.7391V8.72222H19.8696C20.0195 8.72222 20.1632 8.78075 20.2692 8.88494C20.3752 8.98913 20.4348 9.13044 20.4348 9.27778C20.4348 9.42512 20.3752 9.56643 20.2692 9.67062C20.1632 9.7748 20.0195 9.83333 19.8696 9.83333H18.7391V10.9444C18.7391 11.0918 18.6796 11.2331 18.5736 11.3373C18.4676 11.4415 18.3238 11.5 18.1739 11.5C18.024 11.5 17.8802 11.4415 17.7742 11.3373C17.6682 11.2331 17.6087 11.0918 17.6087 10.9444V7.05556C17.6087 6.90821 17.6682 6.7669 17.7742 6.66272C17.8802 6.55853 18.024 6.5 18.1739 6.5H20.4348C20.5847 6.5 20.7285 6.55853 20.8345 6.66272C20.9405 6.7669 21 6.90821 21 7.05556ZM11.6739 8.44444C11.6739 8.96014 11.4655 9.45472 11.0945 9.81937C10.7235 10.184 10.2203 10.3889 9.69565 10.3889H9.13043V10.9444C9.13043 11.0918 9.07089 11.2331 8.96489 11.3373C8.85889 11.4415 8.71512 11.5 8.56522 11.5C8.41531 11.5 8.27154 11.4415 8.16555 11.3373C8.05955 11.2331 8 11.0918 8 10.9444V7.05556C8 6.90821 8.05955 6.7669 8.16555 6.66272C8.27154 6.55853 8.41531 6.5 8.56522 6.5H9.69565C10.2203 6.5 10.7235 6.70486 11.0945 7.06951C11.4655 7.43417 11.6739 7.92875 11.6739 8.44444ZM10.5435 8.44444C10.5435 8.22343 10.4542 8.01147 10.2952 7.85519C10.1362 7.69891 9.92051 7.61111 9.69565 7.61111H9.13043V9.27778H9.69565C9.92051 9.27778 10.1362 9.18998 10.2952 9.0337C10.4542 8.87742 10.5435 8.66546 10.5435 8.44444ZM16.7609 9C16.7609 9.66304 16.4929 10.2989 16.0159 10.7678C15.5389 11.2366 14.892 11.5 14.2174 11.5H13.087C12.9371 11.5 12.7933 11.4415 12.6873 11.3373C12.5813 11.2331 12.5217 11.0918 12.5217 10.9444V7.05556C12.5217 6.90821 12.5813 6.7669 12.6873 6.66272C12.7933 6.55853 12.9371 6.5 13.087 6.5H14.2174C14.892 6.5 15.5389 6.76339 16.0159 7.23223C16.4929 7.70107 16.7609 8.33696 16.7609 9ZM15.6304 9C15.6304 8.63164 15.4816 8.27837 15.2166 8.01791C14.9516 7.75744 14.5922 7.61111 14.2174 7.61111H13.6522V10.3889H14.2174C14.5922 10.3889 14.9516 10.2426 15.2166 9.98209C15.4816 9.72163 15.6304 9.36836 15.6304 9Z" fill="black" fill-opacity="0.8"/>
</svg>
