<svg width="20" height="20" viewBox="0 0 20 20" fill="none" xmlns="http://www.w3.org/2000/svg">
<g opacity="0.7">
<path fill-rule="evenodd" clip-rule="evenodd" d="M6.61621 3.76172C6.94538 3.76172 7.26192 3.88889 7.5 4.11621L18.3838 15C18.4998 15.116 18.5925 15.2537 18.6553 15.4053C18.718 15.5569 18.75 15.7197 18.75 15.8838C18.75 16.0478 18.7181 16.2108 18.6553 16.3623C18.5924 16.5138 18.4998 16.6516 18.3838 16.7676L16.7666 18.3838C16.532 18.6177 16.2141 18.749 15.8828 18.749C15.5516 18.7489 15.2335 18.6177 14.999 18.3838L4.11621 7.5C3.88218 7.26542 3.75098 6.94757 3.75098 6.61621C3.75099 6.28486 3.88218 5.96699 4.11621 5.73242L5.73242 4.11621C5.97049 3.88889 6.28704 3.76173 6.61621 3.76172ZM9.00781 10.626L15.8828 17.5L17.5 15.8838L10.625 9.00879L9.00781 10.626ZM3.75 10L2.5 11.25L1.25 10L2.5 8.75L3.75 10ZM5 6.61621V6.61719L8.125 9.74219L9.74121 8.125L6.61621 5L5 6.61621ZM3.75 2.5L2.5 3.75L1.25 2.5L2.5 1.25L3.75 2.5ZM11.25 2.5L10 3.75L8.75 2.5L10 1.25L11.25 2.5Z" fill="black"/>
</g>
</svg>
