<svg width="15" height="15" viewBox="0 0 15 15" fill="none" xmlns="http://www.w3.org/2000/svg">
<g opacity="0.5">
<path d="M7.50026 7.96875V11.7187C7.50026 11.8431 7.45087 11.9623 7.36297 12.0502C7.27506 12.1381 7.15583 12.1875 7.03151 12.1875C6.90719 12.1875 6.78796 12.1381 6.70005 12.0502C6.61215 11.9623 6.56276 11.8431 6.56276 11.7187V9.10078L2.67565 12.9879C2.6321 13.0314 2.5804 13.066 2.52349 13.0896C2.46659 13.1131 2.4056 13.1253 2.34401 13.1253C2.28242 13.1253 2.22143 13.1131 2.16453 13.0896C2.10762 13.066 2.05592 13.0314 2.01237 12.9879C1.96882 12.9443 1.93427 12.8926 1.9107 12.8357C1.88713 12.7788 1.875 12.7178 1.875 12.6562C1.875 12.5947 1.88713 12.5337 1.9107 12.4768C1.93427 12.4199 1.96882 12.3682 2.01237 12.3246L5.89948 8.4375H3.28151C3.15719 8.4375 3.03796 8.38811 2.95005 8.30021C2.86215 8.2123 2.81276 8.09307 2.81276 7.96875C2.81276 7.84443 2.86215 7.7252 2.95005 7.63729C3.03796 7.54939 3.15719 7.5 3.28151 7.5H7.03151C7.15583 7.5 7.27506 7.54939 7.36297 7.63729C7.45087 7.7252 7.50026 7.84443 7.50026 7.96875ZM12.1878 1.875H4.68776C4.43912 1.875 4.20066 1.97377 4.02485 2.14959C3.84903 2.3254 3.75026 2.56386 3.75026 2.8125V5.625C3.75026 5.74932 3.79965 5.86855 3.88755 5.95646C3.97546 6.04436 4.09469 6.09375 4.21901 6.09375C4.34333 6.09375 4.46256 6.04436 4.55047 5.95646C4.63837 5.86855 4.68776 5.74932 4.68776 5.625V2.8125H12.1878V10.3125H9.37526C9.25094 10.3125 9.13171 10.3619 9.0438 10.4498C8.9559 10.5377 8.90651 10.6569 8.90651 10.7812C8.90651 10.9056 8.9559 11.0248 9.0438 11.1127C9.13171 11.2006 9.25094 11.25 9.37526 11.25H12.1878C12.4364 11.25 12.6749 11.1512 12.8507 10.9754C13.0265 10.7996 13.1253 10.5611 13.1253 10.3125V2.8125C13.1253 2.56386 13.0265 2.3254 12.8507 2.14959C12.6749 1.97377 12.4364 1.875 12.1878 1.875Z" fill="black"/>
</g>
</svg>
