<svg width="20" height="20" viewBox="0 0 20 20" fill="none" xmlns="http://www.w3.org/2000/svg">
<g opacity="0.6" clip-path="url(#clip0_428_550)">
<path d="M6.25 8.75C6.94036 8.75 7.5 8.19036 7.5 7.5C7.5 6.80964 6.94036 6.25 6.25 6.25C5.55964 6.25 5 6.80964 5 7.5C5 8.19036 5.55964 8.75 6.25 8.75Z" fill="black"/>
<path d="M10 6.875C10.6904 6.875 11.25 6.31536 11.25 5.625C11.25 4.93464 10.6904 4.375 10 4.375C9.30964 4.375 8.75 4.93464 8.75 5.625C8.75 6.31536 9.30964 6.875 10 6.875Z" fill="black"/>
<path d="M13.75 8.75C14.4404 8.75 15 8.19036 15 7.5C15 6.80964 14.4404 6.25 13.75 6.25C13.0596 6.25 12.5 6.80964 12.5 7.5C12.5 8.19036 13.0596 8.75 13.75 8.75Z" fill="black"/>
<path d="M14.375 12.5C15.0654 12.5 15.625 11.9404 15.625 11.25C15.625 10.5596 15.0654 10 14.375 10C13.6846 10 13.125 10.5596 13.125 11.25C13.125 11.9404 13.6846 12.5 14.375 12.5Z" fill="black"/>
<path d="M11.875 15.625C12.5654 15.625 13.125 15.0654 13.125 14.375C13.125 13.6846 12.5654 13.125 11.875 13.125C11.1846 13.125 10.625 13.6846 10.625 14.375C10.625 15.0654 11.1846 15.625 11.875 15.625Z" fill="black"/>
<path d="M10.3375 1.25016C9.16035 1.20473 7.98615 1.39745 6.88528 1.81679C5.78442 2.23613 4.77957 2.87345 3.93097 3.69053C3.08237 4.50761 2.4075 5.48764 1.94682 6.57185C1.48613 7.65606 1.24913 8.82214 1.25 10.0002C1.24997 10.4635 1.35681 10.9206 1.56222 11.3359C1.76762 11.7512 2.06606 12.1135 2.43431 12.3947C2.80256 12.6759 3.23071 12.8683 3.68546 12.9571C4.14021 13.0458 4.6093 13.0285 5.05625 12.9064L5.75625 12.7127C6.03472 12.6367 6.32697 12.626 6.61025 12.6814C6.89352 12.7369 7.16017 12.857 7.38941 13.0324C7.61866 13.2078 7.8043 13.4338 7.93189 13.6927C8.05948 13.9516 8.12557 14.2365 8.125 14.5252V16.8752C8.125 17.3724 8.32255 17.8494 8.67418 18.201C9.02581 18.5526 9.50272 18.7502 10 18.7502C11.178 18.751 12.3441 18.514 13.4283 18.0534C14.5125 17.5927 15.4926 16.9178 16.3096 16.0692C17.1267 15.2206 17.764 14.2157 18.1834 13.1149C18.6027 12.014 18.7954 10.8398 18.75 9.66266C18.6593 7.46059 17.7439 5.37312 16.1855 3.8147C14.627 2.25627 12.5396 1.34085 10.3375 1.25016ZM15.4063 15.1939C14.7084 15.9246 13.8693 16.5058 12.94 16.9022C12.0106 17.2987 11.0104 17.5021 10 17.5002C9.83424 17.5002 9.67527 17.4343 9.55806 17.3171C9.44085 17.1999 9.375 17.0409 9.375 16.8752V14.5252C9.375 13.6964 9.04576 12.9015 8.45971 12.3155C7.87366 11.7294 7.0788 11.4002 6.25 11.4002C5.96916 11.4007 5.68963 11.4385 5.41875 11.5127L4.71875 11.7064C4.4573 11.7765 4.18323 11.7854 3.91778 11.7325C3.65233 11.6795 3.40264 11.5661 3.18807 11.4011C2.97351 11.2361 2.79983 11.0239 2.6805 10.781C2.56118 10.538 2.49941 10.2708 2.5 10.0002C2.49923 8.99004 2.70251 7.99016 3.09766 7.06053C3.4928 6.1309 4.07167 5.29066 4.79952 4.59024C5.52737 3.88982 6.38921 3.34365 7.33334 2.9845C8.27746 2.62534 9.2844 2.4606 10.2938 2.50016C12.1732 2.59805 13.9499 3.38871 15.2807 4.71951C16.6115 6.05031 17.4021 7.82692 17.5 9.70641C17.543 10.7164 17.3795 11.7245 17.0195 12.6691C16.6595 13.6138 16.1106 14.475 15.4063 15.2002V15.1939Z" fill="black"/>
</g>
<defs>
<clipPath id="clip0_428_550">
<rect width="20" height="20" fill="white"/>
</clipPath>
</defs>
</svg>
