<svg width="20" height="20" viewBox="0 0 20 20" fill="none" xmlns="http://www.w3.org/2000/svg">
<g opacity="0.7">
<path d="M13.75 1.25V0.625H12.5V1.25C12.4982 1.45926 12.4815 1.66812 12.45 1.875H7.55C7.51849 1.66812 7.50178 1.45926 7.5 1.25V0.625H6.25V1.25C6.25 3.59681 7.48169 4.75219 8.813 5.625C7.48169 6.49781 6.25 7.65319 6.25 10C6.25 12.3468 7.48169 13.5022 8.813 14.375C7.48169 15.2478 6.25 16.4032 6.25 18.75V19.375H7.5V18.75C7.50178 18.5407 7.51849 18.3319 7.55 18.125H12.45C12.4815 18.3319 12.4982 18.5407 12.5 18.75V19.375H13.75V18.75C13.75 16.4032 12.5183 15.2478 11.187 14.375C12.5183 13.5022 13.75 12.3468 13.75 10C13.75 7.65319 12.5183 6.49781 11.187 5.625C12.5183 4.75219 13.75 3.59681 13.75 1.25ZM12.5 10C12.4982 10.2093 12.4815 10.4181 12.45 10.625H7.55C7.48367 10.211 7.48367 9.78903 7.55 9.375H12.45C12.4815 9.58188 12.4982 9.79074 12.5 10ZM12.0276 16.875H7.97244C8.49352 16.1285 9.1897 15.5212 10 15.1062C10.8103 15.5212 11.5065 16.1285 12.0276 16.875ZM10 13.6438C9.1897 13.2288 8.49352 12.6215 7.97244 11.875H12.0276C11.5065 12.6215 10.8103 13.2288 10 13.6438ZM12.0276 8.125H7.97244C8.49352 7.37851 9.1897 6.77119 10 6.35625C10.8103 6.77119 11.5065 7.37851 12.0276 8.125ZM10 4.89375C9.1897 4.47881 8.49352 3.87149 7.97244 3.125H12.0276C11.5065 3.87149 10.8103 4.47881 10 4.89375Z" fill="black"/>
</g>
</svg>
