<svg width="28" height="17" viewBox="0 0 28 17" fill="none" xmlns="http://www.w3.org/2000/svg">
<g opacity="0.5">
<rect width="28" height="17" rx="2" fill="#D4F5D9"/>
<rect x="0.5" y="0.5" width="27" height="16" rx="1.5" stroke="black" stroke-opacity="0.2"/>
</g>
<path d="M9.16666 6.00002H8.05555C7.90821 6.00002 7.7669 6.05855 7.66272 6.16274C7.55853 6.26692 7.5 6.40823 7.5 6.55557V10.4444C7.5 10.5918 7.55853 10.7331 7.66272 10.8373C7.7669 10.9415 7.90821 11 8.05555 11C8.2029 11 8.3442 10.9415 8.44839 10.8373C8.55258 10.7331 8.61111 10.5918 8.61111 10.4444V9.88889H9.16666C9.68236 9.88889 10.1769 9.68403 10.5416 9.31938C10.9062 8.95473 11.1111 8.46015 11.1111 7.94446C11.1111 7.42876 10.9062 6.93418 10.5416 6.56953C10.1769 6.20488 9.68236 6.00002 9.16666 6.00002ZM9.16666 8.77779H8.61111V7.11113H9.16666C9.38767 7.11113 9.59963 7.19892 9.75591 7.3552C9.91219 7.51148 9.99999 7.72344 9.99999 7.94446C9.99999 8.16547 9.91219 8.37743 9.75591 8.53371C9.59963 8.68999 9.38767 8.77779 9.16666 8.77779ZM20.5555 9.94931C20.5555 10.0924 20.5003 10.23 20.4013 10.3333C20.2079 10.5416 19.974 10.7081 19.7139 10.8227C19.4538 10.9374 19.1731 10.9977 18.8888 11C17.6632 11 16.6666 9.87848 16.6666 8.50001C16.6666 7.12154 17.6632 6.00002 18.8888 6.00002C19.2972 6.0014 19.6958 6.12499 20.0333 6.35488C20.1555 6.43776 20.2398 6.56579 20.2676 6.7108C20.2954 6.85582 20.2644 7.00594 20.1815 7.12814C20.0987 7.25034 19.9706 7.33461 19.8256 7.36242C19.6806 7.39022 19.5305 7.35928 19.4083 7.2764C19.2559 7.16995 19.0747 7.11231 18.8888 7.11113C18.2763 7.11113 17.7777 7.73612 17.7777 8.50001C17.7777 9.26389 18.2763 9.88889 18.8888 9.88889C19.0894 9.88666 19.284 9.82049 19.4444 9.7V9.33334C19.2971 9.33334 19.1557 9.27481 19.0516 9.17062C18.9474 9.06643 18.8888 8.92513 18.8888 8.77779C18.8888 8.63044 18.9474 8.48914 19.0516 8.38495C19.1557 8.28076 19.2971 8.22223 19.4444 8.22223H19.9999C20.1473 8.22223 20.2886 8.28076 20.3928 8.38495C20.497 8.48914 20.5555 8.63044 20.5555 8.77779V9.94931ZM15.8333 6.55557V10.4444C15.8333 10.5622 15.7959 10.6769 15.7265 10.772C15.6571 10.8671 15.5593 10.9377 15.4472 10.9736C15.3924 10.9912 15.3353 11.0001 15.2777 11C15.1893 11 15.1022 10.9789 15.0235 10.9384C14.9449 10.898 14.8771 10.8393 14.8257 10.7674L13.0555 8.29168V10.4444C13.0555 10.5918 12.997 10.7331 12.8928 10.8373C12.7886 10.9415 12.6473 11 12.5 11C12.3526 11 12.2113 10.9415 12.1071 10.8373C12.003 10.7331 11.9444 10.5918 11.9444 10.4444V6.55557C11.9444 6.43787 11.9818 6.3232 12.0512 6.22811C12.1206 6.13302 12.2183 6.06242 12.3304 6.0265C12.4425 5.99058 12.5631 5.99119 12.6749 6.02824C12.7866 6.06529 12.8836 6.13687 12.9521 6.23266L14.7222 8.70834V6.55557C14.7222 6.40823 14.7807 6.26692 14.8849 6.16274C14.9891 6.05855 15.1304 6.00002 15.2777 6.00002C15.4251 6.00002 15.5664 6.05855 15.6706 6.16274C15.7748 6.26692 15.8333 6.40823 15.8333 6.55557Z" fill="black" fill-opacity="0.8"/>
</svg>
