<svg width="16" height="16" viewBox="0 0 16 16" fill="none" xmlns="http://www.w3.org/2000/svg">
<path d="M10.5 14H5.5C5.23488 13.9997 4.9807 13.8943 4.79323 13.7068C4.60576 13.5193 4.5003 13.2651 4.5 13V8.00002H2C1.90113 8 1.80448 7.97066 1.72227 7.91572C1.64007 7.86078 1.576 7.78269 1.53816 7.69134C1.50033 7.59999 1.49042 7.49948 1.50971 7.4025C1.52899 7.30553 1.5766 7.21644 1.6465 7.14652L7.6465 1.14652C7.69291 1.10007 7.74801 1.06322 7.80867 1.03808C7.86933 1.01294 7.93434 1 8 1C8.06566 1 8.13068 1.01294 8.19133 1.03808C8.25199 1.06322 8.30709 1.10007 8.3535 1.14652L14.3535 7.14652C14.4234 7.21644 14.471 7.30553 14.4903 7.4025C14.5096 7.49948 14.4997 7.59999 14.4618 7.69134C14.424 7.78269 14.3599 7.86078 14.2777 7.91572C14.1955 7.97066 14.0989 8 14 8.00002H11.5V13C11.4996 13.2651 11.3942 13.5193 11.2067 13.7067C11.0193 13.8942 10.7651 13.9997 10.5 14ZM3.20705 7.00002H5.5V13H10.5V7.00002H12.7929L8 2.20707L3.20705 7.00002Z" fill="black"/>
</svg>
