<svg width="13" height="13" viewBox="0 0 13 13" fill="none" xmlns="http://www.w3.org/2000/svg">
<path d="M11.5149 10.7347L9.1679 8.38812C9.84816 7.57142 10.1874 6.5239 10.115 5.46347C10.0426 4.40304 9.56414 3.41134 8.77919 2.69467C7.99423 1.97801 6.9632 1.59156 5.90057 1.61571C4.83795 1.63986 3.82554 2.07275 3.07395 2.82434C2.32237 3.57592 1.88948 4.58833 1.86533 5.65096C1.84118 6.71358 2.22763 7.74461 2.94429 8.52957C3.66096 9.31452 4.65265 9.79296 5.71309 9.86536C6.77352 9.93776 7.82104 9.59855 8.63774 8.91828L10.9843 11.2653C11.0191 11.3002 11.0605 11.3278 11.106 11.3466C11.1516 11.3655 11.2003 11.3752 11.2496 11.3752C11.2989 11.3752 11.3477 11.3655 11.3932 11.3466C11.4387 11.3278 11.4801 11.3002 11.5149 11.2653C11.5498 11.2305 11.5774 11.1891 11.5963 11.1436C11.6151 11.0981 11.6248 11.0493 11.6248 11C11.6248 10.9507 11.6151 10.9019 11.5963 10.8564C11.5774 10.8109 11.5498 10.7695 11.5149 10.7347ZM2.62462 5.75C2.62462 5.08249 2.82256 4.42997 3.19341 3.87495C3.56426 3.31993 4.09136 2.88735 4.70806 2.63191C5.32476 2.37646 6.00336 2.30962 6.65805 2.43985C7.31273 2.57007 7.9141 2.89151 8.3861 3.36351C8.85811 3.83552 9.17954 4.43688 9.30977 5.09157C9.43999 5.74626 9.37316 6.42486 9.11771 7.04156C8.86227 7.65826 8.42968 8.18536 7.87467 8.55621C7.31965 8.92706 6.66713 9.125 5.99962 9.125C5.10482 9.12401 4.24695 8.76811 3.61423 8.13539C2.98151 7.50267 2.62561 6.6448 2.62462 5.75Z" fill="black"/>
</svg>
