<svg width="15" height="15" viewBox="0 0 15 15" fill="none" xmlns="http://www.w3.org/2000/svg">
<g opacity="0.5">
<path d="M12.6562 4.21875H7.69394L6.09375 2.61856C6.00701 2.53113 5.90376 2.46181 5.78999 2.41463C5.67622 2.36745 5.55421 2.34336 5.43106 2.34375H2.34375C2.09511 2.34375 1.85665 2.44253 1.68084 2.61834C1.50502 2.79416 1.40625 3.03261 1.40625 3.28125V11.7551C1.40656 11.994 1.5016 12.223 1.67054 12.392C1.83947 12.5609 2.06851 12.6559 2.30742 12.6563H12.7084C12.9431 12.6559 13.1681 12.5626 13.3341 12.3966C13.5001 12.2306 13.5934 12.0056 13.5938 11.7709V5.15625C13.5938 4.90761 13.495 4.66916 13.3192 4.49334C13.1433 4.31753 12.9049 4.21875 12.6562 4.21875ZM2.34375 3.28125H5.43106L6.36856 4.21875H2.34375V3.28125ZM12.6562 11.7188H2.34375V5.15625H12.6562V11.7188Z" fill="black"/>
</g>
</svg>
