<svg width="20" height="20" viewBox="0 0 20 20" fill="none" xmlns="http://www.w3.org/2000/svg">
<g opacity="0.6">
<path d="M18.3814 13.544L6.46261 1.6127C6.34652 1.49648 6.20866 1.40428 6.05691 1.34138C5.90517 1.27847 5.74251 1.24609 5.57824 1.24609C5.41397 1.24609 5.25131 1.27847 5.09956 1.34138C4.94781 1.40428 4.80995 1.49648 4.69386 1.6127L1.61886 4.69395C1.38605 4.92816 1.25537 5.24497 1.25537 5.5752C1.25537 5.90543 1.38605 6.22225 1.61886 6.45645L13.5376 18.3877C13.6544 18.5036 13.7929 18.5952 13.9452 18.6574C14.0975 18.7196 14.2606 18.7512 14.4251 18.7502C14.7552 18.7505 15.072 18.6202 15.3064 18.3877L18.3814 15.3065C18.6142 15.0722 18.7449 14.7554 18.7449 14.4252C18.7449 14.095 18.6142 13.7782 18.3814 13.544ZM14.4251 17.5002L2.50011 5.5752L5.57511 2.5002L7.94386 4.86895L6.53761 6.2502L7.41886 7.13145L8.82511 5.7502L11.4064 8.33145L10.0001 9.7377L10.8876 10.6252L12.2939 9.21895L14.8751 11.8002L13.4689 13.2065L14.3751 14.0877L15.7814 12.6815L17.5001 14.4252L14.4251 17.5002Z" fill="black"/>
</g>
</svg>
