<svg width="15" height="15" viewBox="0 0 15 15" fill="none" xmlns="http://www.w3.org/2000/svg">
<g opacity="0.5">
<path d="M9.70664 5.95664L8.1627 7.5L9.70664 9.04336C9.7502 9.08691 9.78474 9.13861 9.80831 9.19552C9.83188 9.25242 9.84401 9.31341 9.84401 9.375C9.84401 9.43659 9.83188 9.49758 9.80831 9.55448C9.78474 9.61139 9.7502 9.66309 9.70664 9.70664C9.66309 9.75019 9.61139 9.78474 9.55449 9.80831C9.49758 9.83188 9.43659 9.84401 9.375 9.84401C9.31341 9.84401 9.25242 9.83188 9.19552 9.80831C9.13862 9.78474 9.08691 9.75019 9.04336 9.70664L7.5 8.1627L5.95664 9.70664C5.91309 9.75019 5.86139 9.78474 5.80449 9.80831C5.74758 9.83188 5.68659 9.84401 5.625 9.84401C5.56341 9.84401 5.50242 9.83188 5.44552 9.80831C5.38862 9.78474 5.33691 9.75019 5.29336 9.70664C5.24981 9.66309 5.21526 9.61139 5.19169 9.55448C5.16812 9.49758 5.15599 9.43659 5.15599 9.375C5.15599 9.31341 5.16812 9.25242 5.19169 9.19552C5.21526 9.13861 5.24981 9.08691 5.29336 9.04336L6.83731 7.5L5.29336 5.95664C5.20541 5.86868 5.15599 5.74939 5.15599 5.625C5.15599 5.50061 5.20541 5.38132 5.29336 5.29336C5.38132 5.2054 5.50061 5.15599 5.625 5.15599C5.74939 5.15599 5.86869 5.2054 5.95664 5.29336L7.5 6.8373L9.04336 5.29336C9.08691 5.24981 9.13862 5.21526 9.19552 5.19169C9.25242 5.16812 9.31341 5.15599 9.375 5.15599C9.43659 5.15599 9.49758 5.16812 9.55449 5.19169C9.61139 5.21526 9.66309 5.24981 9.70664 5.29336C9.7502 5.33691 9.78474 5.38861 9.80831 5.44552C9.83188 5.50242 9.84401 5.56341 9.84401 5.625C9.84401 5.68659 9.83188 5.74758 9.80831 5.80448C9.78474 5.86139 9.7502 5.91309 9.70664 5.95664ZM13.5938 7.5C13.5938 8.70523 13.2364 9.88339 12.5668 10.8855C11.8972 11.8876 10.9455 12.6687 9.83198 13.1299C8.71849 13.5911 7.49324 13.7118 6.31117 13.4767C5.1291 13.2415 4.0433 12.6612 3.19107 11.8089C2.33884 10.9567 1.75847 9.8709 1.52334 8.68883C1.28821 7.50676 1.40889 6.28151 1.87011 5.16802C2.33133 4.05454 3.11238 3.10282 4.1145 2.43323C5.11661 1.76364 6.29477 1.40625 7.5 1.40625C9.11564 1.40796 10.6646 2.05052 11.8071 3.19295C12.9495 4.33538 13.592 5.88436 13.5938 7.5ZM12.6563 7.5C12.6563 6.48019 12.3538 5.48328 11.7873 4.63534C11.2207 3.7874 10.4154 3.12651 9.47321 2.73625C8.53103 2.34598 7.49428 2.24387 6.49407 2.44283C5.49385 2.64178 4.5751 3.13287 3.85398 3.85398C3.13287 4.5751 2.64178 5.49385 2.44283 6.49407C2.24387 7.49428 2.34598 8.53103 2.73625 9.47321C3.12651 10.4154 3.7874 11.2207 4.63534 11.7873C5.48328 12.3538 6.48019 12.6562 7.5 12.6562C8.86705 12.6547 10.1777 12.111 11.1443 11.1443C12.111 10.1777 12.6547 8.86705 12.6563 7.5Z" fill="black"/>
</g>
</svg>
