<svg width="28" height="17" viewBox="0 0 28 17" fill="none" xmlns="http://www.w3.org/2000/svg">
<g opacity="0.5">
<rect width="28" height="17" rx="2" fill="#CDD7FB"/>
<rect x="0.5" y="0.5" width="27" height="16" rx="1.5" stroke="black" stroke-opacity="0.2"/>
</g>
<path d="M13.8889 6.5H12.7778C12.6304 6.5 12.4891 6.55853 12.3849 6.66272C12.2808 6.7669 12.2222 6.90821 12.2222 7.05556V10.9444C12.2222 11.0918 12.2808 11.2331 12.3849 11.3373C12.4891 11.4415 12.6304 11.5 12.7778 11.5C12.9251 11.5 13.0664 11.4415 13.1706 11.3373C13.2748 11.2331 13.3333 11.0918 13.3333 10.9444V10.3889H13.8889C14.4046 10.3889 14.8992 10.184 15.2638 9.81937C15.6285 9.45472 15.8333 8.96014 15.8333 8.44444C15.8333 7.92875 15.6285 7.43417 15.2638 7.06951C14.8992 6.70486 14.4046 6.5 13.8889 6.5ZM13.8889 9.27778H13.3333V7.61111H13.8889C14.1099 7.61111 14.3219 7.69891 14.4781 7.85519C14.6344 8.01147 14.7222 8.22343 14.7222 8.44444C14.7222 8.66546 14.6344 8.87742 14.4781 9.0337C14.3219 9.18998 14.1099 9.27778 13.8889 9.27778ZM20.5556 9.27778V10.4493C20.5555 10.5924 20.5003 10.73 20.4014 10.8333C20.2079 11.0416 19.974 11.2081 19.7139 11.3227C19.4539 11.4374 19.1731 11.4977 18.8889 11.5C17.6632 11.5 16.6667 10.3785 16.6667 9C16.6667 7.62153 17.6632 6.5 18.8889 6.5C19.2974 6.50128 19.696 6.62515 20.0333 6.85556C20.1554 6.93844 20.2396 7.06643 20.2674 7.21138C20.2951 7.35633 20.2641 7.50636 20.1813 7.62847C20.0984 7.75058 19.9704 7.83477 19.8254 7.86251C19.6805 7.89025 19.5304 7.85927 19.4083 7.77639C19.2559 7.66994 19.0748 7.6123 18.8889 7.61111C18.2764 7.61111 17.7778 8.23611 17.7778 9C17.7778 9.76389 18.2764 10.3889 18.8889 10.3889C19.0893 10.3866 19.2839 10.3207 19.4444 10.2007V9.83333C19.2971 9.83333 19.1558 9.7748 19.0516 9.67062C18.9474 9.56643 18.8889 9.42512 18.8889 9.27778C18.8889 9.13044 18.9474 8.98913 19.0516 8.88494C19.1558 8.78075 19.2971 8.72222 19.4444 8.72222H20C20.1473 8.72222 20.2887 8.78075 20.3928 8.88494C20.497 8.98913 20.5556 9.13044 20.5556 9.27778ZM11.1111 7.05556V9.69444C11.1111 10.1733 10.9209 10.6326 10.5823 10.9712C10.2437 11.3098 9.78442 11.5 9.30556 11.5C8.82669 11.5 8.36744 11.3098 8.02884 10.9712C7.69023 10.6326 7.5 10.1733 7.5 9.69444C7.5 9.5471 7.55853 9.40579 7.66272 9.30161C7.76691 9.19742 7.90821 9.13889 8.05556 9.13889C8.2029 9.13889 8.3442 9.19742 8.44839 9.30161C8.55258 9.40579 8.61111 9.5471 8.61111 9.69444C8.61111 9.87862 8.68428 10.0553 8.81451 10.1855C8.94474 10.3157 9.12138 10.3889 9.30556 10.3889C9.48973 10.3889 9.66637 10.3157 9.7966 10.1855C9.92683 10.0553 10 9.87862 10 9.69444V7.05556C10 6.90821 10.0585 6.7669 10.1627 6.66272C10.2669 6.55853 10.4082 6.5 10.5556 6.5C10.7029 6.5 10.8442 6.55853 10.9484 6.66272C11.0526 6.7669 11.1111 6.90821 11.1111 7.05556Z" fill="black" fill-opacity="0.8"/>
</svg>
