<svg width="20" height="20" viewBox="0 0 20 20" fill="none" xmlns="http://www.w3.org/2000/svg">
<g opacity="0.6" clip-path="url(#clip0_428_546)">
<path d="M15.625 7.5H12.5V8.75H15.625C15.7907 8.75013 15.9496 8.81602 16.0668 8.9332C16.184 9.05039 16.2499 9.20928 16.25 9.375V10.625H13.75C13.2529 10.6255 12.7763 10.8233 12.4248 11.1748C12.0733 11.5263 11.8755 12.0029 11.875 12.5V13.125C11.8755 13.6221 12.0733 14.0987 12.4248 14.4502C12.7763 14.8017 13.2529 14.9995 13.75 15H17.5V9.375C17.4995 8.87789 17.3017 8.40129 16.9502 8.04978C16.5987 7.69827 16.1221 7.50055 15.625 7.5ZM13.75 13.75C13.5843 13.7499 13.4254 13.684 13.3082 13.5668C13.191 13.4496 13.1251 13.2907 13.125 13.125V12.5C13.1251 12.3343 13.191 12.1754 13.3082 12.0582C13.4254 11.941 13.5843 11.8751 13.75 11.875H16.25V13.75H13.75Z" fill="black"/>
<path d="M10 15H11.25L7.5 4.375H6.25L2.5 15H3.75L4.8085 11.875H8.94194L10 15ZM5.23194 10.625L6.79231 6.01806L6.95906 6.01838L8.51875 10.625H5.23194Z" fill="black"/>
</g>
<defs>
<clipPath id="clip0_428_546">
<rect width="20" height="20" fill="white"/>
</clipPath>
</defs>
</svg>
