<svg width="10" height="10" viewBox="0 0 10 10" fill="none" xmlns="http://www.w3.org/2000/svg">
<g opacity="0.5" clip-path="url(#clip0_499_937)">
<path fill-rule="evenodd" clip-rule="evenodd" d="M4.14688 0.70901C4.99546 0.540273 5.87488 0.626936 6.67422 0.958034C7.47363 1.28917 8.15736 1.84991 8.63809 2.56936C9.11866 3.28875 9.37539 4.13488 9.37539 5.00003C9.3753 6.16023 8.91356 7.27241 8.09317 8.0928C7.27277 8.91319 6.16059 9.37494 5.00039 9.37503C4.13524 9.37503 3.28912 9.1183 2.56973 8.63772C1.85028 8.157 1.28954 7.47326 0.9584 6.67385C0.627302 5.87451 0.540639 4.99509 0.709376 4.14651C0.878187 3.29784 1.29479 2.51813 1.90664 1.90628C2.5185 1.29442 3.29821 0.87782 4.14688 0.70901ZM5.00039 1.25003C4.25871 1.25003 3.53309 1.46981 2.91641 1.88186C2.29989 2.29388 1.81934 2.87942 1.53555 3.56448C1.25172 4.2497 1.17699 5.00404 1.32168 5.73147C1.46637 6.45879 1.82371 7.12699 2.34805 7.65139C2.8725 8.17584 3.54152 8.53307 4.26895 8.67776C4.99622 8.82233 5.74989 8.74765 6.43496 8.46389C7.12019 8.18006 7.7065 7.69972 8.11856 7.08303C8.53044 6.4665 8.75033 5.74149 8.75039 5.00003C8.75039 4.00546 8.35502 3.05094 7.65176 2.34768C6.94859 1.6446 5.99476 1.25011 5.00039 1.25003ZM5.31289 6.87503H6.25039V7.50003H3.75039V6.87503H4.68789V5.00003H4.06289V4.37503H5.31289V6.87503ZM5.00039 2.50003C5.12452 2.50011 5.24363 2.54901 5.33145 2.63674C5.41935 2.72465 5.46914 2.84446 5.46914 2.96878C5.46908 3.06124 5.44134 3.15162 5.39004 3.22854C5.33853 3.30563 5.26476 3.36591 5.1791 3.40139C5.09352 3.43679 4.99944 3.44583 4.9086 3.42776C4.8177 3.40966 4.73389 3.36536 4.66836 3.29983C4.60289 3.2343 4.5585 3.15045 4.54043 3.0596C4.52242 2.96878 4.53139 2.87463 4.5668 2.78909C4.60225 2.70351 4.66266 2.63063 4.73965 2.57913C4.81674 2.52762 4.90768 2.50003 5.00039 2.50003Z" fill="black"/>
</g>
<defs>
<clipPath id="clip0_499_937">
<rect width="10" height="10" fill="white"/>
</clipPath>
</defs>
</svg>
