<svg width="20" height="20" viewBox="0 0 20 20" fill="none" xmlns="http://www.w3.org/2000/svg">
<g opacity="0.7">
<path d="M10 1.25C8.26942 1.25 6.57769 1.76318 5.13876 2.72464C3.69983 3.6861 2.57832 5.05267 1.91606 6.65152C1.25379 8.25037 1.08051 10.0097 1.41813 11.707C1.75575 13.4044 2.58911 14.9635 3.81282 16.1872C5.03653 17.4109 6.59563 18.2442 8.29296 18.5819C9.9903 18.9195 11.7496 18.7462 13.3485 18.0839C14.9473 17.4217 16.3139 16.3002 17.2754 14.8612C18.2368 13.4223 18.75 11.7306 18.75 10C18.75 7.67936 17.8281 5.45376 16.1872 3.81282C14.5462 2.17187 12.3206 1.25 10 1.25ZM14.6875 5.625C15.1202 5.625 15.5431 5.75329 15.9028 5.99366C16.2625 6.23403 16.5429 6.57567 16.7085 6.97538C16.8741 7.37509 16.9174 7.81493 16.833 8.23926C16.7486 8.66359 16.5402 9.05337 16.2343 9.3593C15.9284 9.66522 15.5386 9.87356 15.1143 9.95797C14.6899 10.0424 14.2501 9.99905 13.8504 9.83349C13.4507 9.66792 13.109 9.38754 12.8687 9.02781C12.6283 8.66808 12.5 8.24515 12.5 7.8125C12.5007 7.23255 12.7314 6.67654 13.1415 6.26645C13.5515 5.85636 14.1076 5.62568 14.6875 5.625ZM14.9593 4.38875C14.8694 4.38169 14.7792 4.375 14.6875 4.375C14.1981 4.37492 13.7144 4.47966 13.269 4.68216C12.8235 4.88467 12.4265 5.18024 12.1048 5.549C11.7958 4.82302 11.3196 4.18035 10.715 3.6734C10.1104 3.16644 9.39455 2.80954 8.62582 2.63181C9.74551 2.41773 10.8995 2.46489 11.998 2.76962C13.0965 3.07434 14.1099 3.62843 14.9593 4.38875ZM10 17.5C9.50555 17.5 9.0222 17.3534 8.61108 17.0787C8.19996 16.804 7.87952 16.4135 7.69031 15.9567C7.50109 15.4999 7.45158 14.9972 7.54804 14.5123C7.6445 14.0273 7.88261 13.5819 8.23224 13.2322C8.58187 12.8826 9.02733 12.6445 9.51228 12.548C9.99723 12.4516 10.4999 12.5011 10.9567 12.6903C11.4135 12.8795 11.804 13.2 12.0787 13.6111C12.3534 14.0222 12.5 14.5055 12.5 15C12.4993 15.6628 12.2356 16.2983 11.7669 16.7669C11.2983 17.2356 10.6628 17.4993 10 17.5ZM7.5 11.25C6.75832 11.25 6.0333 11.0301 5.41662 10.618C4.79993 10.206 4.31928 9.62029 4.03546 8.93506C3.75163 8.24984 3.67736 7.49584 3.82206 6.76841C3.96675 6.04098 4.32391 5.3728 4.84835 4.84835C5.3728 4.3239 6.04099 3.96675 6.76842 3.82206C7.49584 3.67736 8.24984 3.75162 8.93507 4.03545C9.62029 4.31928 10.206 4.79993 10.618 5.41661C11.0301 6.0333 11.25 6.75832 11.25 7.5C11.2489 8.49422 10.8535 9.4474 10.1504 10.1504C9.44741 10.8534 8.49423 11.2489 7.5 11.25ZM2.5 10C2.50156 9.53885 2.54574 9.07883 2.632 8.62581C2.87614 9.67959 3.45574 10.6256 4.28368 11.3217C5.11162 12.0179 6.14315 12.4264 7.22319 12.4859C6.70979 13.0485 6.3812 13.7549 6.28174 14.5099C6.18228 15.265 6.31672 16.0324 6.66694 16.7087C5.41726 16.0885 4.36527 15.1322 3.62917 13.9471C2.89308 12.762 2.50204 11.3951 2.5 10ZM13.3328 16.7087C13.5995 16.1924 13.7423 15.6211 13.7497 15.04C13.7571 14.4589 13.629 13.8841 13.3756 13.3612C13.1221 12.8383 12.7503 12.3816 12.2896 12.0274C11.8289 11.6732 11.292 11.4313 10.7214 11.3208C11.2107 10.9085 11.6164 10.4063 11.9168 9.84131C12.2378 10.2813 12.6589 10.6386 13.1453 10.8835C13.6318 11.1285 14.1696 11.2541 14.7142 11.2499C15.2588 11.2458 15.7946 11.112 16.2772 10.8597C16.7599 10.6073 17.1755 10.2437 17.4898 9.79887C17.4916 9.86631 17.5 9.93225 17.5 10C17.4979 11.3951 17.1069 12.762 16.3707 13.9471C15.6346 15.1322 14.5825 16.0886 13.3328 16.7087Z" fill="black"/>
</g>
</svg>
