<svg width="10" height="10" viewBox="0 0 10 10" fill="none" xmlns="http://www.w3.org/2000/svg">
<path d="M8.03377 7.59134C8.0628 7.62037 8.08583 7.65484 8.10155 7.69277C8.11726 7.73071 8.12535 7.77137 8.12535 7.81243C8.12535 7.85349 8.11726 7.89415 8.10155 7.93208C8.08583 7.97002 8.0628 8.00449 8.03377 8.03352C8.00473 8.06256 7.97026 8.08559 7.93233 8.1013C7.89439 8.11702 7.85373 8.1251 7.81267 8.1251C7.77161 8.1251 7.73095 8.11702 7.69302 8.1013C7.65508 8.08559 7.62061 8.06256 7.59158 8.03352L5.00017 5.44173L2.40877 8.03352C2.35013 8.09216 2.2706 8.1251 2.18767 8.1251C2.10475 8.1251 2.02522 8.09216 1.96658 8.03352C1.90794 7.97489 1.875 7.89536 1.875 7.81243C1.875 7.7295 1.90794 7.64997 1.96658 7.59134L4.55838 4.99993L1.96658 2.40852C1.90794 2.34989 1.875 2.27036 1.875 2.18743C1.875 2.1045 1.90794 2.02497 1.96658 1.96634C2.02522 1.9077 2.10475 1.87476 2.18767 1.87476C2.2706 1.87476 2.35013 1.9077 2.40877 1.96634L5.00017 4.55813L7.59158 1.96634C7.65022 1.9077 7.72975 1.87476 7.81267 1.87476C7.8956 1.87476 7.97513 1.9077 8.03377 1.96634C8.0924 2.02497 8.12535 2.1045 8.12535 2.18743C8.12535 2.27036 8.0924 2.34989 8.03377 2.40852L5.44197 4.99993L8.03377 7.59134Z" fill="black"/>
</svg>
