<svg width="249" height="147" viewBox="0 0 249 147" fill="none" xmlns="http://www.w3.org/2000/svg">
<g clip-path="url(#clip0_633_464)">
<rect width="249" height="147" fill="#FBFDFF"/>
<rect width="249" height="46" fill="#E8EFF5"/>
<rect x="43.5" y="5.5" width="74" height="35" rx="4.5" fill="#FBFBFB" stroke="#E7E7E7"/>
<rect x="124.5" y="5.5" width="74" height="35" rx="4.5" fill="#FBFBFB" stroke="#E7E7E7"/>
<rect x="206.5" y="5.5" width="35" height="35" rx="4.5" fill="#FBFBFB" stroke="#E7E7E7"/>
<g opacity="0.5" clip-path="url(#clip1_633_464)">
<path d="M224.625 22.375V18H223.375V22.375H219V23.625H223.375V28H224.625V23.625H229V22.375H224.625Z" fill="black"/>
</g>
<path d="M22.0087 21.7129L24.113 20.0198L24.8783 20.9604L23.6348 22.2772M22.0087 21.7129L23.6348 22.2772M22.0087 21.7129L21.2435 21.6103M14.5478 24.3465L15.313 24.9109H16.0783L16.2696 24.3465V22.8416H15.313L14.1652 23.4059M21.7217 25.6634L19.3304 26.4158H14.5478L9.76522 24.9109L9 24.1584L9.38261 23.2178L10.913 22.2772L13.5913 21.1485H14.9304M21.7217 25.6634L23.5391 27.1683L24.687 26.0396L23.5391 25.0915M21.7217 25.6634L23.5391 25.0915M23.5391 25.0915L24.113 24.9109H26.6L29.6609 27.1683H31V25.2871L29.8522 23.7822L31 21.7129V19.8317H30.0435L26.6 22.8416H25.2609L23.6348 22.2772M14.9304 21.1485H17.8L21.2435 21.6103M14.9304 21.1485L18.9478 18.1386L21.2435 21.6103M17.9913 27.1683L15.5043 30.3663L15.1217 31.6832V33M16.2696 31.6832H21.7217M16.8435 30.1782H21.0522M17.9913 28.6733H19.9043M20.0957 27.1683L22.5826 30.3663L22.9652 31.6832V33M21.2435 19.6436L23.3478 15.8812V14M17.0348 18.3267L15.313 15.8812V14M20.287 18.1386H21.0522M17.0348 16.6337H21.8174M16.2696 15.1287H22.5826M11.6783 23.2178V23.5941H12.0609V23.2178H11.6783Z" stroke="black" stroke-opacity="0.5" stroke-width="0.9"/>
</g>
<rect x="0.5" y="0.5" width="248" height="146" rx="6.5" stroke="#E8E8E8"/>
<defs>
<clipPath id="clip0_633_464">
<rect width="249" height="147" rx="7" fill="white"/>
</clipPath>
<clipPath id="clip1_633_464">
<rect width="20" height="20" fill="white" transform="translate(214 13)"/>
</clipPath>
</defs>
</svg>
