<svg width="249" height="147" viewBox="0 0 249 147" fill="none" xmlns="http://www.w3.org/2000/svg">
<g clip-path="url(#clip0_633_465)">
<rect width="249" height="147" fill="#FBFDFF"/>
<rect width="249" height="42" fill="#E8EFF5"/>
<rect x="9.5" y="49.5" width="89.5" height="35" rx="4.5" fill="white" stroke="#E7E7E7"/>
<rect x="110" y="49.5" width="89.5" height="35" rx="4.5" fill="white" stroke="#E7E7E7"/>
<rect x="208.5" y="49.5" width="35" height="35" rx="4.5" fill="white" stroke="#E7E7E7"/>
<g opacity="0.5" clip-path="url(#clip1_633_465)">
<path d="M226.625 66.375V62H225.375V66.375H221V67.625H225.375V72H226.625V67.625H231V66.375H226.625Z" fill="black"/>
</g>
<path d="M22.0087 18.7129L24.113 17.0198L24.8783 17.9604L23.6348 19.2772M22.0087 18.7129L23.6348 19.2772M22.0087 18.7129L21.2435 18.6103M14.5478 21.3465L15.313 21.9109H16.0783L16.2696 21.3465V19.8416H15.313L14.1652 20.4059M21.7217 22.6634L19.3304 23.4158H14.5478L9.76522 21.9109L9 21.1584L9.38261 20.2178L10.913 19.2772L13.5913 18.1485H14.9304M21.7217 22.6634L23.5391 24.1683L24.687 23.0396L23.5391 22.0915M21.7217 22.6634L23.5391 22.0915M23.5391 22.0915L24.113 21.9109H26.6L29.6609 24.1683H31V22.2871L29.8522 20.7822L31 18.7129V16.8317H30.0435L26.6 19.8416H25.2609L23.6348 19.2772M14.9304 18.1485H17.8L21.2435 18.6103M14.9304 18.1485L18.9478 15.1386L21.2435 18.6103M17.9913 24.1683L15.5043 27.3663L15.1217 28.6832V30M16.2696 28.6832H21.7217M16.8435 27.1782H21.0522M17.9913 25.6733H19.9043M20.0957 24.1683L22.5826 27.3663L22.9652 28.6832V30M21.2435 16.6436L23.3478 12.8812V11M17.0348 15.3267L15.313 12.8812V11M20.287 15.1386H21.0522M17.0348 13.6337H21.8174M16.2696 12.1287H22.5826M11.6783 20.2178V20.5941H12.0609V20.2178H11.6783Z" stroke="black" stroke-opacity="0.5" stroke-width="0.9"/>
</g>
<rect x="0.5" y="0.5" width="248" height="146" rx="6.5" stroke="#E8E8E8"/>
<defs>
<clipPath id="clip0_633_465">
<rect width="249" height="147" rx="7" fill="white"/>
</clipPath>
<clipPath id="clip1_633_465">
<rect width="20" height="20" fill="white" transform="translate(216 57)"/>
</clipPath>
</defs>
</svg>
