<svg width="24" height="19" viewBox="0 0 24 19" fill="none" xmlns="http://www.w3.org/2000/svg">
<path d="M14.0087 7.71287L16.113 6.0198L16.8783 6.9604L15.6348 8.27723M14.0087 7.71287L15.6348 8.27723M14.0087 7.71287L13.2435 7.61026M6.54783 10.3465L7.31304 10.9109H8.07826L8.26956 10.3465V8.84158H7.31304L6.16522 9.40594M13.7217 11.6634L11.3304 12.4158H6.54783L1.76522 10.9109L1 10.1584L1.38261 9.21782L2.91304 8.27723L5.5913 7.14851H6.93043M13.7217 11.6634L15.5391 13.1683L16.687 12.0396L15.5391 11.0915M13.7217 11.6634L15.5391 11.0915M15.5391 11.0915L16.113 10.9109H18.6L21.6609 13.1683H23V11.2871L21.8522 9.78218L23 7.71287V5.83168H22.0435L18.6 8.84158H17.2609L15.6348 8.27723M6.93043 7.14851H9.8L13.2435 7.61026M6.93043 7.14851L10.9478 4.13861L13.2435 7.61026M9.9913 13.1683L7.50435 16.3663L7.12174 17.6832V19M8.26956 17.6832H13.7217M8.84348 16.1782H13.0522M9.9913 14.6733H11.9043M12.0957 13.1683L14.5826 16.3663L14.9652 17.6832V19M13.2435 5.64356L15.3478 1.88119V0M9.03478 4.32673L7.31304 1.88119V0M12.287 4.13861H13.0522M9.03478 2.63366H13.8174M8.26956 1.12871H14.5826M3.67826 9.21782V9.59406H4.06087V9.21782H3.67826Z" stroke="black"/>
</svg>
