<svg width="60" height="50" viewBox="0 0 60 50" fill="none" xmlns="http://www.w3.org/2000/svg">
<path d="M43.1733 27.5H47.1733L56.1733 32.5H58.6733V29V24M43.1733 27.5L40.7761 28.3989L35.1733 30.5M43.1733 27.5L35.1733 30.5M43.1733 27.5L46.6733 31V35H43.1733H40.6733L35.1733 30.5M58.6733 24V19V15.5H56.1733L47.1733 22H43.6733H43.1733M58.6733 24V33M35.1733 19L40.6733 14.5H43.1733H46.6733V18.5L43.1733 22M35.1733 19L43.1733 22M35.1733 19L33.1733 18.7272L29.1733 18L26.1733 17.5L16.6733 17.5L13.1733 18L6.17334 20.5L2.17334 23L1.17334 25.5L3.17334 27.5L7.17334 28.78L15.6733 31.5H28.1733L35.1733 30.5M15.6733 26L17.6733 27.5H19.6733L20.1733 26V22H17.6733L14.6733 23.5M23.1733 34L16.6733 42.5L15.6733 46V49.5M18.6733 46H32.9233M20.1733 42H31.1733M23.1733 38H28.1733M28.6733 34L35.1733 42.5L36.1733 46V49.5M23.1733 15.5L16.6733 7L15.6733 3.5V0M18.6733 3.5H32.9233M20.1733 7.5H31.1733M23.1733 11.5H28.1733M28.6733 15.5L35.1733 7L36.1733 3.5V0M55.6733 16.5V32.2222M8.17334 23V24H9.17334V23H8.17334Z" stroke="black" stroke-width="2"/>
</svg>
