<svg width="54" height="45" viewBox="0 0 54 45" fill="none" xmlns="http://www.w3.org/2000/svg">
<path d="M31.7478 18.2673L36.7217 14.2574L38.5304 16.4851L35.5913 19.604M31.7478 18.2673L35.5913 19.604M31.7478 18.2673L29.9391 18.0243M14.113 24.5049L15.9217 25.8416H17.7304L18.1826 24.5049V20.9406H15.9217L13.2087 22.2772M31.0696 27.6238L25.4174 29.4059H14.113L2.8087 25.8416L1 24.0594L1.90435 21.8317L5.52174 19.604L11.8522 16.9307H15.0174M31.0696 27.6238L35.3652 31.1881L38.0783 28.5149L35.3652 26.2693M31.0696 27.6238L35.3652 26.2693M35.3652 26.2693L36.7217 25.8416H42.6L49.8348 31.1881H53V26.7327L50.287 23.1683L53 18.2673V13.8119H50.7391L42.6 20.9406H39.4348L35.5913 19.604M15.0174 16.9307H21.8L29.9391 18.0243M15.0174 16.9307L24.513 9.80198L29.9391 18.0243M22.2522 31.1881L16.3739 38.7624L15.4696 41.8812V45M18.1826 41.8812H31.0696M19.5391 38.3168H29.487M22.2522 34.7525H26.7739M27.2261 31.1881L33.1043 38.7624L34.0087 41.8812V45M29.9391 13.3663L34.913 4.45545V0M19.9913 10.2475L15.9217 4.45545V0M27.6783 9.80198H29.487M19.9913 6.23762H31.2957M18.1826 2.67327H33.1043M7.33043 21.8317C7.08619 22.0796 7.08619 22.4749 7.33043 22.7228C7.57831 22.9743 8.23478 22.7228 8.23478 22.7228V21.8317C8.23478 21.8317 7.57831 21.5801 7.33043 21.8317Z" stroke="black" stroke-width="1.7"/>
</svg>
