<svg width="79" height="79" viewBox="0 0 79 79" fill="none" xmlns="http://www.w3.org/2000/svg">
<rect width="79" height="79" rx="14" fill="#C9E6FF"/>
<path d="M45 35.5L50.5 31L52.5 33.5L49.25 37M45 35.5L49.25 37M45 35.5L43 35.2273M25.5 42.5L27.5 44H29.5L30 42.5V38.5H27.5L24.5 40M44.25 46L38 48H25.5L13 44L11 42L12 39.5L16 37L23 34H26.5M44.25 46L49 50L52 47L49 44.48M44.25 46L49 44.48M49 44.48L50.5 44H57L65 50H68.5V45L65.5 41L68.5 35.5V30.5H66L57 38.5H53.5L49.25 37M26.5 34H34L43 35.2273M26.5 34L37 26L43 35.2273M34.5 50L28 58.5L27 62V65.5M30 62H44.25M31.5 58H42.5M34.5 54H39.5M40 50L46.5 58.5L47.5 62V65.5M43 30L48.5 20V15M32 26.5L27.5 20V15M40.5 26H42.5M32 22H44.5M30 18H46.5M18 39.5V40.5H19V39.5H18Z" stroke="black" stroke-width="2"/>
</svg>
