<svg width="79" height="79" viewBox="0 0 79 79" fill="none" xmlns="http://www.w3.org/2000/svg">
<rect width="79" height="79" rx="14" fill="#C9E6FF"/>
<path d="M53 42.5H57L66 47.5H68.5V44V39M53 42.5L50.6028 43.3989L45 45.5M53 42.5L45 45.5M53 42.5L56.5 46V50H53H50.5L45 45.5M68.5 39V34V30.5H66L57 37H53.5H53M68.5 39V48M45 34L50.5 29.5H53H56.5V33.5L53 37M45 34L53 37M45 34L43 33.7272L39 33L36 32.5L26.5 32.5L23 33L16 35.5L12 38L11 40.5L13 42.5L17 43.78L25.5 46.5H38L45 45.5M25.5 41L27.5 42.5H29.5L30 41V37H27.5L24.5 38.5M33 49L26.5 57.5L25.5 61V64.5M28.5 61H42.75M30 57H41M33 53H38M38.5 49L45 57.5L46 61V64.5M33 30.5L26.5 22L25.5 18.5V15M28.5 18.5H42.75M30 22.5H41M33 26.5H38M38.5 30.5L45 22L46 18.5V15M64.5 31.5V47.2222M18 38V39H19V38H18Z" stroke="black" stroke-width="2"/>
</svg>
