<svg width="61" height="50" viewBox="0 0 61 50" fill="none" xmlns="http://www.w3.org/2000/svg">
<path d="M43.4667 27.5H47.4667L56.4667 32.5H58.9667V29V24M43.4667 27.5L41.0695 28.3989L35.4667 30.5M43.4667 27.5L35.4667 30.5M43.4667 27.5L46.9667 31V35H43.4667H40.9667L35.4667 30.5M58.9667 24V19V15.5H56.4667L47.4667 22H43.9667H43.4667M58.9667 24V33M35.4667 19L40.9667 14.5H43.4667H46.9667V18.5L43.4667 22M35.4667 19L43.4667 22M35.4667 19L33.4667 18.7272L29.4667 18L26.4667 17.5L16.9667 17.5L13.4667 18L6.46674 20.5L2.46674 23L1.46674 25.5L3.46674 27.5L7.46674 28.78L15.9667 31.5H28.4667L35.4667 30.5M15.9667 26L17.9667 27.5H19.9667L20.4667 26V22H17.9667L14.9667 23.5M23.4667 34L16.9667 42.5L15.9667 46V49.5M18.9667 46H33.2167M20.4667 42H31.4667M23.4667 38H28.4667M28.9667 34L35.4667 42.5L36.4667 46V49.5M23.4667 15.5L16.9667 7L15.9667 3.5V0M18.9667 3.5H33.2167M20.4667 7.5H31.4667M23.4667 11.5H28.4667M28.9667 15.5L35.4667 7L36.4667 3.5V0M55.9667 16.5V32.2222M8.46674 23V24H9.46674V23H8.46674Z" stroke="black" stroke-width="2.5"/>
</svg>
