<svg width="54" height="53" viewBox="0 0 54 53" fill="none" xmlns="http://www.w3.org/2000/svg">
<g opacity="0.7">
<path d="M53.3536 31.8536C53.5488 31.6583 53.5488 31.3417 53.3536 31.1464L50.1716 27.9645C49.9763 27.7692 49.6597 27.7692 49.4645 27.9645C49.2692 28.1597 49.2692 28.4763 49.4645 28.6716L52.2929 31.5L49.4645 34.3284C49.2692 34.5237 49.2692 34.8403 49.4645 35.0355C49.6597 35.2308 49.9763 35.2308 50.1716 35.0355L53.3536 31.8536ZM22 31.5H21.5V32H22V31.5ZM22.3536 0.146446C22.1583 -0.0488148 21.8417 -0.0488148 21.6464 0.146446L18.4645 3.32843C18.2692 3.52369 18.2692 3.84027 18.4645 4.03553C18.6597 4.2308 18.9763 4.2308 19.1716 4.03553L22 1.20711L24.8284 4.03553C25.0237 4.2308 25.3403 4.2308 25.5355 4.03553C25.7308 3.84027 25.7308 3.52369 25.5355 3.32843L22.3536 0.146446ZM53 31.5V31H22V31.5V32H53V31.5ZM22 31.5H22.5V0.5H22H21.5V31.5H22Z" fill="black"/>
<path d="M24.212 38.728V45.056C24.212 45.4947 24.2447 45.8773 24.31 46.204C24.3847 46.5307 24.5013 46.806 24.66 47.03C24.8187 47.2447 25.0287 47.408 25.29 47.52C25.5607 47.6227 25.8873 47.674 26.27 47.674C27.0353 47.674 27.5673 47.4593 27.866 47.03C28.174 46.5913 28.328 45.9333 28.328 45.056V38.728H29.448V44.832C29.448 45.4853 29.392 46.0547 29.28 46.54C29.168 47.016 28.986 47.4127 28.734 47.73C28.4913 48.0473 28.1647 48.2853 27.754 48.444C27.3527 48.5933 26.858 48.668 26.27 48.668C25.682 48.668 25.1827 48.5933 24.772 48.444C24.3707 48.2853 24.044 48.0473 23.792 47.73C23.5493 47.4127 23.372 47.016 23.26 46.54C23.148 46.0547 23.092 45.4853 23.092 44.832V38.728H24.212ZM31.2446 48.5V47.52H33.6806V39.554H33.5966L31.5246 41.472L30.8946 40.786L33.1066 38.728H34.8006V47.52H37.0406V48.5H31.2446Z" fill="black"/>
<path d="M2.212 22.728V29.056C2.212 29.4947 2.24467 29.8773 2.31 30.204C2.38467 30.5307 2.50133 30.806 2.66 31.03C2.81867 31.2447 3.02867 31.408 3.29 31.52C3.56067 31.6227 3.88733 31.674 4.27 31.674C5.03533 31.674 5.56733 31.4593 5.866 31.03C6.174 30.5913 6.328 29.9333 6.328 29.056V22.728H7.448V28.832C7.448 29.4853 7.392 30.0547 7.28 30.54C7.168 31.016 6.986 31.4127 6.734 31.73C6.49133 32.0473 6.16467 32.2853 5.754 32.444C5.35267 32.5933 4.858 32.668 4.27 32.668C3.682 32.668 3.18267 32.5933 2.772 32.444C2.37067 32.2853 2.044 32.0473 1.792 31.73C1.54933 31.4127 1.372 31.016 1.26 30.54C1.148 30.0547 1.092 29.4853 1.092 28.832V22.728H2.212ZM14.8726 32.5H9.06259V31.338L12.0306 28.258C12.5066 27.7727 12.8473 27.3247 13.0526 26.914C13.2673 26.494 13.3746 26.0787 13.3746 25.668V25.304C13.3746 24.1373 12.8659 23.554 11.8486 23.554C11.3446 23.554 10.9386 23.6847 10.6306 23.946C10.3319 24.2073 10.1219 24.576 10.0006 25.052L9.02059 24.66C9.11393 24.3613 9.24459 24.086 9.41259 23.834C9.58059 23.5727 9.78126 23.3487 10.0146 23.162C10.2573 22.9753 10.5326 22.8307 10.8406 22.728C11.1486 22.616 11.4939 22.56 11.8766 22.56C12.7913 22.56 13.4633 22.798 13.8926 23.274C14.3313 23.7407 14.5506 24.4313 14.5506 25.346C14.5506 25.6633 14.5226 25.962 14.4666 26.242C14.4106 26.5127 14.3126 26.788 14.1726 27.068C14.0326 27.3387 13.8413 27.628 13.5986 27.936C13.3653 28.2347 13.0666 28.5753 12.7026 28.958L10.2666 31.52H14.8726V32.5Z" fill="black"/>
</g>
</svg>
