<svg width="54" height="53" viewBox="0 0 54 53" fill="none" xmlns="http://www.w3.org/2000/svg">
<g opacity="0.7">
<path d="M53.3536 31.8536C53.5488 31.6583 53.5488 31.3417 53.3536 31.1464L50.1716 27.9645C49.9763 27.7692 49.6597 27.7692 49.4645 27.9645C49.2692 28.1597 49.2692 28.4763 49.4645 28.6716L52.2929 31.5L49.4645 34.3284C49.2692 34.5237 49.2692 34.8403 49.4645 35.0355C49.6597 35.2308 49.9763 35.2308 50.1716 35.0355L53.3536 31.8536ZM22 31.5H21.5V32H22V31.5ZM22.3536 0.146446C22.1583 -0.0488148 21.8417 -0.0488148 21.6464 0.146446L18.4645 3.32843C18.2692 3.52369 18.2692 3.84027 18.4645 4.03553C18.6597 4.2308 18.9763 4.2308 19.1716 4.03553L22 1.20711L24.8284 4.03553C25.0237 4.2308 25.3403 4.2308 25.5355 4.03553C25.7308 3.84027 25.7308 3.52369 25.5355 3.32843L22.3536 0.146446ZM53 31.5V31H22V31.5V32H53V31.5ZM22 31.5H22.5V0.5H22H21.5V31.5H22Z" fill="black"/>
<path d="M31.212 38.728V45.056C31.212 45.4947 31.2447 45.8773 31.31 46.204C31.3847 46.5307 31.5013 46.806 31.66 47.03C31.8187 47.2447 32.0287 47.408 32.29 47.52C32.5607 47.6227 32.8873 47.674 33.27 47.674C34.0353 47.674 34.5673 47.4593 34.866 47.03C35.174 46.5913 35.328 45.9333 35.328 45.056V38.728H36.448V44.832C36.448 45.4853 36.392 46.0547 36.28 46.54C36.168 47.016 35.986 47.4127 35.734 47.73C35.4913 48.0473 35.1647 48.2853 34.754 48.444C34.3527 48.5933 33.858 48.668 33.27 48.668C32.682 48.668 32.1827 48.5933 31.772 48.444C31.3707 48.2853 31.044 48.0473 30.792 47.73C30.5493 47.4127 30.372 47.016 30.26 46.54C30.148 46.0547 30.092 45.4853 30.092 44.832V38.728H31.212ZM38.2446 48.5V47.52H40.6806V39.554H40.5966L38.5246 41.472L37.8946 40.786L40.1066 38.728H41.8006V47.52H44.0406V48.5H38.2446Z" fill="black"/>
<path d="M2.212 13.728V20.056C2.212 20.4947 2.24467 20.8773 2.31 21.204C2.38467 21.5307 2.50133 21.806 2.66 22.03C2.81867 22.2447 3.02867 22.408 3.29 22.52C3.56067 22.6227 3.88733 22.674 4.27 22.674C5.03533 22.674 5.56733 22.4593 5.866 22.03C6.174 21.5913 6.328 20.9333 6.328 20.056V13.728H7.448V19.832C7.448 20.4853 7.392 21.0547 7.28 21.54C7.168 22.016 6.986 22.4127 6.734 22.73C6.49133 23.0473 6.16467 23.2853 5.754 23.444C5.35267 23.5933 4.858 23.668 4.27 23.668C3.682 23.668 3.18267 23.5933 2.772 23.444C2.37067 23.2853 2.044 23.0473 1.792 22.73C1.54933 22.4127 1.372 22.016 1.26 21.54C1.148 21.0547 1.092 20.4853 1.092 19.832V13.728H2.212ZM14.8726 23.5H9.06259V22.338L12.0306 19.258C12.5066 18.7727 12.8473 18.3247 13.0526 17.914C13.2673 17.494 13.3746 17.0787 13.3746 16.668V16.304C13.3746 15.1373 12.8659 14.554 11.8486 14.554C11.3446 14.554 10.9386 14.6847 10.6306 14.946C10.3319 15.2073 10.1219 15.576 10.0006 16.052L9.02059 15.66C9.11393 15.3613 9.24459 15.086 9.41259 14.834C9.58059 14.5727 9.78126 14.3487 10.0146 14.162C10.2573 13.9753 10.5326 13.8307 10.8406 13.728C11.1486 13.616 11.4939 13.56 11.8766 13.56C12.7913 13.56 13.4633 13.798 13.8926 14.274C14.3313 14.7407 14.5506 15.4313 14.5506 16.346C14.5506 16.6633 14.5226 16.962 14.4666 17.242C14.4106 17.5127 14.3126 17.788 14.1726 18.068C14.0326 18.3387 13.8413 18.628 13.5986 18.936C13.3653 19.2347 13.0666 19.5753 12.7026 19.958L10.2666 22.52H14.8726V23.5Z" fill="black"/>
</g>
</svg>
