<svg width="101" height="96" viewBox="0 0 101 96" fill="none" xmlns="http://www.w3.org/2000/svg">
<path d="M34 66.5V68H32.5V66.5H34ZM100.061 65.4393C100.646 66.0251 100.646 66.9749 100.061 67.5607L90.5147 77.1066C89.9289 77.6924 88.9792 77.6924 88.3934 77.1066C87.8076 76.5208 87.8076 75.5711 88.3934 74.9853L96.8787 66.5L88.3934 58.0147C87.8076 57.4289 87.8076 56.4792 88.3934 55.8934C88.9792 55.3076 89.9289 55.3076 90.5147 55.8934L100.061 65.4393ZM32.9393 0.439338C33.5251 -0.146449 34.4749 -0.146449 35.0607 0.439338L44.6066 9.98528C45.1924 10.5711 45.1924 11.5208 44.6066 12.1066C44.0208 12.6924 43.0711 12.6924 42.4853 12.1066L34 3.62132L25.5147 12.1066C24.9289 12.6924 23.9792 12.6924 23.3934 12.1066C22.8076 11.5208 22.8076 10.5711 23.3934 9.98528L32.9393 0.439338ZM34 66.5V65H99V66.5V68H34V66.5ZM34 66.5H32.5V1.5H34H35.5V66.5H34Z" fill="black"/>
<path d="M44.3068 76.4545H46.0682V86.0852C46.0682 87.0795 45.8338 87.9673 45.3651 88.7486C44.901 89.5251 44.2453 90.1383 43.3977 90.5881C42.5502 91.0331 41.5559 91.2557 40.4148 91.2557C39.2737 91.2557 38.2794 91.0331 37.4318 90.5881C36.5843 90.1383 35.9261 89.5251 35.4574 88.7486C34.9934 87.9673 34.7614 87.0795 34.7614 86.0852V76.4545H36.5227V85.9432C36.5227 86.6534 36.679 87.2855 36.9915 87.8395C37.304 88.3887 37.7491 88.822 38.3267 89.1392C38.9091 89.4517 39.6051 89.608 40.4148 89.608C41.2244 89.608 41.9205 89.4517 42.5028 89.1392C43.0852 88.822 43.5303 88.3887 43.8381 87.8395C44.1506 87.2855 44.3068 86.6534 44.3068 85.9432V76.4545ZM54.4435 76.4545V91H52.6822V78.3011H52.5969L49.0458 80.6591V78.8693L52.6822 76.4545H54.4435Z" fill="black"/>
<path d="M11.3068 52.4545H13.0682V62.0852C13.0682 63.0795 12.8338 63.9673 12.3651 64.7486C11.901 65.5251 11.2453 66.1383 10.3977 66.5881C9.55019 67.0331 8.55587 67.2557 7.41477 67.2557C6.27367 67.2557 5.27936 67.0331 4.43182 66.5881C3.58428 66.1383 2.92614 65.5251 2.45739 64.7486C1.99337 63.9673 1.76136 63.0795 1.76136 62.0852V52.4545H3.52273V61.9432C3.52273 62.6534 3.67898 63.2855 3.99148 63.8395C4.30398 64.3887 4.74905 64.822 5.3267 65.1392C5.90909 65.4517 6.60511 65.608 7.41477 65.608C8.22443 65.608 8.92045 65.4517 9.50284 65.1392C10.0852 64.822 10.5303 64.3887 10.8381 63.8395C11.1506 63.2855 11.3068 62.6534 11.3068 61.9432V52.4545ZM16.3299 67V65.7216L21.131 60.4659C21.6945 59.8504 22.1585 59.3153 22.5231 58.8608C22.8877 58.4015 23.1576 57.9706 23.3327 57.5682C23.5127 57.161 23.6026 56.7348 23.6026 56.2898C23.6026 55.7784 23.4795 55.3357 23.2333 54.9616C22.9918 54.5876 22.6604 54.2988 22.239 54.0952C21.8176 53.8916 21.3441 53.7898 20.8185 53.7898C20.2598 53.7898 19.7721 53.9058 19.3555 54.1378C18.9435 54.3651 18.6239 54.6847 18.3967 55.0966C18.1741 55.5085 18.0629 55.9915 18.0629 56.5455H16.3867C16.3867 55.6932 16.5832 54.9451 16.9762 54.3011C17.3692 53.6572 17.9042 53.1553 18.5813 52.7955C19.2631 52.4356 20.0278 52.2557 20.8754 52.2557C21.7276 52.2557 22.4828 52.4356 23.141 52.7955C23.7991 53.1553 24.3152 53.6406 24.6893 54.2514C25.0633 54.8622 25.2504 55.5417 25.2504 56.2898C25.2504 56.8248 25.1533 57.348 24.9592 57.8594C24.7698 58.366 24.4383 58.9318 23.9648 59.5568C23.4961 60.1771 22.8451 60.9347 22.0117 61.8295L18.7447 65.3239V65.4375H25.506V67H16.3299Z" fill="black"/>
</svg>
