<svg width="204" height="204" viewBox="0 0 204 204" fill="none" xmlns="http://www.w3.org/2000/svg">
<path d="M102 203C157.781 203 203 157.781 203 102C203 46.2193 157.781 1 102 1C46.2193 1 1 46.2193 1 102C1 157.781 46.2193 203 102 203Z" fill="#E0EFF2" stroke="#2D3641" stroke-miterlimit="11.34" stroke-linecap="round"/>
<path fill-rule="evenodd" clip-rule="evenodd" d="M171.275 31.5597C171.929 31.7641 173.217 32.1525 173.892 32.3978C174.546 32.6431 174.546 32.7658 174.934 33.1541C175.323 33.5425 176.079 34.2171 176.508 34.6872C176.937 35.1574 177.06 35.4231 177.06 35.5253C177.06 35.6275 176.958 35.5866 176.897 35.6071C176.835 35.6275 176.835 35.7502 176.345 35.6684C175.854 35.5867 174.873 35.3618 174.055 35.2392C173.238 35.137 172.583 35.1369 172.216 35.1165C171.827 35.1165 171.725 35.0552 171.561 35.2392C171.398 35.4436 171.173 35.8728 170.969 36.1386C170.744 36.4043 170.539 36.5269 170.437 36.6291C170.335 36.7314 170.335 36.854 169.783 36.6291C169.231 36.4247 168.148 35.9137 167.453 35.3822C166.758 34.8303 166.431 34.258 166.737 33.563C167.064 32.868 168.046 32.0299 168.802 31.6415C169.558 31.2531 170.11 31.294 170.376 31.3144C170.567 31.3281 170.873 31.403 171.296 31.5393L171.275 31.5597Z" fill="#4F5153" stroke="#2D3641" stroke-width="0.37" stroke-miterlimit="11.34" stroke-linecap="round"/>
<path fill-rule="evenodd" clip-rule="evenodd" d="M140.879 10.9549C141.431 10.9549 142.494 10.9549 143.189 10.8936C143.884 10.8322 144.17 10.7096 144.477 10.7096C144.783 10.7096 145.07 10.8322 145.417 10.8936C145.765 10.9549 146.153 10.9549 146.296 11.0775C146.439 11.2002 146.337 11.4455 146.296 11.7521C146.255 12.0587 146.255 12.4062 146.194 12.5902C146.153 12.7742 146.051 12.7741 145.949 13.3056C145.846 13.8575 145.744 14.9205 145.07 15.4111C144.395 15.8812 143.107 15.7586 142.412 15.7586C141.717 15.7586 141.615 15.8812 141.39 15.9425C141.145 16.0039 140.757 16.0039 140.266 16.1265C139.775 16.2491 139.183 16.4945 139.121 16.2492C139.06 16.0039 139.551 15.2884 139.857 14.3277C140.143 13.3669 140.246 12.1814 140.307 11.5681C140.348 11.1593 140.545 10.9549 140.9 10.9549H140.879Z" fill="#4F5153" stroke="#2D3641" stroke-width="0.37" stroke-miterlimit="11.34" stroke-linecap="round"/>
<path fill-rule="evenodd" clip-rule="evenodd" d="M199.382 113.611C199.239 112.997 198.953 111.751 198.626 111.117C198.319 110.483 197.992 110.442 197.869 110.217C197.747 109.993 197.787 109.563 197.747 109.338C197.706 109.114 197.603 109.093 197.603 109.052C197.603 109.011 197.726 108.909 197.808 108.643C197.89 108.378 197.951 107.948 198.094 107.581C198.237 107.213 198.482 106.906 198.523 106.702C198.544 106.477 198.339 106.354 198.074 106.313C197.808 106.293 197.481 106.354 197.195 106.374C196.929 106.395 196.704 106.374 196.5 106.906C196.275 107.437 196.05 108.5 195.989 109.093C195.927 109.686 196.009 109.809 195.825 110.115C195.621 110.422 195.13 110.912 194.68 111.628C194.231 112.343 193.801 113.284 193.638 113.795C193.474 114.326 193.577 114.428 193.638 114.837C193.699 115.246 193.74 115.9 194.251 116.595C194.762 117.311 195.743 118.067 196.479 118.312C197.195 118.557 197.665 118.292 197.951 118.149C198.237 118.006 198.339 118.026 198.401 117.985C198.462 117.944 198.482 117.842 198.646 117.208C198.83 116.575 199.177 115.409 199.341 114.817C199.525 114.224 199.525 114.224 199.382 113.611Z" fill="#4F5153" stroke="#2D3641" stroke-width="0.37" stroke-miterlimit="11.34" stroke-linecap="round"/>
<path fill-rule="evenodd" clip-rule="evenodd" d="M95.929 1.26578C95.6837 1.47019 95.1931 1.87901 94.355 2.32871C93.517 2.77842 92.3109 3.28945 91.5546 3.65739C90.7983 4.02534 90.4917 4.27063 90.2055 4.39328C89.9397 4.53637 89.6945 4.55681 89.2039 4.67945C88.7133 4.8021 87.9569 4.98608 87.4459 5.14961C86.9349 5.31314 86.6487 5.45622 86.5261 5.47666C86.4034 5.4971 86.4443 5.39491 86.5669 5.37446C86.6896 5.37446 86.894 5.43579 87.0575 5.43579C87.221 5.43579 87.3642 5.37445 87.6503 5.53798C87.9365 5.70151 88.3658 6.06945 88.6315 6.27387C88.8973 6.47828 88.9995 6.51916 89.0199 6.58049C89.0404 6.66225 89.0199 6.74402 89.0403 6.82579C89.0608 6.90755 89.1834 6.92799 89.1016 7.29593C89.0199 7.68431 88.7542 8.39975 88.6929 8.7677C88.6315 9.13564 88.7133 9.17652 89.1834 8.82902C89.6536 8.48152 90.4712 7.72519 91.3706 7.29593C92.2701 6.86666 93.2307 6.72357 94.0688 6.7849C94.9069 6.84622 95.602 7.09152 95.8881 6.96888C96.1539 6.84623 96.0108 6.33519 95.9699 5.27225C95.9495 4.22975 96.0517 2.65578 96.0926 1.85857C96.1334 1.3271 96.0721 1.1295 95.9086 1.26578H95.929Z" fill="#4F5153" stroke="#2D3641" stroke-width="0.37" stroke-miterlimit="11.34" stroke-linecap="round"/>
<path fill-rule="evenodd" clip-rule="evenodd" d="M12.0792 118.108C11.793 117.965 11.2411 117.658 10.5052 117.024C9.76932 116.411 8.86987 115.471 8.2362 114.898C7.62296 114.326 7.27549 114.122 7.05063 113.917C6.82578 113.713 6.70314 113.508 6.41696 113.079C6.13079 112.65 5.66064 112.037 5.33358 111.607C4.98608 111.199 4.76123 110.974 4.69991 110.872C4.63858 110.769 4.74077 110.769 4.80209 110.872C4.86341 110.974 4.88387 111.199 4.94519 111.342C5.00652 111.505 5.12916 111.607 5.06783 111.934C5.02695 112.262 4.82253 112.813 4.74077 113.12C4.63856 113.447 4.65899 113.549 4.59766 113.611C4.53634 113.672 4.43412 113.672 4.39324 113.733C4.35236 113.795 4.35238 113.897 3.96399 113.958C3.57561 114.02 2.8193 114.04 2.45136 114.122C2.08342 114.183 2.08342 114.306 2.57401 114.592C3.06459 114.878 4.06621 115.389 4.80209 116.064C5.53797 116.738 6.0081 117.576 6.2534 118.373C6.49869 119.171 6.53962 119.927 6.74403 120.131C6.96888 120.336 7.3777 120.009 8.33844 119.6C9.29918 119.191 10.7913 118.721 11.5477 118.476C12.304 118.23 12.304 118.23 12.0178 118.087L12.0792 118.108Z" fill="#4F5153" stroke="#2D3641" stroke-width="0.37" stroke-miterlimit="11.34" stroke-linecap="round"/>
<path fill-rule="evenodd" clip-rule="evenodd" d="M172.951 74.4249C172.89 73.8117 172.788 72.5443 172.665 71.9311C172.543 71.3179 172.461 71.3383 172.175 71.0317C171.909 70.7251 171.439 70.1119 171.091 69.7644C170.744 69.4169 170.519 69.376 170.437 69.4169C170.335 69.4373 170.376 69.5395 170.335 69.6008C170.294 69.6621 170.192 69.6826 170.171 70.1732C170.151 70.6638 170.171 71.6245 170.131 72.4421C170.069 73.2598 169.947 73.9343 169.885 74.3227C169.824 74.7111 169.865 74.8133 169.64 75.0177C169.435 75.2426 169.006 75.5696 168.72 75.8558C168.434 76.142 168.291 76.4077 168.168 76.5304C168.045 76.6735 167.943 76.6939 168.045 77.2049C168.127 77.716 168.393 78.738 168.741 79.3308C169.088 79.9236 169.558 80.128 170.253 79.617C170.948 79.106 171.868 77.9 172.359 77.021C172.849 76.142 172.931 75.5901 172.951 75.3039C172.979 75.1131 172.972 74.8133 172.931 74.4045L172.951 74.4249Z" fill="#4F5153" stroke="#2D3641" stroke-width="0.37" stroke-miterlimit="11.34" stroke-linecap="round"/>
<path fill-rule="evenodd" clip-rule="evenodd" d="M67.7405 177.081C67.2499 177.346 66.2483 177.898 65.7373 178.389C65.2262 178.879 65.2263 179.288 65.0627 179.493C64.8788 179.697 64.5108 179.697 64.3268 179.758C64.1428 179.84 64.1429 179.963 64.102 179.963C64.0611 179.963 63.9793 179.82 63.734 179.758C63.4887 179.697 63.1412 179.677 62.8346 179.554C62.5075 179.431 62.2418 179.145 62.0579 179.145C61.8739 179.145 61.7717 179.411 61.7717 179.758C61.7717 180.106 61.8739 180.515 61.9148 180.862C61.9557 181.21 61.9557 181.475 62.4258 181.68C62.8959 181.884 63.7954 182.027 64.286 182.027C64.7765 182.027 64.8787 181.884 65.1445 182.109C65.4306 182.314 65.8804 182.865 66.514 183.336C67.1477 183.806 67.9654 184.235 68.4151 184.358C68.8648 184.501 68.9466 184.358 69.2736 184.215C69.6007 184.072 70.1322 183.928 70.6841 183.193C71.236 182.457 71.7674 181.067 71.9105 180.106C72.0536 179.145 71.7879 178.593 71.6448 178.246C71.5017 177.898 71.5017 177.755 71.4608 177.694C71.4199 177.612 71.3382 177.612 70.7862 177.489C70.2343 177.367 69.2327 177.081 68.7421 176.938C68.4014 176.842 68.0676 176.89 67.7405 177.081Z" fill="#4F5153" stroke="#2D3641" stroke-width="0.37" stroke-miterlimit="11.34" stroke-linecap="round"/>
<path fill-rule="evenodd" clip-rule="evenodd" d="M73.1369 106.702C73.0347 107.294 72.8303 108.48 72.769 109.236C72.6872 109.993 72.7485 110.34 72.6872 110.647C72.6259 110.974 72.4623 111.28 72.3601 111.648C72.2375 112.016 72.1762 112.446 72.0331 112.589C71.89 112.732 71.7061 112.589 71.4403 112.486C71.1746 112.384 70.868 112.343 70.7249 112.262C70.5818 112.18 70.6022 112.078 70.1321 111.894C69.6619 111.71 68.742 111.444 68.4559 110.626C68.1697 109.809 68.4968 108.439 68.6194 107.683C68.7421 106.926 68.6603 106.804 68.6399 106.538C68.6399 106.272 68.7012 105.843 68.6808 105.291C68.6808 104.739 68.5581 104.065 68.7829 104.044C69.0078 104.024 69.5393 104.657 70.3365 105.128C71.1132 105.598 72.1557 105.884 72.6872 106.027C73.2187 106.17 73.2187 106.17 73.1165 106.763L73.1369 106.702Z" fill="#4F5153" stroke="#2D3641" stroke-width="0.37" stroke-miterlimit="11.34" stroke-linecap="round"/>
<path fill-rule="evenodd" clip-rule="evenodd" d="M3.12579 84.6251C3.90255 84.4615 5.4561 84.1345 6.33507 84.1345C7.21404 84.1345 7.37755 84.4615 7.45931 84.7272C7.54108 84.993 7.54112 85.2178 7.50023 85.3201C7.45935 85.4223 7.35711 85.4223 7.33667 85.5449C7.29579 85.6676 7.29583 85.872 7.25495 85.9742C7.21407 86.0764 7.11183 86.0764 7.03006 86.199C6.9483 86.3217 6.86652 86.5261 6.76432 86.6283C6.68255 86.7305 6.58036 86.7305 6.45771 86.894C6.33506 87.0575 6.15107 87.3846 5.98754 87.6095C5.82401 87.8343 5.64004 87.9365 5.41519 88.2023C5.19034 88.468 4.94505 88.9177 4.59755 89.0199C4.25005 89.1221 3.82081 88.8973 3.59596 88.7542C3.3711 88.5906 3.37109 88.4884 3.33021 88.4271C3.28933 88.3658 3.18715 88.3658 3.16671 88.3249C3.12583 88.2636 3.12581 88.1614 3.08493 88.1001C3.04404 88.0387 2.94183 88.0387 2.81918 87.5072C2.69653 86.9758 2.51256 85.872 2.43079 85.3405C2.37628 84.9725 2.60794 84.7341 3.12579 84.6251Z" fill="#4F5153" stroke="#2D3641" stroke-width="0.37" stroke-miterlimit="11.34" stroke-linecap="round"/>
<path fill-rule="evenodd" clip-rule="evenodd" d="M193.393 73.8526C193.004 74.2818 192.248 75.1404 191.757 75.6718C191.267 76.2033 191.042 76.4282 190.94 76.7552C190.837 77.0823 190.837 77.5115 190.837 77.8386C190.837 78.1657 190.837 78.3701 191.124 78.4723C191.41 78.5745 191.941 78.5745 193.025 78.4723C194.108 78.3701 195.743 78.1452 196.765 77.7773C197.787 77.4093 198.237 76.8779 198.442 76.1215C198.666 75.3857 198.666 74.4045 198.605 73.9343C198.544 73.4437 198.442 73.4437 198.339 73.3415C198.237 73.2393 198.115 73.0349 197.358 73.0145C196.602 73.0145 195.191 73.2189 194.476 73.3211C193.999 73.3892 193.638 73.5664 193.393 73.8526Z" fill="#4F5153" stroke="#2D3641" stroke-width="0.37" stroke-miterlimit="11.34" stroke-linecap="round"/>
<path fill-rule="evenodd" clip-rule="evenodd" d="M40.5128 111.444C39.5316 111.28 37.5897 110.953 36.4859 110.974C35.4025 110.974 35.1777 111.301 35.0755 111.566C34.9733 111.832 34.9733 112.057 35.0346 112.159C35.0959 112.261 35.1981 112.261 35.2594 112.364C35.3207 112.466 35.3208 112.691 35.3617 112.793C35.423 112.895 35.5251 112.895 35.6273 113.018C35.7296 113.14 35.8522 113.345 35.9544 113.447C36.0566 113.549 36.1793 113.549 36.3428 113.713C36.5063 113.876 36.7312 114.203 36.9356 114.408C37.1605 114.612 37.3649 114.735 37.6511 115.001C37.9168 115.266 38.2439 115.696 38.6731 115.798C39.1024 115.9 39.6543 115.675 39.92 115.532C40.1857 115.369 40.1858 115.266 40.2471 115.205C40.3084 115.144 40.4106 115.144 40.472 115.103C40.5333 115.062 40.5333 114.939 40.5741 114.898C40.6355 114.837 40.7377 114.837 40.9012 114.306C41.0647 113.774 41.2691 112.711 41.3918 112.159C41.4599 111.805 41.1738 111.573 40.5333 111.464L40.5128 111.444Z" fill="#4F5153" stroke="#2D3641" stroke-width="0.37" stroke-miterlimit="11.34" stroke-linecap="round"/>
<path fill-rule="evenodd" clip-rule="evenodd" d="M130.536 141.022C129.616 140.818 127.776 140.409 126.754 140.409C125.732 140.409 125.528 140.818 125.426 141.186C125.323 141.533 125.323 141.82 125.385 141.942C125.446 142.065 125.548 142.065 125.589 142.228C125.63 142.392 125.63 142.658 125.691 142.78C125.753 142.903 125.855 142.903 125.957 143.066C126.059 143.21 126.161 143.496 126.264 143.618C126.366 143.741 126.468 143.741 126.632 143.966C126.795 144.191 126.979 144.599 127.204 144.865C127.408 145.131 127.613 145.274 127.879 145.622C128.124 145.969 128.43 146.521 128.839 146.664C129.248 146.787 129.759 146.521 130.004 146.317C130.25 146.112 130.25 145.969 130.311 145.908C130.372 145.826 130.475 145.826 130.515 145.765C130.556 145.703 130.556 145.56 130.618 145.478C130.679 145.397 130.781 145.397 130.924 144.722C131.067 144.027 131.272 142.658 131.374 141.963C131.442 141.499 131.17 141.199 130.556 141.063L130.536 141.022Z" fill="#4F5153" stroke="#2D3641" stroke-width="0.37" stroke-miterlimit="11.34" stroke-linecap="round"/>
<path fill-rule="evenodd" clip-rule="evenodd" d="M124.853 71.5017C123.995 71.2973 122.257 70.9089 121.276 70.9089C120.295 70.9089 120.111 71.2973 120.009 71.6244C119.907 71.9514 119.907 72.2172 119.968 72.3398C120.029 72.4625 120.111 72.4625 120.152 72.6056C120.193 72.7486 120.193 72.9939 120.254 73.137C120.315 73.2597 120.397 73.2597 120.499 73.4028C120.602 73.5459 120.683 73.7911 120.786 73.9342C120.888 74.0773 120.99 74.0569 121.133 74.2613C121.276 74.4657 121.46 74.8541 121.664 75.1198C121.869 75.3856 122.053 75.5082 122.298 75.8353C122.544 76.1623 122.83 76.6938 123.218 76.8164C123.606 76.9391 124.077 76.6733 124.322 76.4894C124.567 76.3054 124.567 76.1623 124.608 76.101C124.669 76.0397 124.751 76.0397 124.792 75.9783C124.833 75.917 124.833 75.7944 124.894 75.7126C124.956 75.6513 125.037 75.6513 125.18 74.9972C125.323 74.3431 125.507 73.0348 125.61 72.3807C125.712 71.7266 125.691 71.7266 124.833 71.5222L124.853 71.5017Z" fill="#4F5153" stroke="#2D3641" stroke-width="0.35" stroke-miterlimit="11.34" stroke-linecap="round"/>
<path fill-rule="evenodd" clip-rule="evenodd" d="M84.2979 63.918C83.4394 63.7136 81.7018 63.3252 80.7207 63.3252C79.7395 63.3252 79.5555 63.7136 79.4533 64.0407C79.3511 64.3677 79.3511 64.6335 79.4125 64.7561C79.4738 64.8788 79.5555 64.8787 79.5964 65.0218C79.6373 65.1649 79.6373 65.4102 79.6986 65.5533C79.7599 65.676 79.8418 65.6759 79.944 65.819C80.0462 65.9621 80.1279 66.2074 80.2301 66.3505C80.3323 66.4936 80.4345 66.4731 80.5776 66.6776C80.7207 66.882 80.9046 67.2704 81.1091 67.5361C81.3135 67.8018 81.4974 67.9245 81.7427 68.2515C81.988 68.5786 82.2742 69.1101 82.6626 69.2327C83.051 69.3554 83.5212 69.0896 83.7665 68.9057C84.0117 68.7217 84.0117 68.5786 84.0526 68.5173C84.1139 68.456 84.1957 68.456 84.2366 68.3946C84.2774 68.3333 84.2775 68.2107 84.3388 68.1289C84.4001 68.0676 84.4819 68.0676 84.6249 67.4134C84.768 66.7593 84.9521 65.4511 85.0543 64.797C85.1565 64.1428 85.136 64.1428 84.2775 63.9384L84.2979 63.918Z" fill="#4F5153" stroke="#2D3641" stroke-width="0.35" stroke-miterlimit="11.34" stroke-linecap="round"/>
<path fill-rule="evenodd" clip-rule="evenodd" d="M12.2222 136.648C11.8134 137.527 10.9957 139.305 10.73 140.348C10.4438 141.39 10.73 141.676 10.9549 141.84C11.2002 142.004 11.4046 142.065 11.5272 142.044C11.6499 142.024 11.6703 141.901 11.7929 141.901C11.9156 141.901 12.12 141.942 12.2426 141.901C12.3653 141.86 12.3857 141.758 12.5288 141.697C12.6719 141.615 12.8968 141.574 13.0399 141.493C13.1829 141.411 13.2034 141.309 13.4078 141.206C13.6122 141.104 13.9801 140.961 14.2459 140.818C14.5116 140.654 14.6751 140.491 15.0022 140.286C15.3293 140.103 15.8403 139.898 16.0447 139.51C16.2491 139.121 16.1878 138.549 16.106 138.263C16.0243 137.977 15.922 137.936 15.8812 137.874C15.8403 137.813 15.8812 137.69 15.8403 137.65C15.7994 137.609 15.6972 137.568 15.6563 137.486C15.6154 137.425 15.6563 137.302 15.1658 137.016C14.6752 136.73 13.694 136.26 13.183 136.014C12.8423 135.851 12.5425 136.062 12.2835 136.648H12.2222Z" fill="#4F5153" stroke="#2D3641" stroke-width="0.37" stroke-miterlimit="11.34" stroke-linecap="round"/>
<path fill-rule="evenodd" clip-rule="evenodd" d="M20.644 60.8928C19.6628 60.7293 17.7209 60.4022 16.6171 60.4227C15.5337 60.4227 15.3088 60.7497 15.2066 61.0155C15.1044 61.2812 15.1044 61.5061 15.1658 61.6083C15.2271 61.7105 15.3293 61.7105 15.3906 61.8127C15.4519 61.9149 15.4519 62.1397 15.4928 62.2419C15.5542 62.3441 15.6563 62.3441 15.7585 62.4668C15.8607 62.5894 15.9834 62.7939 16.0856 62.8961C16.1878 62.9983 16.3104 62.9983 16.474 63.1618C16.6375 63.3253 16.8624 63.6524 17.0668 63.8568C17.2916 64.0612 17.4961 64.1839 17.7822 64.4496C18.048 64.7153 18.375 65.1446 18.8043 65.2468C19.2336 65.349 19.7854 65.1242 20.0512 64.9811C20.3169 64.8176 20.3169 64.7153 20.3782 64.654C20.4396 64.5927 20.5418 64.5927 20.6031 64.5518C20.6645 64.5109 20.6644 64.3883 20.7053 64.3474C20.7666 64.2861 20.8688 64.2861 21.0324 63.7546C21.1959 63.2231 21.4003 62.1602 21.5229 61.6083C21.5911 61.2539 21.3049 61.0223 20.6645 60.9133L20.644 60.8928Z" fill="#4F5153" stroke="#2D3641" stroke-width="0.37" stroke-miterlimit="11.34" stroke-linecap="round"/>
<path fill-rule="evenodd" clip-rule="evenodd" d="M85.7697 21.523C84.8907 21.3391 83.1327 20.9916 82.1311 20.9916C81.1499 20.9916 80.9456 21.3595 80.8434 21.6457C80.7412 21.9523 80.7411 22.1976 80.8025 22.2998C80.8638 22.4225 80.9456 22.4225 81.0069 22.5451C81.0478 22.6677 81.0477 22.913 81.1091 23.0153C81.1704 23.1175 81.2522 23.1379 81.3544 23.2606C81.4566 23.3832 81.5383 23.6285 81.6406 23.7307C81.7428 23.8533 81.845 23.8533 81.9881 24.0373C82.1312 24.2213 82.3356 24.5892 82.54 24.8141C82.7444 25.0594 82.9283 25.1616 83.1736 25.4682C83.4189 25.7748 83.7051 26.245 84.0935 26.3676C84.4819 26.4903 84.9725 26.245 85.2178 26.061C85.4631 25.877 85.463 25.7748 85.5244 25.693C85.5857 25.6317 85.6675 25.6317 85.7288 25.5704C85.7697 25.5091 85.7697 25.3864 85.831 25.3251C85.8923 25.2638 85.9741 25.2638 86.1172 24.671C86.2603 24.0782 86.4647 22.8722 86.5464 22.2794C86.6486 21.6661 86.6486 21.6661 85.7697 21.5026V21.523Z" fill="#4F5153" stroke="#2D3641" stroke-width="0.37" stroke-miterlimit="11.34" stroke-linecap="round"/>
<path fill-rule="evenodd" clip-rule="evenodd" d="M121.01 3.39164C120.418 3.51429 119.252 3.75958 118.496 4.78164C117.76 5.8037 117.454 7.60253 117.658 8.50194C117.862 9.40136 118.537 9.40135 119.13 9.40135C119.723 9.40135 120.213 9.40135 120.601 9.2787C120.99 9.15606 121.276 8.91077 121.542 8.80856C121.787 8.68592 121.991 8.68591 122.38 7.90915C122.768 7.13238 123.361 5.57885 123.606 4.78164C123.852 4.00488 123.749 4.00487 123.668 3.88223C123.565 3.75958 123.463 3.53472 123.136 3.41207C122.789 3.28942 122.196 3.28943 121.91 3.28943C121.624 3.28943 121.603 3.28942 121.031 3.41207L121.01 3.39164Z" fill="#4F5153" stroke="#2D3641" stroke-width="0.37" stroke-miterlimit="11.34" stroke-linecap="round"/>
<path fill-rule="evenodd" clip-rule="evenodd" d="M121.399 78.0225C120.847 78.1247 119.743 78.37 119.028 79.3307C118.333 80.2915 118.046 81.9881 118.23 82.8466C118.414 83.6847 119.068 83.6847 119.62 83.6847C120.172 83.6847 120.642 83.6847 121.01 83.5621C121.378 83.4394 121.664 83.2146 121.889 83.1124C122.135 82.9897 122.319 82.9897 122.666 82.2743C123.034 81.5384 123.586 80.0666 123.831 79.3307C124.077 78.5949 123.974 78.5949 123.893 78.4927C123.79 78.3905 123.709 78.1656 123.382 78.043C123.054 77.9203 122.503 77.9203 122.216 77.9203C121.93 77.9203 121.93 77.9203 121.378 78.0225H121.399Z" fill="#4F5153" stroke="#2D3641" stroke-width="0.35" stroke-miterlimit="11.34" stroke-linecap="round"/>
<path fill-rule="evenodd" clip-rule="evenodd" d="M78.043 68.5991C77.491 68.7013 76.3872 68.9466 75.6718 69.9073C74.9768 70.8681 74.6906 72.5647 74.8746 73.4232C75.0586 74.2613 75.7127 74.2613 76.2646 74.2613C76.8165 74.2613 77.2866 74.2613 77.6546 74.1387C78.0225 74.016 78.3087 73.7912 78.5336 73.689C78.7584 73.5868 78.9628 73.5663 79.3308 72.8509C79.6987 72.115 80.2506 70.6432 80.4959 69.9073C80.7412 69.1715 80.639 69.1715 80.5572 69.0693C80.455 68.9671 80.3733 68.7422 80.0462 68.6196C79.7192 68.4969 79.1672 68.4969 78.8811 68.4969C78.5949 68.4969 78.5949 68.4969 78.043 68.5991Z" fill="#4F5153" stroke="#2D3641" stroke-width="0.35" stroke-miterlimit="11.34" stroke-linecap="round"/>
<path fill-rule="evenodd" clip-rule="evenodd" d="M51.9803 139.407C51.3875 139.51 50.1815 139.735 49.4251 140.675C48.6688 141.615 48.3622 143.271 48.5666 144.109C48.7711 144.927 49.466 144.927 50.0793 144.927C50.6925 144.927 51.1831 144.927 51.5919 144.824C51.9803 144.722 52.2869 144.497 52.5526 144.375C52.8184 144.273 53.0024 144.272 53.4112 143.557C53.7996 142.842 54.4128 141.411 54.6581 140.695C54.9238 139.98 54.8216 139.98 54.7194 139.878C54.6172 139.775 54.515 139.551 54.1675 139.428C53.82 139.305 53.2068 139.305 52.9002 139.305C52.5936 139.305 52.5936 139.305 52.0008 139.407H51.9803Z" fill="#4F5153" stroke="#2D3641" stroke-width="0.37" stroke-miterlimit="11.34" stroke-linecap="round"/>
<path fill-rule="evenodd" clip-rule="evenodd" d="M140.307 165.572C139.714 165.674 138.508 165.899 137.752 166.84C136.995 167.78 136.689 169.436 136.893 170.274C137.098 171.091 137.793 171.091 138.406 171.091C139.019 171.091 139.51 171.091 139.918 170.989C140.307 170.887 140.613 170.662 140.879 170.539C141.145 170.437 141.329 170.437 141.738 169.722C142.126 169.006 142.739 167.575 142.985 166.86C143.25 166.145 143.148 166.145 143.046 166.042C142.944 165.94 142.841 165.715 142.494 165.593C142.146 165.47 141.533 165.47 141.227 165.47C140.92 165.47 140.92 165.47 140.327 165.572H140.307Z" fill="#4F5153" stroke="#2D3641" stroke-width="0.37" stroke-miterlimit="11.34" stroke-linecap="round"/>
<path fill-rule="evenodd" clip-rule="evenodd" d="M158.847 41.5554C158.295 41.5554 157.171 41.5554 155.985 42.1073C154.8 42.6593 153.573 43.7631 153.021 44.315C152.469 44.8669 152.572 44.8669 152.776 44.8669C152.98 44.8669 153.287 44.8669 153.594 44.9487C153.9 45.0304 154.207 45.1531 154.718 45.2348C155.229 45.2962 155.944 45.2962 156.496 45.2962C157.048 45.2962 157.477 45.2961 157.886 45.4392C158.295 45.5823 158.704 45.8481 159.256 45.9912C159.808 46.1342 160.523 46.1343 160.891 46.0729C161.239 46.0116 161.239 45.8685 161.402 45.6641C161.545 45.4597 161.852 45.1735 162.015 44.9078C162.179 44.642 162.179 44.3559 161.709 43.804C161.259 43.2521 160.339 42.414 159.869 42.0051C159.556 41.719 159.215 41.5758 158.847 41.5758V41.5554Z" fill="#4F5153" stroke="#2D3641" stroke-width="0.37" stroke-miterlimit="11.34" stroke-linecap="round"/>
<path fill-rule="evenodd" clip-rule="evenodd" d="M61.0359 19.6628C60.5044 19.6628 59.4414 19.6628 58.3376 20.1943C57.2134 20.7258 56.0687 21.7683 55.5372 22.2793C55.0057 22.8108 55.1079 22.8108 55.2919 22.8108C55.4759 22.8108 55.7824 22.8108 56.0686 22.8721C56.3548 22.9334 56.641 23.0765 57.1316 23.1378C57.6222 23.1992 58.2967 23.1992 58.8282 23.1992C59.3597 23.1992 59.7481 23.1992 60.1365 23.3422C60.5248 23.4853 60.9132 23.7306 61.4447 23.8737C61.9761 23.9964 62.6507 23.9964 62.9777 23.935C63.3048 23.8737 63.3048 23.7511 63.4479 23.5467C63.591 23.3423 63.8772 23.0765 64.0203 22.8312C64.1634 22.5859 64.1633 22.3202 63.7341 21.7887C63.3048 21.2573 62.4463 20.4805 61.9966 20.0921C61.6968 19.8332 61.3766 19.7037 61.0359 19.7037V19.6628Z" fill="#4F5153" stroke="#2D3641" stroke-width="0.35" stroke-miterlimit="11.34" stroke-linecap="round"/>
<path fill-rule="evenodd" clip-rule="evenodd" d="M179.35 152.326H177.04C176.243 152.326 175.629 152.326 175.037 152.388C174.444 152.449 173.83 152.572 173.585 152.633C173.34 152.694 173.442 152.694 173.483 152.756C173.524 152.817 173.524 152.94 173.585 153.062C173.647 153.185 173.749 153.307 174.301 153.594C174.853 153.88 175.854 154.37 176.61 155.209C177.367 156.047 177.857 157.253 178.266 157.845C178.675 158.438 178.961 158.438 179.166 158.5C179.37 158.561 179.472 158.684 180.065 158.622C180.658 158.561 181.762 158.316 182.375 157.907C182.968 157.498 183.07 156.885 183.131 156.415C183.193 155.944 183.193 155.576 182.641 154.922C182.089 154.268 180.985 153.307 180.433 152.817C180.065 152.49 179.711 152.326 179.37 152.326H179.35Z" fill="#4F5153" stroke="#2D3641" stroke-width="0.37" stroke-miterlimit="11.34" stroke-linecap="round"/>
<path fill-rule="evenodd" clip-rule="evenodd" d="M140.838 100.447C140.245 100.569 139.08 100.794 138.344 100.304C137.609 99.8129 137.302 98.5864 137.404 97.8301C137.486 97.0738 137.956 96.7672 138.222 96.6445C138.488 96.5219 138.569 96.6037 139.183 96.6854C139.816 96.7672 140.981 96.8285 141.758 96.8285C142.535 96.8285 142.923 96.7467 143.434 96.5628C143.945 96.3584 144.559 96.0517 145.151 96.3175C145.724 96.5832 146.255 97.4213 146.5 97.9528C146.725 98.4842 146.664 98.7091 146.644 98.8726C146.644 99.0361 146.705 99.0975 146.439 99.445C146.173 99.7925 145.54 100.406 145.192 100.671C144.824 100.937 144.763 100.855 144.599 100.876C144.456 100.876 144.211 100.958 143.986 100.876C143.741 100.794 143.516 100.569 143.087 100.467C142.658 100.365 142.044 100.365 141.738 100.365C141.431 100.365 141.431 100.365 140.838 100.487V100.447Z" fill="#4F5153" stroke="#2D3641" stroke-width="0.37" stroke-miterlimit="11.34" stroke-linecap="round"/>
<path fill-rule="evenodd" clip-rule="evenodd" d="M47.933 84.3183C47.4833 83.9913 46.5634 83.3576 46.359 82.3969C46.1546 81.4361 46.6656 80.1688 47.1562 79.576C47.6468 78.9832 48.1374 79.0649 48.3827 79.1467C48.628 79.2285 48.628 79.3511 49.0164 79.8826C49.3843 80.3936 50.1202 81.3135 50.6516 81.8654C51.1831 82.4173 51.4693 82.6422 51.9394 82.8466C52.3891 83.051 52.982 83.2349 53.2272 83.8686C53.4521 84.5023 53.3294 85.6266 53.1863 86.2398C53.0432 86.8735 52.8593 87.0166 52.7571 87.1392C52.6549 87.2619 52.6754 87.3845 52.287 87.4867C51.919 87.5889 51.1422 87.6707 50.7334 87.6298C50.345 87.6094 50.3246 87.4867 50.2224 87.3845C50.1202 87.2823 49.9157 87.1801 49.8135 86.9348C49.6909 86.6895 49.6705 86.3216 49.4661 85.9332C49.2412 85.5244 48.8324 85.0747 48.628 84.8703C48.4236 84.6454 48.4235 84.6454 47.9738 84.3183H47.933Z" fill="#4F5153" stroke="#2D3641" stroke-width="0.37" stroke-miterlimit="11.34" stroke-linecap="round"/>
<path fill-rule="evenodd" clip-rule="evenodd" d="M28.0846 34.9733C27.2669 35.607 25.6316 36.8948 24.8344 37.6511C24.0168 38.4074 24.0168 38.6119 24.3439 38.7141C24.6709 38.8163 25.325 38.8163 26.899 38.7549C28.473 38.6936 30.9668 38.5914 32.2137 38.387C33.4607 38.1826 33.4606 37.8555 33.4606 37.4876C33.4606 37.1197 33.4606 36.6904 33.0314 36.0976C32.6021 35.5048 31.7231 34.7689 30.9668 34.4418C30.2105 34.1148 29.5564 34.217 29.2293 34.2783C29.0113 34.3192 28.6297 34.5509 28.0846 34.9733Z" fill="#4F5153" stroke="#2D3641" stroke-width="0.37" stroke-miterlimit="11.34" stroke-linecap="round"/>
<path fill-rule="evenodd" clip-rule="evenodd" d="M135.421 58.1332C134.829 58.0719 133.643 57.9697 132.927 57.9288C132.212 57.8675 132.008 57.8675 131.844 57.9901C131.681 58.0923 131.558 58.3172 131.456 58.4194C131.354 58.5216 131.251 58.5216 131.251 58.5829C131.251 58.6443 131.354 58.7465 131.415 58.8487C131.476 58.9509 131.476 59.0531 131.803 59.1757C132.13 59.2779 132.784 59.3801 133.275 59.5437C133.766 59.7072 134.093 59.9116 134.358 60.0342C134.624 60.1364 134.849 60.1365 134.951 60.1978C135.053 60.2591 135.053 60.3613 135.115 60.4022C135.176 60.4431 135.278 60.4431 135.442 60.6066C135.605 60.7702 135.83 61.0972 136.035 61.3016C136.259 61.506 136.464 61.6287 136.627 61.8331C136.791 62.0579 136.893 62.3645 137.016 62.5281C137.118 62.6916 137.241 62.6916 137.281 62.7938C137.322 62.896 137.322 63.1209 137.445 63.2844C137.568 63.4479 137.772 63.5501 137.874 63.6523C137.976 63.7546 137.976 63.8772 138.038 63.9181C138.099 63.959 138.201 63.959 138.365 64.0816C138.528 64.1838 138.753 64.4087 138.958 64.5109C139.162 64.6131 139.387 64.6131 139.489 64.6744C139.591 64.7357 139.591 64.8379 139.816 64.8788C140.041 64.9197 140.47 64.9197 140.695 64.981C140.9 65.0424 140.9 65.1446 141.186 65.1854C141.472 65.2263 142.003 65.2263 142.003 64.9197C142.003 64.6131 141.451 63.959 141.022 62.5076C140.593 61.0563 140.266 58.8078 139.837 57.6835C139.407 56.5592 138.855 56.5593 138.201 56.825C137.547 57.0907 136.791 57.6222 136.403 57.8879C136.144 58.0651 135.817 58.1401 135.421 58.1128V58.1332Z" fill="#4F5153" stroke="#2D3641" stroke-width="0.37" stroke-miterlimit="11.34" stroke-linecap="round"/>
<path fill-rule="evenodd" clip-rule="evenodd" d="M55.8847 48.7098C55.6802 49.323 55.251 50.57 55.0057 51.3059C54.7604 52.0417 54.6991 52.2666 54.7399 52.4914C54.7808 52.6959 54.9444 52.8798 55.0057 53.0229C55.067 53.166 55.0466 53.2887 55.0875 53.2887C55.1488 53.2887 55.2714 53.2273 55.3736 53.1864C55.4758 53.166 55.578 53.1864 55.762 52.8594C55.946 52.5323 56.2322 51.8782 56.4979 51.3876C56.7841 50.9175 57.0498 50.6313 57.2133 50.3655C57.3768 50.0998 57.4382 49.875 57.52 49.7728C57.6018 49.6706 57.6835 49.7114 57.7448 49.6501C57.8061 49.6092 57.8266 49.4866 58.031 49.3639C58.215 49.2413 58.5624 49.0982 58.8077 48.9142C59.053 48.7303 59.2166 48.5463 59.4415 48.4236C59.6663 48.3214 59.9933 48.2805 60.1569 48.2192C60.3204 48.1374 60.3613 48.0353 60.4635 48.0148C60.5657 47.9944 60.7701 48.0557 60.9336 47.9739C61.0972 47.8922 61.2607 47.6878 61.3833 47.606C61.506 47.5242 61.6082 47.5447 61.6695 47.5038C61.7309 47.4629 61.7513 47.3402 61.8944 47.1972C62.0375 47.0541 62.2828 46.8905 62.4463 46.6861C62.5894 46.4817 62.6507 46.2569 62.7325 46.1547C62.8142 46.0525 62.896 46.0933 63.0187 45.8685C63.1209 45.6436 63.2435 45.1735 63.3457 44.9691C63.4479 44.7647 63.5501 44.7851 63.6727 44.4989C63.7954 44.2128 63.9385 43.6404 63.6727 43.5586C63.3866 43.4769 62.6916 43.8653 61.3016 43.9266C59.9116 43.9879 57.8675 43.7017 56.7432 43.8448C55.6394 43.9879 55.4759 44.5603 55.5372 45.337C55.5985 46.1138 55.8438 47.0745 55.9664 47.5651C56.0482 47.8922 56.0209 48.2601 55.8847 48.6689V48.7098Z" fill="#4F5153" stroke="#2D3641" stroke-width="0.37" stroke-miterlimit="11.34" stroke-linecap="round"/>
<path fill-rule="evenodd" clip-rule="evenodd" d="M178.757 124.036C178.368 124.22 177.571 124.608 177.06 124.976C176.549 125.344 176.304 125.712 176.692 126.468C177.081 127.245 178.103 128.431 178.634 128.982C179.166 129.534 179.227 129.453 179.513 129.432C179.799 129.432 180.269 129.473 180.576 129.044C180.883 128.614 181.005 127.654 180.944 126.979C180.883 126.305 180.658 125.875 180.331 125.405C180.004 124.935 179.574 124.383 179.37 124.117C179.234 123.94 179.029 123.913 178.757 124.036Z" fill="#4F5153" stroke="#2D3641" stroke-width="0.37" stroke-miterlimit="11.34" stroke-linecap="round"/>
<path fill-rule="evenodd" clip-rule="evenodd" d="M153.348 183.969C153.512 184.378 153.839 185.175 154.166 185.707C154.493 186.238 154.841 186.504 155.658 186.177C156.476 185.85 157.764 184.95 158.356 184.46C158.949 183.99 158.867 183.908 158.867 183.642C158.867 183.376 158.97 182.906 158.561 182.579C158.132 182.252 157.191 182.048 156.496 182.048C155.801 182.048 155.352 182.252 154.861 182.538C154.35 182.825 153.778 183.193 153.491 183.376C153.301 183.499 153.26 183.697 153.369 183.969H153.348Z" fill="#4F5153" stroke="#2D3641" stroke-width="0.37" stroke-miterlimit="11.34" stroke-linecap="round"/>
<path fill-rule="evenodd" clip-rule="evenodd" d="M141.963 33.5016C141.819 33.8695 141.513 34.6259 141.206 35.0143C140.9 35.4231 140.593 35.464 139.857 34.3192C139.121 33.1745 137.956 30.8647 137.425 29.72C136.873 28.5753 136.954 28.5548 136.954 28.2073C136.954 27.8394 136.852 27.1444 137.241 27.1035C137.609 27.0422 138.488 27.635 139.101 28.2482C139.734 28.8614 140.123 29.5156 140.593 30.3332C141.043 31.1509 141.574 32.132 141.84 32.6431C142.106 33.1541 142.106 33.1337 141.963 33.5016Z" fill="#4F5153" stroke="#2D3641" stroke-width="0.37" stroke-miterlimit="11.34" stroke-linecap="round"/>
<path fill-rule="evenodd" clip-rule="evenodd" d="M125.119 69.6211C125.426 69.846 126.039 70.2753 126.489 70.4388C126.938 70.6023 127.204 70.4797 127.204 69.1919C127.204 67.9041 126.938 65.492 126.775 64.3065C126.611 63.1209 126.55 63.1413 126.366 62.8551C126.182 62.5689 125.896 61.9761 125.569 62.1192C125.242 62.2623 124.853 63.1822 124.669 63.9794C124.485 64.797 124.506 65.5125 124.567 66.3914C124.628 67.2704 124.71 68.3129 124.772 68.8648C124.812 69.3963 124.812 69.3963 125.119 69.6007V69.6211Z" fill="#4F5153" stroke="#2D3641" stroke-width="0.35" stroke-miterlimit="11.34" stroke-linecap="round"/>
<path fill-rule="evenodd" clip-rule="evenodd" d="M84.6249 79.3512C84.6862 79.7191 84.8293 80.4755 84.768 80.9456C84.7271 81.4158 84.5022 81.5997 83.3371 81.0478C82.1923 80.4959 80.1074 79.2081 79.1058 78.554C78.1042 77.8999 78.1654 77.859 77.9815 77.5728C77.7975 77.2866 77.3887 76.7756 77.6544 76.5507C77.9406 76.3259 78.9218 76.3668 79.719 76.5507C80.5366 76.7347 81.1703 77.0618 81.9471 77.491C82.7238 77.9203 83.6233 78.4518 84.0934 78.7379C84.5636 79.0037 84.5431 79.0037 84.6249 79.3716V79.3512Z" fill="#4F5153" stroke="#2D3641" stroke-width="0.35" stroke-miterlimit="11.34" stroke-linecap="round"/>
<path fill-rule="evenodd" clip-rule="evenodd" d="M115.368 135.135C115.512 134.788 115.777 134.072 116.084 133.704C116.37 133.316 116.656 133.275 117.351 134.359C118.046 135.442 119.15 137.609 119.661 138.692C120.172 139.775 120.111 139.775 120.111 140.123C120.111 140.47 120.193 141.125 119.845 141.165C119.498 141.227 118.68 140.654 118.087 140.082C117.494 139.51 117.106 138.896 116.677 138.12C116.247 137.343 115.757 136.423 115.512 135.953C115.266 135.483 115.266 135.483 115.409 135.135H115.368Z" fill="#4F5153" stroke="#2D3641" stroke-width="0.35" stroke-miterlimit="11.34" stroke-linecap="round"/>
<path fill-rule="evenodd" clip-rule="evenodd" d="M87.9979 143.312C87.8548 143.659 87.589 144.375 87.2824 144.743C86.9962 145.131 86.7101 145.172 86.0151 144.088C85.3201 143.005 84.2162 140.838 83.7052 139.755C83.1942 138.672 83.2555 138.672 83.2555 138.324C83.2555 137.977 83.1737 137.322 83.5212 137.282C83.8687 137.22 84.6864 137.772 85.2792 138.365C85.872 138.937 86.2603 139.551 86.6896 140.327C87.1189 141.104 87.6095 142.024 87.8548 142.494C88.1001 142.964 88.1 142.964 87.957 143.312H87.9979Z" fill="#4F5153" stroke="#2D3641" stroke-width="0.35" stroke-miterlimit="11.34" stroke-linecap="round"/>
<path fill-rule="evenodd" clip-rule="evenodd" d="M146.419 127.592C146.071 127.388 145.397 126.959 145.049 126.591C144.702 126.223 144.722 125.916 145.969 125.385C147.216 124.853 149.689 124.097 150.916 123.77C152.142 123.422 152.142 123.504 152.49 123.566C152.837 123.627 153.553 123.647 153.532 124.036C153.532 124.424 152.796 125.16 152.081 125.691C151.365 126.202 150.67 126.489 149.771 126.795C148.892 127.102 147.829 127.449 147.298 127.633C146.766 127.817 146.766 127.817 146.419 127.613V127.592Z" fill="#4F5153" stroke="#2D3641" stroke-width="0.37" stroke-miterlimit="11.34" stroke-linecap="round"/>
<path fill-rule="evenodd" clip-rule="evenodd" d="M41.535 173.074C41.3919 173.401 41.0853 174.035 40.7787 174.382C40.4721 174.73 40.145 174.771 39.3886 173.79C38.6323 172.808 37.4468 170.805 36.8949 169.804C36.343 168.802 36.4247 168.802 36.4247 168.495C36.4247 168.189 36.3225 167.575 36.7108 167.535C37.0992 167.494 37.9782 168.005 38.6323 168.516C39.2864 169.047 39.6749 169.599 40.145 170.315C40.6152 171.03 41.1466 171.868 41.4124 172.318C41.6781 172.747 41.6781 172.747 41.535 173.074Z" fill="#4F5153" stroke="#2D3641" stroke-width="0.37" stroke-miterlimit="11.34" stroke-linecap="round"/>
<path fill-rule="evenodd" clip-rule="evenodd" d="M91.902 201.753C92.5153 201.528 93.7622 201.079 94.355 200.792C94.9478 200.506 94.9069 200.424 95.1318 200.057C95.3566 199.689 95.8676 199.035 96.1129 198.585C96.3582 198.135 96.3583 197.89 96.2969 197.808C96.2356 197.726 96.1538 197.767 96.0721 197.747C95.9903 197.726 95.9494 197.624 95.4384 197.747C94.9273 197.849 93.9666 198.135 93.1285 198.299C92.2904 198.462 91.5545 198.503 91.1457 198.544C90.7369 198.585 90.6347 198.646 90.3689 198.483C90.1032 198.319 89.6535 197.972 89.2652 197.747C88.8972 197.522 88.5906 197.44 88.4271 197.358C88.2635 197.277 88.2022 197.174 87.7116 197.399C87.2006 197.624 86.2603 198.156 85.7493 198.687C85.2382 199.218 85.1769 199.75 85.8719 200.343C86.5669 200.936 88.0591 201.569 89.0812 201.855C90.1033 202.142 90.696 202.06 90.9822 202.019C91.173 201.992 91.4796 201.903 91.902 201.753Z" fill="#4F5153" stroke="#2D3641" stroke-width="0.37" stroke-miterlimit="11.34" stroke-linecap="round"/>
<path fill-rule="evenodd" clip-rule="evenodd" d="M107.642 187.322C107.417 187.731 106.988 188.528 106.763 189.141C106.538 189.775 106.538 190.224 107.315 190.674C108.071 191.124 109.604 191.573 110.36 191.757C111.117 191.941 111.117 191.819 111.342 191.635C111.566 191.451 111.996 191.226 111.996 190.674C111.996 190.122 111.566 189.202 111.137 188.63C110.708 188.058 110.279 187.833 109.727 187.608C109.175 187.383 108.541 187.158 108.194 187.036C107.976 186.954 107.792 187.049 107.642 187.322Z" fill="#4F5153" stroke="#2D3641" stroke-width="0.37" stroke-miterlimit="11.34" stroke-linecap="round"/>
<path fill-rule="evenodd" clip-rule="evenodd" d="M78.4108 146.705C78.1859 147.114 77.7566 147.911 77.5318 148.524C77.3069 149.158 77.307 149.608 78.0837 150.057C78.84 150.507 80.3731 150.957 81.1294 151.141C81.8858 151.325 81.8858 151.202 82.1106 151.018C82.3355 150.834 82.7647 150.609 82.7647 150.057C82.7647 149.505 82.3355 148.586 81.9062 148.013C81.4769 147.441 81.0477 147.216 80.4958 146.991C79.9439 146.766 79.3102 146.542 78.9627 146.419C78.7446 146.337 78.5607 146.432 78.4108 146.705Z" fill="#4F5153" stroke="#2D3641" stroke-width="0.37" stroke-miterlimit="11.34" stroke-linecap="round"/>
<path fill-rule="evenodd" clip-rule="evenodd" d="M117.086 141.881C116.881 142.31 116.513 143.148 116.309 143.802C116.104 144.456 116.125 144.947 116.799 145.417C117.474 145.887 118.823 146.378 119.498 146.562C120.172 146.746 120.172 146.623 120.356 146.439C120.54 146.255 120.929 146.01 120.929 145.417C120.929 144.824 120.54 143.864 120.152 143.25C119.763 142.637 119.375 142.412 118.905 142.167C118.414 141.922 117.842 141.676 117.556 141.554C117.365 141.472 117.201 141.574 117.065 141.86L117.086 141.881Z" fill="#4F5153" stroke="#2D3641" stroke-width="0.35" stroke-miterlimit="11.34" stroke-linecap="round"/>
<path fill-rule="evenodd" clip-rule="evenodd" d="M87.2824 133.071C86.9554 133.275 86.3013 133.704 85.872 134.113C85.4427 134.522 85.2383 134.91 85.5654 135.769C85.8925 136.627 86.7509 137.956 87.1802 138.569C87.6299 139.183 87.6708 139.08 87.8957 139.06C88.1205 139.039 88.5293 139.101 88.7746 138.631C89.0199 138.14 89.1222 137.098 89.0813 136.341C89.0404 135.585 88.836 135.115 88.5703 134.583C88.3045 134.052 87.957 133.459 87.773 133.152C87.6504 132.948 87.48 132.921 87.262 133.071H87.2824Z" fill="#4F5153" stroke="#2D3641" stroke-width="0.32" stroke-miterlimit="11.34" stroke-linecap="round"/>
<path fill-rule="evenodd" clip-rule="evenodd" d="M120.745 63.0596C120.418 63.264 119.763 63.6932 119.334 64.102C118.905 64.5109 118.701 64.8992 119.028 65.7578C119.355 66.6163 120.213 67.945 120.642 68.5582C121.092 69.1715 121.133 69.0693 121.358 69.0488C121.583 69.0284 121.992 69.0897 122.237 68.6196C122.482 68.129 122.584 67.0865 122.544 66.3301C122.503 65.5738 122.298 65.1037 122.032 64.5722C121.767 64.0407 121.419 63.4479 121.235 63.1413C121.113 62.9369 120.942 62.9096 120.724 63.0596H120.745Z" fill="#4F5153" stroke="#2D3641" stroke-width="0.32" stroke-miterlimit="11.34" stroke-linecap="round"/>
<path fill-rule="evenodd" clip-rule="evenodd" d="M82.4582 70.8681C82.1312 71.0725 81.477 71.5018 81.0478 71.9106C80.6185 72.3194 80.4141 72.7078 80.7412 73.5663C81.0682 74.4249 81.9268 75.7535 82.356 76.3668C82.8058 76.98 82.8467 76.8778 83.0715 76.8574C83.2964 76.8369 83.7052 76.8982 83.9505 76.4281C84.1958 75.9375 84.2979 74.895 84.2571 74.1387C84.2162 73.3824 84.0118 72.9122 83.746 72.3807C83.4803 71.8493 83.1328 71.2565 82.9489 70.9499C82.8262 70.7454 82.6559 70.7182 82.4378 70.8681H82.4582Z" fill="#4F5153" stroke="#2D3641" stroke-width="0.32" stroke-miterlimit="11.34" stroke-linecap="round"/>
<path fill-rule="evenodd" clip-rule="evenodd" d="M102 26.8377C97.1759 26.8377 93.3125 31.2734 89.7353 34.5032C87.3436 36.6699 84.7885 39.082 83.8073 42.1686C81.6201 49.0573 86.6691 58.3785 86.6691 63.6319C86.6691 66.6981 85.136 69.846 85.504 72.8304C88.3657 95.8268 94.3345 106.558 89.7353 138.753C89.2447 143.332 87.0166 150.773 87.0984 158.765C87.1801 166.758 92.6175 175.547 102 175.547C111.382 175.547 117.147 167.003 117.147 158.765C117.147 150.527 114.776 142.147 114.265 138.753C109.665 106.558 115.634 95.8268 118.496 72.8304C118.721 70.214 117.331 66.6981 117.331 63.6319C117.331 58.8078 122.114 48.4032 120.193 42.1686C119.212 39.082 116.656 36.6699 114.265 34.5032C110.687 31.2734 106.824 26.8377 102 26.8377Z" fill="#4F5153" stroke="#4F5153" stroke-width="0.28" stroke-miterlimit="11.34" stroke-linecap="round"/>
<path fill-rule="evenodd" clip-rule="evenodd" d="M108.787 147.727C116.064 147.747 115.675 146.746 115.348 144.824C114.899 142.208 115.042 141.86 108.398 141.963C108.316 144.64 108.725 146.092 108.787 147.747V147.727Z" fill="#656565" stroke="#4F5153" stroke-width="0.28" stroke-miterlimit="11.34" stroke-linecap="round"/>
<path fill-rule="evenodd" clip-rule="evenodd" d="M108.214 135.708C111.628 135.564 113.631 135.585 114.081 138.181C114.49 140.613 114.735 141.636 108.439 141.84L108.214 135.708Z" fill="#656565" stroke="#4F5153" stroke-width="0.28" stroke-miterlimit="11.34" stroke-linecap="round"/>
<path fill-rule="evenodd" clip-rule="evenodd" d="M107.989 135.708C113.856 135.36 113.529 134.706 113.365 132.58C113.181 130.372 113.365 129.391 107.642 129.575C107.642 131.108 107.887 133.95 108.01 135.708H107.989Z" fill="#656565" stroke="#4F5153" stroke-width="0.28" stroke-miterlimit="11.34" stroke-linecap="round"/>
<path fill-rule="evenodd" clip-rule="evenodd" d="M107.662 129.575C113.12 129.412 112.813 128.655 112.793 126.652C112.772 123.463 112.711 123.443 107.56 123.484C107.54 125.16 107.499 127.654 107.662 129.575Z" fill="#656565" stroke="#4F5153" stroke-width="0.28" stroke-miterlimit="11.34" stroke-linecap="round"/>
<path fill-rule="evenodd" clip-rule="evenodd" d="M107.376 123.463C112.63 123.463 112.589 122.421 112.568 120.418C112.568 118.374 112.793 117.168 107.254 117.331C107.233 119.028 107.315 121.317 107.376 123.484V123.463Z" fill="#656565" stroke="#4F5153" stroke-width="0.28" stroke-miterlimit="11.34" stroke-linecap="round"/>
<path fill-rule="evenodd" clip-rule="evenodd" d="M107.315 117.31C112.793 117.31 112.527 116.186 112.507 114.163C112.466 112.118 112.916 111.055 107.172 111.199C107.151 112.895 107.192 115.45 107.335 117.31H107.315Z" fill="#656565" stroke="#4F5153" stroke-width="0.28" stroke-miterlimit="11.34" stroke-linecap="round"/>
<path fill-rule="evenodd" clip-rule="evenodd" d="M107.192 111.178C112.916 111.199 112.936 110.32 113.079 108.092C113.222 105.679 113.386 104.903 107.069 105.025C107.069 107.356 107.069 108.623 107.192 111.178Z" fill="#656565" stroke="#4F5153" stroke-width="0.28" stroke-miterlimit="11.34" stroke-linecap="round"/>
<path fill-rule="evenodd" clip-rule="evenodd" d="M107.09 105.066C113.365 105.189 113.386 104.351 113.549 101.959C113.692 99.8129 114.203 98.8521 107.049 98.9135C106.967 101.939 106.947 102.143 107.069 105.066H107.09Z" fill="#656565" stroke="#4F5153" stroke-width="0.28" stroke-miterlimit="11.34" stroke-linecap="round"/>
<path fill-rule="evenodd" clip-rule="evenodd" d="M107.213 98.8929C114.203 99.036 114.122 98.7089 114.592 96.0107C115.062 93.3533 115.307 92.6379 107.192 92.7401C107.11 95.4179 107.151 97.2372 107.213 98.8929Z" fill="#656565" stroke="#4F5153" stroke-width="0.28" stroke-miterlimit="11.34" stroke-linecap="round"/>
<path fill-rule="evenodd" clip-rule="evenodd" d="M115.634 89.7148C116.166 86.7917 116.043 86.5669 107.151 86.6282C107.07 89.6535 106.947 89.8784 107.029 92.7606C114.96 92.6993 115.082 92.7197 115.634 89.7148Z" fill="#656565" stroke="#4F5153" stroke-width="0.28" stroke-miterlimit="11.34" stroke-linecap="round"/>
<path fill-rule="evenodd" clip-rule="evenodd" d="M95.2134 147.727C87.9364 147.747 88.3656 146.787 88.6927 144.865C89.1424 142.249 88.9584 141.86 95.6018 141.963C95.6835 144.64 95.2747 146.092 95.2134 147.747V147.727Z" fill="#656565" stroke="#4F5153" stroke-width="0.28" stroke-miterlimit="11.34" stroke-linecap="round"/>
<path fill-rule="evenodd" clip-rule="evenodd" d="M95.7655 135.708C92.3518 135.564 90.2668 135.585 89.8375 138.181C89.4287 140.613 89.2652 141.636 95.5611 141.84L95.7859 135.708H95.7655Z" fill="#656565" stroke="#4F5153" stroke-width="0.28" stroke-miterlimit="11.34" stroke-linecap="round"/>
<path fill-rule="evenodd" clip-rule="evenodd" d="M95.9903 135.708C90.1236 135.36 90.4507 134.706 90.6143 132.58C90.7982 130.372 90.6142 129.391 96.3378 129.575C96.3378 131.108 96.0925 133.95 95.9699 135.708H95.9903Z" fill="#656565" stroke="#4F5153" stroke-width="0.28" stroke-miterlimit="11.34" stroke-linecap="round"/>
<path fill-rule="evenodd" clip-rule="evenodd" d="M96.3378 129.575C90.88 129.412 91.1049 128.696 91.1253 126.693C91.1458 123.504 91.2888 123.443 96.44 123.504C96.4605 125.18 96.5014 127.674 96.3378 129.596V129.575Z" fill="#656565" stroke="#4F5153" stroke-width="0.28" stroke-miterlimit="11.34" stroke-linecap="round"/>
<path fill-rule="evenodd" clip-rule="evenodd" d="M96.6035 123.463C91.3501 123.463 91.3706 122.462 91.3706 120.438C91.3706 118.373 91.1866 117.167 96.7262 117.311C96.7466 119.007 96.6649 121.297 96.6035 123.463Z" fill="#656565" stroke="#4F5153" stroke-width="0.28" stroke-miterlimit="11.34" stroke-linecap="round"/>
<path fill-rule="evenodd" clip-rule="evenodd" d="M96.6854 117.311C91.2071 117.311 91.4319 116.227 91.4728 114.203C91.4933 112.139 91.1049 111.056 96.8489 111.199C96.8693 112.895 96.8285 115.45 96.6854 117.311Z" fill="#656565" stroke="#4F5153" stroke-width="0.28" stroke-miterlimit="11.34" stroke-linecap="round"/>
<path fill-rule="evenodd" clip-rule="evenodd" d="M96.8079 111.178C91.0843 111.199 91.0639 110.32 90.9208 108.092C90.7777 105.679 90.6142 104.903 96.9305 105.025C96.9305 107.356 96.9305 108.623 96.8079 111.178Z" fill="#656565" stroke="#4F5153" stroke-width="0.28" stroke-miterlimit="11.34" stroke-linecap="round"/>
<path fill-rule="evenodd" clip-rule="evenodd" d="M96.8896 105.066C90.6141 105.189 90.6754 104.351 90.4301 101.959C90.1644 99.4857 89.817 98.8112 96.9305 98.9134C97.0123 101.939 97.0327 102.143 96.91 105.066H96.8896Z" fill="#656565" stroke="#4F5153" stroke-width="0.28" stroke-miterlimit="11.34" stroke-linecap="round"/>
<path fill-rule="evenodd" clip-rule="evenodd" d="M96.6853 98.8929C89.6944 99.036 89.9396 98.7089 89.4695 96.0107C88.9993 93.3533 88.5905 92.6379 96.7057 92.7401C96.7874 95.4179 96.7466 97.2372 96.6853 98.8929Z" fill="#656565" stroke="#4F5153" stroke-width="0.28" stroke-miterlimit="11.34" stroke-linecap="round"/>
<path fill-rule="evenodd" clip-rule="evenodd" d="M88.2839 89.7148C87.7524 86.7917 87.8751 86.5669 96.767 86.6282C96.8487 89.6535 96.9714 89.8784 96.8896 92.7606C88.9584 92.6993 88.8358 92.7197 88.2839 89.7148Z" fill="#656565" stroke="#4F5153" stroke-width="0.28" stroke-miterlimit="11.34" stroke-linecap="round"/>
<path fill-rule="evenodd" clip-rule="evenodd" d="M102 34.5032C95.2136 34.5032 94.3346 49.18 94.3346 53.35C94.3346 57.52 100.467 94.2937 94.3346 160.217C94.3346 164.816 98.382 167.882 102 167.882C105.618 167.882 109.666 164.816 109.666 160.217C103.533 94.2937 109.666 57.4995 109.666 53.35C109.666 49.2004 108.787 34.5032 102 34.5032Z" fill="#656565" stroke="#4F5153" stroke-width="0.28" stroke-miterlimit="11.34" stroke-linecap="round"/>
<path d="M102 34.9325H102.082C102.184 34.9325 102.245 34.8507 102.286 34.7894V35.3617C102.286 35.3617 102.184 35.2186 102.082 35.2186H102V35.0755V34.9325Z" fill="#4F5153"/>
<path d="M102 167.187H102.082C102.184 167.187 102.245 167.105 102.286 167.044V167.616C102.286 167.616 102.184 167.473 102.082 167.473H102V167.33V167.187Z" fill="#4F5153"/>
<path fill-rule="evenodd" clip-rule="evenodd" d="M93.7213 33.8286C95.5814 34.8302 95.0704 39.7565 94.866 43.2724C94.7229 45.9298 94.5389 48.8937 92.924 50.9992C92.0655 52.1235 90.9413 53.1455 89.2651 53.0638C87.5889 52.982 85.3812 51.4489 84.4409 49.7318C82.9283 46.9518 82.683 43.068 84.1343 40.2471C85.8923 36.813 90.1032 32.0911 93.7213 33.8081V33.8286Z" fill="#656565" stroke="#4F5153" stroke-width="0.28" stroke-miterlimit="11.34" stroke-linecap="round"/>
<path fill-rule="evenodd" clip-rule="evenodd" d="M110.013 33.8286C108.153 34.8302 108.664 39.7565 108.868 43.2724C109.011 45.9298 109.195 48.8937 110.81 50.9992C111.669 52.1235 112.793 53.1455 114.469 53.0638C116.145 52.982 118.353 51.4489 119.293 49.7318C120.806 46.9518 121.051 43.068 119.6 40.2471C117.842 36.813 113.631 32.0911 110.013 33.8081V33.8286Z" fill="#656565" stroke="#4F5153" stroke-width="0.28" stroke-miterlimit="11.34" stroke-linecap="round"/>
</svg>
