<svg width="204" height="204" viewBox="0 0 204 204" fill="none" xmlns="http://www.w3.org/2000/svg">
<path d="M102 203C157.781 203 203 157.781 203 102C203 46.2193 157.781 1 102 1C46.2193 1 1 46.2193 1 102C1 157.781 46.2193 203 102 203Z" fill="#E0EFF2" stroke="#4F5153" stroke-miterlimit="11.34" stroke-linecap="round"/>
<path fill-rule="evenodd" clip-rule="evenodd" d="M171.623 31.9071C172.277 32.1115 173.565 32.4999 174.239 32.7452C174.893 32.9905 174.893 33.1131 175.282 33.5015C175.67 33.8899 176.426 34.5644 176.856 35.0346C177.285 35.5047 177.408 35.7705 177.408 35.8727C177.408 35.9749 177.305 35.934 177.244 35.9544C177.183 35.9749 177.183 36.0975 176.692 36.0158C176.202 35.934 175.22 35.7091 174.403 35.5865C173.585 35.4843 172.931 35.4843 172.563 35.4639C172.175 35.4639 172.072 35.4025 171.909 35.5865C171.745 35.7909 171.521 36.2202 171.316 36.4859C171.091 36.7516 170.887 36.8743 170.785 36.9765C170.682 37.0787 170.682 37.2014 170.131 36.9765C169.579 36.7721 168.495 36.2611 167.8 35.7296C167.105 35.1777 166.778 34.6053 167.085 33.9103C167.412 33.2153 168.393 32.3772 169.149 31.9888C169.906 31.6005 170.458 31.6413 170.723 31.6618C170.914 31.6754 171.221 31.7504 171.643 31.8866L171.623 31.9071Z" fill="#4F5153" stroke="#4F5153" stroke-width="0.37" stroke-miterlimit="11.34" stroke-linecap="round"/>
<path fill-rule="evenodd" clip-rule="evenodd" d="M75.0381 142.392C75.7126 142.576 77.0617 142.944 77.7567 143.169C78.4313 143.414 78.4313 143.496 78.8401 143.864C79.2285 144.211 80.0257 144.845 80.4754 145.274C80.9251 145.703 81.0478 145.949 81.0478 146.051C81.0478 146.153 80.9251 146.112 80.8842 146.133C80.8229 146.153 80.8229 146.255 80.3119 146.194C79.8009 146.133 78.7788 145.908 77.9202 145.805C77.0617 145.703 76.3872 145.724 75.9988 145.703C75.6104 145.703 75.4878 145.642 75.3242 145.826C75.1607 146.01 74.9358 146.398 74.6906 146.664C74.4657 146.909 74.2408 147.012 74.1182 147.114C73.9955 147.216 74.016 147.318 73.4436 147.114C72.8713 146.93 71.747 146.46 71.0111 145.949C70.2752 145.458 69.9482 144.906 70.2752 144.272C70.6023 143.639 71.6244 142.862 72.4216 142.494C73.2188 142.126 73.7707 142.167 74.0773 142.187C74.3635 142.187 74.3635 142.208 75.0381 142.392Z" fill="#4F5153" stroke="#4F5153" stroke-width="0.37" stroke-miterlimit="11.34" stroke-linecap="round"/>
<path fill-rule="evenodd" clip-rule="evenodd" d="M60.1568 88.4474C60.0751 87.8546 59.9115 86.669 59.8093 85.974C59.7071 85.279 59.6662 85.0542 59.5027 84.9111C59.3596 84.768 59.1143 84.7067 58.9917 84.6249C58.869 84.5432 58.8281 84.4409 58.7872 84.4614C58.7259 84.4614 58.6442 84.6045 58.5419 84.6658C58.4397 84.7271 58.3375 84.768 58.2967 85.1155C58.2762 85.463 58.2967 86.1171 58.2353 86.6281C58.174 87.1392 58.0309 87.5071 57.99 87.7933C57.9491 88.0795 57.99 88.2839 57.9696 88.4065C57.9287 88.5292 57.8265 88.5496 57.7856 88.6109C57.7447 88.6723 57.7856 88.7745 57.6425 88.9789C57.5199 89.1628 57.2337 89.449 57.0702 89.7148C56.9066 89.9805 56.8453 90.2054 56.6614 90.4098C56.4774 90.6142 56.1708 90.7777 56.0481 90.9208C55.9255 91.0639 55.9459 91.1661 55.8437 91.2478C55.7415 91.3296 55.5167 91.3705 55.394 91.5136C55.2509 91.6567 55.1896 91.902 55.1078 92.0246C55.0261 92.1473 54.9034 92.1677 54.883 92.229C54.8421 92.2904 54.883 92.413 54.8012 92.597C54.7194 92.7809 54.5559 93.0467 54.4946 93.2715C54.4333 93.4964 54.4946 93.7213 54.4537 93.8235C54.4128 93.9461 54.3106 93.9665 54.3106 94.1914C54.3106 94.4162 54.4128 94.8455 54.3924 95.0704C54.3924 95.2952 54.2697 95.3157 54.2902 95.6018C54.2902 95.888 54.4333 96.4195 54.7399 96.3377C55.0669 96.2764 55.5984 95.6018 56.968 94.866C58.3375 94.1301 60.5452 93.3329 61.6081 92.6583C62.6506 92.0042 62.5484 91.4727 62.1192 90.8799C61.7103 90.2871 60.9949 89.6739 60.627 89.3468C60.3817 89.1424 60.2386 88.8426 60.1977 88.4474H60.1568Z" fill="#4F5153" stroke="#4F5153" stroke-width="0.37" stroke-miterlimit="11.34" stroke-linecap="round"/>
<path fill-rule="evenodd" clip-rule="evenodd" d="M122.421 147.032C123.054 147.032 124.301 147.032 125.078 146.971C125.875 146.909 126.202 146.828 126.55 146.828C126.897 146.828 127.224 146.93 127.633 146.971C128.022 147.012 128.471 147.011 128.655 147.114C128.819 147.216 128.717 147.42 128.655 147.666C128.594 147.911 128.594 148.218 128.553 148.361C128.492 148.504 128.39 148.504 128.267 148.953C128.144 149.403 128.042 150.282 127.245 150.67C126.468 151.059 124.996 150.957 124.199 150.957C123.402 150.957 123.279 151.059 123.014 151.1C122.727 151.161 122.278 151.161 121.705 151.243C121.133 151.345 120.458 151.529 120.397 151.345C120.336 151.141 120.908 150.548 121.235 149.771C121.583 148.994 121.685 147.993 121.746 147.502C121.787 147.175 122.012 147.011 122.421 147.011V147.032Z" fill="#4F5153" stroke="#4F5153" stroke-width="0.37" stroke-miterlimit="11.34" stroke-linecap="round"/>
<path fill-rule="evenodd" clip-rule="evenodd" d="M142.085 12.6719C142.678 12.6719 143.884 12.6719 144.64 12.6106C145.397 12.5492 145.724 12.447 146.051 12.447C146.378 12.447 146.705 12.5492 147.093 12.6106C147.482 12.6719 147.911 12.6719 148.054 12.7741C148.218 12.8763 148.095 13.1011 148.054 13.3669C147.993 13.6326 147.993 13.9597 147.952 14.1232C147.911 14.2867 147.788 14.2867 147.686 14.7569C147.563 15.2475 147.461 16.2082 146.705 16.6375C145.949 17.0667 144.538 16.9645 143.782 16.9645C143.025 16.9645 142.903 17.0667 142.637 17.1281C142.371 17.1894 141.942 17.1894 141.39 17.2916C140.838 17.3938 140.184 17.6186 140.143 17.3938C140.082 17.1894 140.634 16.5353 140.961 15.6767C141.288 14.8182 141.39 13.7553 141.451 13.2238C141.513 12.6923 141.513 12.6923 142.106 12.6923L142.085 12.6719Z" fill="#4F5153" stroke="#4F5153" stroke-width="0.37" stroke-miterlimit="11.34" stroke-linecap="round"/>
<path fill-rule="evenodd" clip-rule="evenodd" d="M142.412 102.593C142.249 103.247 141.901 104.576 141.779 105.25C141.656 105.925 141.779 105.925 141.922 106.333C142.085 106.742 142.31 107.54 142.515 108.01C142.719 108.48 142.923 108.602 143.026 108.602C143.128 108.602 143.148 108.5 143.21 108.439C143.271 108.398 143.373 108.398 143.577 107.907C143.782 107.417 144.088 106.415 144.436 105.598C144.783 104.78 145.151 104.126 145.356 103.758C145.54 103.37 145.56 103.267 145.846 103.124C146.133 102.981 146.664 102.797 147.052 102.593C147.441 102.388 147.666 102.184 147.829 102.102C147.993 102 148.095 102.02 148.197 101.448C148.299 100.896 148.422 99.7719 148.279 99.036C148.136 98.3001 147.768 97.9322 146.909 98.1979C146.051 98.4636 144.722 99.363 143.905 100.099C143.087 100.835 142.842 101.366 142.698 101.632C142.555 101.918 142.555 101.898 142.392 102.552L142.412 102.593Z" fill="#4F5153" stroke="#4F5153" stroke-width="0.37" stroke-miterlimit="11.34" stroke-linecap="round"/>
<path fill-rule="evenodd" clip-rule="evenodd" d="M118.455 152.653C119.13 152.837 120.479 153.205 121.174 153.43C121.848 153.655 121.848 153.757 122.257 154.125C122.646 154.473 123.443 155.106 123.893 155.536C124.342 155.965 124.465 156.21 124.465 156.312C124.465 156.415 124.342 156.374 124.301 156.394C124.24 156.415 124.24 156.517 123.729 156.455C123.218 156.394 122.196 156.169 121.337 156.067C120.479 155.965 119.804 155.985 119.416 155.965C119.027 155.965 118.905 155.903 118.741 156.087C118.578 156.271 118.353 156.66 118.108 156.926C117.883 157.171 117.658 157.273 117.535 157.375C117.413 157.477 117.433 157.58 116.861 157.375C116.288 157.191 115.164 156.721 114.428 156.21C113.692 155.72 113.365 155.168 113.692 154.534C114.019 153.9 115.041 153.123 115.839 152.756C116.636 152.388 117.188 152.428 117.494 152.449C117.781 152.449 117.781 152.469 118.455 152.653Z" fill="#4F5153" stroke="#4F5153" stroke-width="0.37" stroke-miterlimit="11.34" stroke-linecap="round"/>
<path fill-rule="evenodd" clip-rule="evenodd" d="M201.855 107.172C201.712 106.558 201.426 105.311 201.099 104.678C200.792 104.044 200.465 104.003 200.343 103.778C200.22 103.554 200.261 103.124 200.22 102.899C200.179 102.675 200.077 102.654 200.077 102.613C200.077 102.572 200.2 102.47 200.281 102.204C200.363 101.939 200.424 101.509 200.567 101.141C200.711 100.774 200.956 100.467 200.997 100.262C201.017 100.038 200.813 99.915 200.547 99.8741C200.281 99.8537 199.954 99.915 199.668 99.9354C199.402 99.9559 199.177 99.9355 198.973 100.467C198.748 100.998 198.523 102.061 198.462 102.654C198.401 103.247 198.482 103.37 198.298 103.676C198.094 103.983 197.603 104.473 197.154 105.189C196.704 105.904 196.275 106.845 196.111 107.356C195.948 107.887 196.05 107.989 196.111 108.398C196.173 108.807 196.213 109.461 196.725 110.156C197.236 110.871 198.217 111.628 198.953 111.873C199.668 112.118 200.138 111.853 200.424 111.71C200.711 111.566 200.813 111.587 200.874 111.546C200.935 111.505 200.956 111.403 201.119 110.769C201.303 110.136 201.651 108.97 201.814 108.378C201.998 107.785 201.998 107.785 201.855 107.172Z" fill="#4F5153" stroke="#4F5153" stroke-width="0.37" stroke-miterlimit="11.34" stroke-linecap="round"/>
<path fill-rule="evenodd" clip-rule="evenodd" d="M100.467 41.4327C100.876 41.9233 101.673 42.9045 102.225 43.3542C102.777 43.8039 103.083 43.6813 103.308 43.8448C103.533 43.9879 103.676 44.3967 103.799 44.6011C103.921 44.7851 104.024 44.7646 104.044 44.8055C104.044 44.8464 104.003 44.9895 104.044 45.2757C104.085 45.5619 104.228 45.9707 104.249 46.3591C104.269 46.7474 104.187 47.1358 104.249 47.3402C104.33 47.5446 104.555 47.5855 104.821 47.4833C105.087 47.3811 105.352 47.1767 105.577 47.0336C105.802 46.8905 106.006 46.8292 105.986 46.2568C105.945 45.6845 105.7 44.6215 105.495 44.0696C105.291 43.5177 105.168 43.436 105.209 43.068C105.25 42.7001 105.475 42.046 105.577 41.2079C105.679 40.3698 105.659 39.3273 105.577 38.7958C105.495 38.2439 105.352 38.1826 105.127 37.8555C104.903 37.5285 104.576 36.9561 103.819 36.5268C103.042 36.118 101.816 35.8523 101.06 35.934C100.303 36.0158 99.9967 36.4655 99.8128 36.7108C99.6084 36.9561 99.5061 36.997 99.4857 37.0583C99.4448 37.1196 99.4857 37.2218 99.6083 37.876C99.731 38.5301 99.915 39.7157 100.017 40.3289C100.119 40.9421 100.119 40.9421 100.508 41.4327H100.467Z" fill="#4F5153" stroke="#4F5153" stroke-width="0.37" stroke-miterlimit="11.34" stroke-linecap="round"/>
<path fill-rule="evenodd" clip-rule="evenodd" d="M67.7405 73.7094C68.0471 73.137 68.6604 71.9719 68.8648 71.2564C69.0692 70.541 68.8648 70.2957 68.9057 70.03C68.967 69.7642 69.2941 69.4576 69.4167 69.2532C69.5394 69.0488 69.478 68.967 69.5189 68.9261C69.5598 68.8853 69.7029 68.9057 69.9482 68.7422C70.1935 68.5991 70.5205 68.2925 70.868 68.1085C71.2155 67.9245 71.6039 67.8632 71.7879 67.6997C71.9514 67.5362 71.8901 67.3113 71.7266 67.1069C71.5426 66.9025 71.2564 66.7389 71.0316 66.555C70.8067 66.3914 70.6841 66.2279 70.1526 66.4936C69.6416 66.7594 68.7422 67.4339 68.2924 67.8428C67.8427 68.2516 67.8427 68.4151 67.4748 68.5173C67.1068 68.6195 66.4323 68.6808 65.5942 68.9261C64.7765 69.1714 63.8158 69.6212 63.3457 69.9073C62.8755 70.1935 62.8551 70.357 62.6302 70.7045C62.4054 71.052 61.9965 71.6039 61.8943 72.5034C61.7921 73.4028 62.017 74.6906 62.3645 75.3651C62.7324 76.0601 63.2639 76.1623 63.5705 76.2441C63.8771 76.3259 63.9385 76.4076 64.0202 76.4281C64.102 76.4281 64.1837 76.3667 64.7357 75.9784C65.2876 75.6104 66.3505 74.9359 66.8616 74.5884C67.2159 74.3567 67.4952 74.0501 67.6996 73.6685L67.7405 73.7094Z" fill="#4F5153" stroke="#4F5153" stroke-width="0.37" stroke-miterlimit="11.34" stroke-linecap="round"/>
<path fill-rule="evenodd" clip-rule="evenodd" d="M142.637 175.875C142.331 175.793 141.697 175.629 140.818 175.22C139.939 174.791 138.794 174.117 138.038 173.728C137.282 173.319 136.893 173.217 136.627 173.074C136.362 172.931 136.178 172.747 135.789 172.42C135.401 172.093 134.788 171.582 134.338 171.275C133.888 170.948 133.623 170.805 133.52 170.723C133.439 170.642 133.52 170.601 133.623 170.703C133.704 170.785 133.786 171.01 133.868 171.132C133.97 171.275 134.113 171.337 134.154 171.664C134.195 171.991 134.154 172.563 134.134 172.911C134.134 173.238 134.154 173.34 134.113 173.422C134.072 173.483 133.97 173.524 133.929 173.585C133.909 173.646 133.929 173.749 133.561 173.912C133.193 174.076 132.457 174.28 132.11 174.444C131.762 174.607 131.783 174.709 132.355 174.873C132.928 175.036 134.052 175.282 134.951 175.752C135.851 176.222 136.525 176.917 136.975 177.632C137.425 178.348 137.649 179.063 137.915 179.206C138.181 179.35 138.508 178.92 139.367 178.287C140.225 177.653 141.574 176.815 142.269 176.406C142.732 176.12 142.855 175.956 142.637 175.915V175.875Z" fill="#4F5153" stroke="#4F5153" stroke-width="0.37" stroke-miterlimit="11.34" stroke-linecap="round"/>
<path fill-rule="evenodd" clip-rule="evenodd" d="M95.8676 2.47177C95.6223 2.67618 95.1318 3.085 94.2937 3.53471C93.4556 3.98441 92.2495 4.49545 91.4932 4.86339C90.7369 5.23133 90.4303 5.47663 90.1441 5.59927C89.8784 5.74236 89.6331 5.7628 89.1425 5.88545C88.6519 6.0081 87.8956 6.19207 87.3845 6.3556C86.8735 6.51913 86.5873 6.66221 86.4647 6.68265C86.342 6.7031 86.3829 6.60088 86.5056 6.58044C86.6282 6.58044 86.8326 6.64178 86.9961 6.64178C87.1597 6.64178 87.3028 6.58045 87.5889 6.74398C87.8751 6.90751 88.3044 7.27545 88.5701 7.47986C88.8359 7.68427 88.9381 7.72516 88.9585 7.78648C88.9789 7.86825 88.9585 7.95002 88.9789 8.03178C88.9994 8.11355 89.122 8.13398 89.0403 8.50192C88.9585 8.8903 88.6928 9.60575 88.6314 9.97369C88.5701 10.3416 88.6519 10.3825 89.122 10.035C89.5922 9.68751 90.4098 8.93119 91.3092 8.50192C92.2086 8.07266 93.1694 7.92957 94.0075 7.99089C94.8456 8.05221 95.5406 8.29752 95.8268 8.17487C96.0925 8.05222 95.9494 7.54119 95.9085 6.47825C95.8881 5.43574 95.9903 3.86177 96.0311 3.06457C96.072 2.5331 96.0107 2.3355 95.8472 2.47177H95.8676Z" fill="#4F5153" stroke="#4F5153" stroke-width="0.37" stroke-miterlimit="11.34" stroke-linecap="round"/>
<path fill-rule="evenodd" clip-rule="evenodd" d="M12.4266 118.455C12.1405 118.312 11.5885 118.005 10.8527 117.372C10.1168 116.759 9.21737 115.818 8.58369 115.246C7.97045 114.674 7.62295 114.469 7.39809 114.265C7.17324 114.06 7.0506 113.856 6.76442 113.427C6.47824 112.997 6.0081 112.384 5.68104 111.955C5.33354 111.546 5.10869 111.321 5.04737 111.219C4.98604 111.117 5.08826 111.117 5.14958 111.219C5.2109 111.321 5.23133 111.546 5.29265 111.689C5.35398 111.853 5.47665 111.955 5.41533 112.282C5.37444 112.609 5.17002 113.161 5.08826 113.468C4.98605 113.795 5.00648 113.897 4.94516 113.958C4.88383 114.019 4.78164 114.019 4.74076 114.081C4.69988 114.142 4.69987 114.244 4.31148 114.306C3.9231 114.367 3.16676 114.387 2.79882 114.469C2.43088 114.53 2.43091 114.653 2.9215 114.939C3.41208 115.225 4.4137 115.737 5.14958 116.411C5.88546 117.086 6.35559 117.924 6.60089 118.721C6.84618 119.518 6.88708 120.274 7.09149 120.479C7.31634 120.683 7.72516 120.356 8.6859 119.947C9.64664 119.539 11.1389 119.068 11.8952 118.823C12.6515 118.578 12.6515 118.578 12.3653 118.435L12.4266 118.455Z" fill="#4F5153" stroke="#4F5153" stroke-width="0.37" stroke-miterlimit="11.34" stroke-linecap="round"/>
<path fill-rule="evenodd" clip-rule="evenodd" d="M64.5722 87.4662C64.6335 87.1596 64.7561 86.526 65.1241 85.647C65.492 84.768 66.1257 83.6029 66.4732 82.8261C66.8411 82.0493 66.9229 81.6814 67.0456 81.3952C67.1682 81.109 67.3522 80.9455 67.6588 80.5367C67.9859 80.1279 68.456 79.4942 68.7422 79.0445C69.0488 78.5947 69.1714 78.3086 69.2532 78.2064C69.335 78.1042 69.3759 78.2064 69.2941 78.3086C69.2123 78.4108 68.9875 78.4721 68.8648 78.5948C68.7422 78.697 68.6604 78.8401 68.3334 78.9014C68.0063 78.9627 67.3931 78.9627 67.0456 78.9627C66.6981 78.9627 66.5959 79.024 66.5141 78.9627C66.4528 78.9218 66.4119 78.8196 66.3301 78.7992C66.2483 78.7787 66.1461 78.7992 65.9622 78.4721C65.7782 78.1246 65.492 77.4092 65.308 77.0821C65.1241 76.7551 65.0014 76.7959 64.8788 77.3479C64.7561 77.8998 64.5722 79.024 64.1429 79.9234C63.7136 80.8433 63.0391 81.5383 62.3236 82.0289C61.6082 82.5195 60.8927 82.7852 60.7497 83.0509C60.627 83.3167 61.0972 83.6233 61.8126 84.4001C62.5281 85.1768 63.4888 86.4646 63.9794 87.0983C64.3064 87.5207 64.4904 87.6298 64.5313 87.4254L64.5722 87.4662Z" fill="#4F5153" stroke="#4F5153" stroke-width="0.37" stroke-miterlimit="11.34" stroke-linecap="round"/>
<path fill-rule="evenodd" clip-rule="evenodd" d="M101.06 162.915C101.489 162.526 102.347 161.729 102.94 160.625C103.533 159.522 103.84 158.111 103.942 157.437C104.044 156.762 103.962 156.844 103.819 156.987C103.656 157.13 103.431 157.355 103.145 157.518C102.859 157.702 102.552 157.845 102.123 158.172C101.693 158.5 101.141 159.011 100.712 159.399C100.283 159.787 99.9558 160.073 99.5675 160.298C99.1791 160.523 98.6885 160.666 98.1774 160.993C97.6664 161.32 97.1145 161.831 96.8897 162.097C96.6444 162.383 96.7261 162.445 96.7466 162.649C96.7466 162.874 96.6852 163.221 96.7057 163.467C96.7466 163.712 96.9101 163.835 97.5847 163.794C98.2592 163.753 99.4448 163.508 100.038 163.405C100.433 163.324 100.773 163.153 101.06 162.894V162.915Z" fill="#4F5153" stroke="#4F5153" stroke-width="0.37" stroke-miterlimit="11.34" stroke-linecap="round"/>
<path fill-rule="evenodd" clip-rule="evenodd" d="M112.139 46.1955C111.464 46.0933 110.115 45.8684 109.42 45.8275C108.746 45.7662 108.746 45.8889 108.337 46.0933C107.948 46.2977 107.151 46.6248 106.701 46.8905C106.252 47.1562 106.129 47.3811 106.129 47.4833C106.129 47.5855 106.252 47.5855 106.293 47.6468C106.354 47.7081 106.354 47.8103 106.865 47.9739C107.376 48.1374 108.398 48.3418 109.257 48.6076C110.115 48.8733 110.79 49.2004 111.178 49.3639C111.566 49.5274 111.689 49.5274 111.853 49.7931C112.016 50.0589 112.241 50.6108 112.466 50.9787C112.691 51.3467 112.916 51.5715 113.038 51.7351C113.14 51.8986 113.14 52.0008 113.713 52.0417C114.285 52.0826 115.409 52.0826 116.145 51.8782C116.881 51.6737 117.208 51.2445 116.881 50.386C116.554 49.5274 115.532 48.2601 114.735 47.5037C113.938 46.7474 113.386 46.543 113.1 46.4204C112.909 46.3522 112.589 46.2773 112.139 46.1955Z" fill="#4F5153" stroke="#4F5153" stroke-width="0.37" stroke-miterlimit="11.34" stroke-linecap="round"/>
<path fill-rule="evenodd" clip-rule="evenodd" d="M141.452 66.6981C140.777 66.5959 139.428 66.3711 138.733 66.3302C138.058 66.2688 138.058 66.3915 137.649 66.5959C137.261 66.8003 136.464 67.1274 136.014 67.3931C135.564 67.6588 135.442 67.8837 135.442 67.9859C135.442 68.0881 135.564 68.0881 135.605 68.1494C135.667 68.2108 135.667 68.3129 136.178 68.4765C136.689 68.64 137.711 68.8444 138.569 69.1101C139.428 69.3759 140.102 69.703 140.491 69.8665C140.879 70.03 141.002 70.03 141.165 70.2957C141.329 70.5615 141.554 71.1134 141.779 71.4813C142.003 71.8493 142.228 72.0742 142.351 72.2377C142.453 72.4012 142.453 72.5034 143.026 72.5443C143.598 72.5852 144.722 72.5852 145.458 72.3808C146.194 72.1763 146.521 71.7471 146.194 70.8886C145.867 70.03 144.845 68.7627 144.048 68.0063C143.25 67.25 142.698 67.0456 142.412 66.923C142.221 66.8548 141.901 66.7799 141.452 66.6981Z" fill="#4F5153" stroke="#4F5153" stroke-width="0.37" stroke-miterlimit="11.34" stroke-linecap="round"/>
<path fill-rule="evenodd" clip-rule="evenodd" d="M136.3 64.0407C136.525 63.4275 136.954 62.1602 137.118 61.5265C137.282 60.8928 137.179 60.8723 137.016 60.4635C136.873 60.0547 136.668 59.2575 136.443 58.7874C136.239 58.3172 136.035 58.1741 135.932 58.1537C135.83 58.1537 135.81 58.2559 135.748 58.2968C135.687 58.3376 135.564 58.3172 135.319 58.7874C135.074 59.2575 134.685 60.1774 134.277 60.9541C133.868 61.7104 133.418 62.3032 133.214 62.6507C132.989 62.9982 132.968 63.1005 132.662 63.2231C132.355 63.3457 131.762 63.4684 131.354 63.6319C130.924 63.7954 130.679 63.9794 130.495 64.0407C130.311 64.1225 130.209 64.1021 130.066 64.6335C129.923 65.165 129.739 66.2484 129.841 66.9638C129.943 67.6793 130.332 68.0881 131.251 67.9041C132.171 67.7201 133.663 66.9638 134.563 66.3302C135.462 65.6965 135.769 65.2059 135.932 64.9402C136.096 64.6744 136.096 64.6949 136.3 64.0612V64.0407Z" fill="#4F5153" stroke="#4F5153" stroke-width="0.37" stroke-miterlimit="11.34" stroke-linecap="round"/>
<path fill-rule="evenodd" clip-rule="evenodd" d="M182.191 62.3032C182.129 61.69 182.027 60.4226 181.905 59.8094C181.782 59.1961 181.7 59.2166 181.414 58.91C181.148 58.6033 180.678 57.9901 180.331 57.6426C179.983 57.2951 179.758 57.2542 179.677 57.2951C179.574 57.3155 179.615 57.4178 179.574 57.4791C179.533 57.5404 179.431 57.5608 179.411 58.0514C179.39 58.542 179.411 59.5028 179.37 60.3204C179.309 61.1381 179.186 61.8126 179.125 62.201C179.063 62.5894 179.104 62.6916 178.879 62.896C178.675 63.1208 178.246 63.4479 177.96 63.7341C177.673 64.0203 177.53 64.286 177.408 64.4086C177.285 64.5517 177.183 64.5722 177.285 65.0832C177.367 65.5942 177.632 66.6163 177.98 67.2091C178.327 67.8019 178.798 68.0063 179.493 67.4953C180.188 66.9842 181.107 65.7782 181.598 64.8992C182.089 64.0202 182.17 63.4683 182.191 63.1822C182.218 62.9914 182.211 62.6916 182.17 62.2827L182.191 62.3032Z" fill="#4F5153" stroke="#4F5153" stroke-width="0.37" stroke-miterlimit="11.34" stroke-linecap="round"/>
<path fill-rule="evenodd" clip-rule="evenodd" d="M57.2133 181.291C56.6614 181.537 55.5575 182.027 55.0056 182.457C54.4537 182.886 54.4537 183.254 54.2493 183.438C54.0449 183.622 53.6565 183.622 53.4521 183.683C53.2477 183.744 53.2477 183.867 53.2068 183.867C53.1659 183.867 53.0637 183.744 52.8184 183.683C52.5731 183.622 52.1643 183.622 51.8168 183.499C51.4693 183.376 51.1627 183.131 50.9583 183.131C50.7539 183.131 50.6516 183.376 50.6516 183.683C50.6516 183.99 50.7539 184.358 50.7947 184.664C50.8356 184.971 50.8356 185.216 51.3466 185.4C51.8577 185.584 52.8593 185.707 53.4112 185.707C53.9631 185.707 54.0653 185.584 54.372 185.768C54.6786 185.952 55.1896 186.443 55.8846 186.872C56.6 187.301 57.4994 187.669 57.99 187.792C58.4806 187.914 58.5828 187.792 58.9508 187.669C59.2983 187.546 59.9115 187.424 60.5043 186.749C61.0971 186.075 61.7103 184.848 61.8739 184.01C62.0374 183.152 61.7308 182.661 61.5672 182.354C61.4037 182.048 61.4037 181.925 61.3628 181.864C61.322 181.802 61.2198 181.802 60.6065 181.68C60.0137 181.557 58.8895 181.312 58.3376 181.189C57.9696 181.107 57.6017 181.148 57.2337 181.312L57.2133 181.291Z" fill="#4F5153" stroke="#4F5153" stroke-width="0.37" stroke-miterlimit="11.34" stroke-linecap="round"/>
<path fill-rule="evenodd" clip-rule="evenodd" d="M63.4275 128.349C64.0612 128.349 65.3081 128.349 66.0848 128.287C66.882 128.226 67.2091 128.144 67.5566 128.144C67.9041 128.144 68.2312 128.247 68.64 128.287C69.0284 128.328 69.4781 128.328 69.6621 128.431C69.8256 128.533 69.7234 128.737 69.6621 128.982C69.6007 129.228 69.6007 129.534 69.5598 129.677C69.4985 129.821 69.3963 129.821 69.2737 130.27C69.151 130.72 69.0488 131.599 68.2516 131.987C67.4748 132.376 66.0031 132.273 65.2059 132.273C64.4087 132.273 64.286 132.376 64.0203 132.417C63.7341 132.478 63.2844 132.478 62.7121 132.56C62.1397 132.662 61.4651 132.846 61.4038 132.662C61.3425 132.457 61.9148 131.865 62.2419 131.088C62.5894 130.311 62.6916 129.31 62.7529 128.819C62.7938 128.492 63.0187 128.328 63.4275 128.328V128.349Z" fill="#4F5153" stroke="#4F5153" stroke-width="0.37" stroke-miterlimit="11.34" stroke-linecap="round"/>
<path fill-rule="evenodd" clip-rule="evenodd" d="M43.6199 122.155C43.5177 122.748 43.3133 123.933 43.252 124.69C43.1702 125.446 43.2315 125.794 43.1702 126.1C43.1089 126.427 42.9454 126.734 42.8432 127.102C42.7205 127.47 42.6592 127.899 42.5161 128.042C42.373 128.185 42.189 128.042 41.9233 127.94C41.6576 127.838 41.351 127.797 41.2079 127.715C41.0648 127.633 41.0852 127.531 40.6151 127.347C40.1449 127.163 39.2251 126.897 38.9389 126.08C38.6527 125.262 38.9798 123.893 39.1024 123.136C39.2251 122.38 39.1433 122.257 39.1229 121.992C39.1229 121.726 39.1842 121.297 39.1842 120.745C39.1842 120.193 39.0615 119.518 39.2864 119.498C39.5113 119.477 40.0427 120.111 40.8399 120.581C41.6167 121.051 42.6592 121.337 43.1907 121.481C43.7221 121.624 43.7221 121.624 43.6199 122.216V122.155Z" fill="#4F5153" stroke="#4F5153" stroke-width="0.37" stroke-miterlimit="11.34" stroke-linecap="round"/>
<path fill-rule="evenodd" clip-rule="evenodd" d="M31.8458 97.7073C31.7436 98.3001 31.5392 99.4857 31.4779 100.242C31.3961 100.998 31.4574 101.346 31.3961 101.653C31.3348 101.98 31.1712 102.286 31.069 102.654C30.9464 103.022 30.8851 103.451 30.742 103.594C30.5989 103.738 30.4149 103.594 30.1492 103.492C29.8834 103.39 29.5768 103.349 29.4337 103.267C29.2907 103.186 29.3111 103.083 28.8409 102.899C28.3708 102.715 27.4509 102.45 27.1648 101.632C26.8786 100.814 27.2056 99.4448 27.3283 98.6885C27.4509 97.9322 27.3692 97.8095 27.3487 97.5438C27.3487 97.2781 27.4101 96.8488 27.3896 96.2969C27.3896 95.745 27.267 95.0704 27.4918 95.05C27.7167 95.0295 28.2482 95.6632 29.0454 96.1334C29.8221 96.6035 30.8646 96.8897 31.3961 97.0328C31.9276 97.1759 31.9276 97.1759 31.8254 97.7687L31.8458 97.7073Z" fill="#4F5153" stroke="#4F5153" stroke-width="0.37" stroke-miterlimit="11.34" stroke-linecap="round"/>
<path fill-rule="evenodd" clip-rule="evenodd" d="M3.47335 84.9724C4.25012 84.8089 5.80366 84.4818 6.68263 84.4818C7.56161 84.4818 7.72514 84.8089 7.80691 85.0746C7.88867 85.3404 7.88865 85.5652 7.84777 85.6674C7.80688 85.7696 7.70467 85.7696 7.68423 85.8923C7.64335 86.0149 7.64337 86.2193 7.60248 86.3215C7.5616 86.4237 7.45939 86.4237 7.37763 86.5464C7.29586 86.669 7.21409 86.8734 7.11188 86.9756C7.03012 87.0778 6.92792 87.0779 6.80528 87.2414C6.68263 87.4049 6.49867 87.732 6.33514 87.9568C6.17161 88.1817 5.98764 88.2839 5.76279 88.5496C5.53793 88.8154 5.29262 89.2651 4.94512 89.3673C4.59762 89.4695 4.16837 89.2446 3.94352 89.1015C3.71867 88.938 3.71866 88.8358 3.67777 88.7745C3.63689 88.7132 3.53468 88.7131 3.51424 88.6723C3.47336 88.6109 3.47337 88.5087 3.43249 88.4474C3.39161 88.3861 3.28939 88.3861 3.16674 87.8546C3.0441 87.3232 2.86012 86.2193 2.77836 85.6878C2.72385 85.3199 2.95551 85.0814 3.47335 84.9724Z" fill="#4F5153" stroke="#4F5153" stroke-width="0.37" stroke-miterlimit="11.34" stroke-linecap="round"/>
<path fill-rule="evenodd" clip-rule="evenodd" d="M144.232 118.251C143.209 118.108 141.186 117.801 140.041 117.801C138.896 117.801 138.671 118.087 138.569 118.353C138.447 118.598 138.447 118.803 138.508 118.905C138.569 119.007 138.692 119.007 138.733 119.109C138.794 119.212 138.794 119.416 138.855 119.498C138.917 119.6 139.039 119.6 139.142 119.702C139.244 119.804 139.367 120.009 139.489 120.09C139.612 120.193 139.714 120.193 139.878 120.336C140.041 120.479 140.266 120.786 140.491 120.969C140.716 121.153 140.941 121.256 141.227 121.521C141.513 121.767 141.84 122.155 142.29 122.257C142.739 122.359 143.312 122.155 143.577 122.012C143.843 121.869 143.864 121.767 143.925 121.726C143.986 121.664 144.109 121.664 144.15 121.624C144.211 121.583 144.211 121.481 144.272 121.419C144.334 121.358 144.456 121.358 144.62 120.867C144.783 120.377 145.008 119.395 145.131 118.905C145.213 118.578 144.913 118.367 144.232 118.271V118.251Z" fill="#4F5153" stroke="#4F5153" stroke-width="0.37" stroke-miterlimit="11.34" stroke-linecap="round"/>
<path fill-rule="evenodd" clip-rule="evenodd" d="M143.864 127.224C143.7 127.511 143.353 128.083 143.005 128.41C142.658 128.717 142.29 128.758 141.452 127.879C140.613 127 139.264 125.221 138.631 124.322C137.997 123.443 138.099 123.422 138.099 123.157C138.099 122.87 137.997 122.339 138.426 122.298C138.856 122.257 139.857 122.707 140.573 123.177C141.308 123.647 141.758 124.158 142.29 124.792C142.821 125.426 143.414 126.182 143.721 126.57C144.027 126.959 144.027 126.959 143.864 127.245V127.224Z" fill="#4F5153" stroke="#4F5153" stroke-width="0.37" stroke-miterlimit="11.34" stroke-linecap="round"/>
<path fill-rule="evenodd" clip-rule="evenodd" d="M193.74 74.1999C193.352 74.6292 192.595 75.4877 192.105 76.0192C191.614 76.5507 191.389 76.7755 191.287 77.1026C191.185 77.4296 191.185 77.8589 191.185 78.1859C191.185 78.513 191.185 78.7174 191.471 78.8196C191.757 78.9218 192.289 78.9218 193.372 78.8196C194.456 78.7174 196.091 78.4926 197.113 78.1246C198.135 77.7567 198.585 77.2252 198.789 76.4689C199.014 75.733 199.014 74.7518 198.953 74.2817C198.891 73.7911 198.789 73.7911 198.687 73.6889C198.585 73.5867 198.462 73.3823 197.706 73.3618C196.949 73.3618 195.539 73.5662 194.824 73.6685C194.347 73.7366 193.985 73.9137 193.74 74.1999Z" fill="#4F5153" stroke="#4F5153" stroke-width="0.37" stroke-miterlimit="11.34" stroke-linecap="round"/>
<path fill-rule="evenodd" clip-rule="evenodd" d="M174.832 88.8154C173.83 88.6518 171.827 88.3248 170.723 88.3248C169.62 88.3248 169.374 88.6518 169.272 88.9175C169.17 89.1833 169.17 89.4082 169.211 89.5104C169.272 89.6126 169.374 89.6125 169.436 89.7148C169.497 89.817 169.497 90.0418 169.538 90.144C169.599 90.2462 169.701 90.2462 169.824 90.3689C169.926 90.4915 170.049 90.6959 170.151 90.7981C170.274 90.9003 170.376 90.9004 170.539 91.0639C170.703 91.2274 170.928 91.5545 171.153 91.7589C171.377 91.9633 171.602 92.086 171.868 92.3517C172.134 92.6174 172.481 93.0467 172.911 93.1489C173.36 93.2511 173.912 93.0262 174.178 92.8831C174.444 92.7196 174.444 92.6174 174.505 92.5561C174.566 92.4948 174.668 92.4948 174.73 92.4539C174.791 92.413 174.791 92.2904 174.832 92.2495C174.893 92.1882 174.996 92.1882 175.159 91.6567C175.323 91.1252 175.547 90.0623 175.65 89.5104C175.718 89.156 175.425 88.9244 174.771 88.8154H174.832Z" fill="#4F5153" stroke="#4F5153" stroke-width="0.37" stroke-miterlimit="11.34" stroke-linecap="round"/>
<path fill-rule="evenodd" clip-rule="evenodd" d="M138.161 70.357C137.138 70.1935 135.115 69.8665 133.97 69.8665C132.825 69.8665 132.601 70.1935 132.498 70.4592C132.396 70.725 132.396 70.9498 132.437 71.052C132.498 71.1543 132.621 71.1542 132.662 71.2564C132.723 71.3586 132.723 71.5835 132.785 71.6857C132.846 71.7879 132.968 71.7879 133.071 71.9106C133.173 72.0332 133.296 72.2376 133.418 72.3398C133.541 72.442 133.643 72.442 133.807 72.6056C133.97 72.7691 134.195 73.0962 134.42 73.3006C134.645 73.505 134.87 73.6276 135.156 73.8934C135.442 74.1591 135.769 74.5884 136.219 74.6906C136.668 74.7928 137.241 74.5679 137.506 74.4248C137.793 74.2613 137.793 74.1591 137.854 74.0978C137.915 74.0364 138.038 74.0365 138.079 73.9956C138.14 73.9547 138.14 73.832 138.201 73.7912C138.263 73.7298 138.385 73.7298 138.549 73.1984C138.712 72.6669 138.937 71.604 139.06 71.052C139.142 70.6977 138.842 70.466 138.161 70.357Z" fill="#4F5153" stroke="#4F5153" stroke-width="0.37" stroke-miterlimit="11.34" stroke-linecap="round"/>
<path fill-rule="evenodd" clip-rule="evenodd" d="M68.2107 59.8502C68.3333 60.075 68.5582 60.5043 68.5582 60.5043C68.5582 60.5043 68.3333 60.075 68.7217 60.1772C69.1305 60.2795 70.1321 60.9336 70.9907 61.3424C71.8492 61.7717 72.5238 61.9761 73.0348 62.0783C73.5458 62.1805 73.8729 62.1805 74.1182 62.2418C74.3635 62.3032 74.4657 62.4053 74.7314 62.4462C75.0176 62.4871 75.4673 62.4871 75.8148 62.5484C76.1623 62.6098 76.3871 62.712 76.8368 62.8142C77.2866 62.9164 77.9611 63.0186 78.0838 63.1412C78.2064 63.2639 77.7363 63.3456 77.5114 63.4683C77.2866 63.5909 77.2866 63.6932 77.123 63.8362C76.9595 63.9998 76.612 64.2042 76.4485 64.3677C76.285 64.5312 76.285 64.6334 76.2236 64.6948C76.1623 64.7357 76.0601 64.7357 75.9988 64.8583C75.9375 64.9605 75.9375 65.1854 75.7739 65.3898C75.6104 65.5942 75.2629 65.819 75.0994 66.0234C74.9358 66.2483 74.9358 66.4527 74.8745 66.5549C74.8132 66.6571 74.711 66.6571 74.6497 66.7593C74.5883 66.8615 74.5883 67.0864 74.3635 66.882C74.1386 66.6775 73.6889 66.0234 72.6055 65.2671C71.5426 64.5108 69.8255 63.6522 68.9874 62.6915C68.1493 61.7308 68.1289 60.6678 68.1289 60.1159C68.1289 59.564 68.1289 59.5844 68.2515 59.7889L68.2107 59.8502Z" fill="#4F5153" stroke="#4F5153" stroke-width="0.37" stroke-miterlimit="11.34" stroke-linecap="round"/>
<path fill-rule="evenodd" clip-rule="evenodd" d="M124.383 27.0013C124.955 26.1836 126.08 24.5688 126.55 23.5876C127.02 22.6064 126.816 22.2589 126.632 22.0545C126.427 21.8501 126.243 21.7479 126.121 21.7479C125.998 21.7479 125.957 21.8501 125.834 21.8501C125.712 21.8501 125.528 21.7479 125.405 21.7683C125.283 21.7683 125.242 21.8705 125.099 21.9318C124.955 21.9727 124.71 21.9932 124.567 22.034C124.424 22.0954 124.383 22.1976 124.158 22.2589C123.933 22.3407 123.545 22.3815 123.279 22.5042C122.993 22.6064 122.809 22.7699 122.441 22.8926C122.073 23.0152 121.562 23.1379 121.276 23.4854C120.99 23.8329 120.949 24.4257 120.99 24.7323C121.01 25.0389 121.113 25.0798 121.133 25.1615C121.153 25.2433 121.133 25.3455 121.133 25.4068C121.153 25.4682 121.256 25.509 121.276 25.5908C121.297 25.6726 121.276 25.7748 121.664 26.1427C122.073 26.5107 122.952 27.1648 123.382 27.4918C123.668 27.7099 124.002 27.5532 124.383 27.0217V27.0013Z" fill="#4F5153" stroke="#4F5153" stroke-width="0.37" stroke-miterlimit="11.34" stroke-linecap="round"/>
<path fill-rule="evenodd" clip-rule="evenodd" d="M94.9682 47.2176C93.9462 47.054 91.9225 46.7474 90.7778 46.7474C89.6331 46.7474 89.4082 47.0745 89.306 47.3402C89.2038 47.606 89.2038 47.8308 89.2447 47.933C89.306 48.0352 89.4287 48.0352 89.4695 48.1374C89.5309 48.2396 89.5309 48.4645 89.5922 48.5667C89.6535 48.6689 89.7762 48.6689 89.8784 48.7916C89.9806 48.9142 90.1032 49.1186 90.2259 49.2208C90.3485 49.323 90.4507 49.323 90.6142 49.4866C90.7778 49.6501 91.0026 49.9771 91.2275 50.1815C91.4523 50.386 91.6772 50.5086 91.9634 50.7744C92.2496 51.0401 92.5766 51.4694 93.0263 51.5716C93.476 51.6738 94.0484 51.4489 94.3141 51.3058C94.6003 51.1423 94.6003 51.0401 94.6616 50.9788C94.7229 50.9174 94.8456 50.9174 94.8865 50.8765C94.9478 50.8357 94.9478 50.713 95.0091 50.6721C95.0704 50.6108 95.1931 50.6108 95.3566 50.0793C95.5202 49.5479 95.745 48.4849 95.8677 47.933C95.9494 47.5787 95.6496 47.347 94.9682 47.238V47.2176Z" fill="#4F5153" stroke="#4F5153" stroke-width="0.37" stroke-miterlimit="11.34" stroke-linecap="round"/>
<path fill-rule="evenodd" clip-rule="evenodd" d="M118.292 158.97C117.27 158.806 115.246 158.479 114.101 158.479C112.956 158.479 112.732 158.806 112.629 159.072C112.527 159.338 112.527 159.562 112.568 159.665C112.629 159.767 112.752 159.767 112.793 159.869C112.854 159.971 112.854 160.196 112.916 160.298C112.977 160.4 113.1 160.4 113.202 160.523C113.304 160.646 113.427 160.85 113.549 160.952C113.672 161.055 113.774 161.055 113.938 161.218C114.101 161.382 114.326 161.709 114.571 161.913C114.796 162.118 115.021 162.24 115.307 162.506C115.593 162.772 115.92 163.201 116.37 163.303C116.82 163.405 117.392 163.181 117.658 163.037C117.944 162.874 117.944 162.772 118.005 162.71C118.067 162.649 118.189 162.649 118.23 162.608C118.292 162.567 118.292 162.445 118.353 162.404C118.414 162.342 118.537 162.342 118.7 161.811C118.864 161.279 119.089 160.217 119.211 159.665C119.293 159.31 118.993 159.079 118.312 158.97H118.292Z" fill="#4F5153" stroke="#4F5153" stroke-width="0.37" stroke-miterlimit="11.34" stroke-linecap="round"/>
<path fill-rule="evenodd" clip-rule="evenodd" d="M152.101 153.757C151.079 153.594 149.056 153.267 147.911 153.267C146.766 153.267 146.541 153.594 146.439 153.859C146.337 154.125 146.337 154.35 146.378 154.452C146.439 154.554 146.562 154.554 146.603 154.657C146.664 154.759 146.664 154.984 146.725 155.086C146.787 155.188 146.909 155.188 147.012 155.311C147.114 155.433 147.236 155.638 147.359 155.74C147.482 155.842 147.584 155.842 147.747 156.006C147.911 156.169 148.136 156.496 148.361 156.701C148.586 156.905 148.81 157.028 149.097 157.293C149.383 157.559 149.71 157.988 150.16 158.091C150.609 158.193 151.182 157.968 151.447 157.825C151.734 157.661 151.733 157.559 151.795 157.498C151.856 157.437 151.979 157.437 152.02 157.396C152.081 157.355 152.081 157.232 152.142 157.191C152.204 157.13 152.326 157.13 152.49 156.598C152.653 156.067 152.878 155.004 153.001 154.452C153.083 154.098 152.783 153.866 152.101 153.757Z" fill="#4F5153" stroke="#4F5153" stroke-width="0.37" stroke-miterlimit="11.34" stroke-linecap="round"/>
<path fill-rule="evenodd" clip-rule="evenodd" d="M80.2506 57.663C79.2285 57.4995 77.2049 57.1724 76.0602 57.1724C74.9155 57.1724 74.6906 57.4995 74.5884 57.7652C74.4862 58.031 74.4862 58.2558 74.5271 58.358C74.5884 58.4602 74.711 58.4602 74.7519 58.5624C74.8132 58.6646 74.8132 58.8895 74.8746 58.9917C74.9359 59.0939 75.0585 59.0939 75.1607 59.2165C75.2629 59.3392 75.3856 59.5436 75.5082 59.6458C75.6309 59.748 75.7331 59.748 75.8966 59.9115C76.0602 60.0751 76.285 60.4022 76.5303 60.6066C76.7552 60.811 76.98 60.9336 77.2662 61.1993C77.5524 61.4651 77.8794 61.8943 78.3291 61.9966C78.7788 62.0988 79.3512 61.8739 79.6169 61.7308C79.9031 61.5673 79.9031 61.4651 79.9644 61.4038C80.0257 61.3424 80.1484 61.3424 80.1893 61.3016C80.2506 61.2607 80.2506 61.138 80.3119 61.0971C80.3733 61.0358 80.4959 61.0358 80.6594 60.5044C80.823 59.9729 81.0478 58.9099 81.1705 58.358C81.2522 58.0037 80.9524 57.772 80.271 57.663H80.2506Z" fill="#4F5153" stroke="#4F5153" stroke-width="0.37" stroke-miterlimit="11.34" stroke-linecap="round"/>
<path fill-rule="evenodd" clip-rule="evenodd" d="M144.906 132.233C143.884 132.089 141.86 131.783 140.716 131.783C139.571 131.783 139.346 132.069 139.244 132.335C139.142 132.6 139.121 132.784 139.183 132.887C139.244 132.989 139.367 132.989 139.407 133.091C139.469 133.193 139.469 133.398 139.53 133.479C139.591 133.582 139.714 133.582 139.816 133.684C139.918 133.786 140.041 133.991 140.164 134.072C140.286 134.174 140.389 134.174 140.552 134.318C140.716 134.461 140.941 134.767 141.165 134.951C141.39 135.135 141.615 135.237 141.901 135.503C142.187 135.748 142.514 136.137 142.964 136.239C143.414 136.341 143.986 136.137 144.252 135.994C144.538 135.851 144.538 135.748 144.599 135.708C144.661 135.646 144.783 135.646 144.824 135.605C144.886 135.564 144.886 135.462 144.947 135.401C145.008 135.34 145.131 135.34 145.294 134.849C145.458 134.358 145.683 133.377 145.805 132.887C145.887 132.56 145.587 132.348 144.906 132.253V132.233Z" fill="#4F5153" stroke="#4F5153" stroke-width="0.37" stroke-miterlimit="11.34" stroke-linecap="round"/>
<path fill-rule="evenodd" clip-rule="evenodd" d="M16.5558 146.357C16.147 147.236 15.3293 149.015 15.0636 150.057C14.7774 151.1 15.0636 151.386 15.2884 151.549C15.5337 151.713 15.7381 151.774 15.8608 151.754C15.9834 151.733 16.0039 151.611 16.1265 151.611C16.2492 151.611 16.4536 151.652 16.5762 151.611C16.6989 151.57 16.7193 151.468 16.8624 151.406C17.0055 151.325 17.2303 151.284 17.3734 151.202C17.5165 151.12 17.537 151.018 17.7414 150.916C17.9458 150.814 18.3137 150.67 18.5794 150.527C18.8452 150.364 19.0087 150.2 19.3358 149.996C19.6628 149.812 20.1739 149.608 20.3783 149.219C20.5827 148.831 20.5214 148.258 20.4396 147.972C20.3578 147.686 20.2556 147.645 20.2147 147.584C20.1739 147.523 20.2147 147.4 20.1739 147.359C20.133 147.318 20.0308 147.277 19.9899 147.195C19.949 147.134 19.9899 147.011 19.4993 146.725C19.0087 146.439 18.0276 145.969 17.5165 145.724C17.1758 145.56 16.876 145.771 16.6171 146.357H16.5558Z" fill="#4F5153" stroke="#4F5153" stroke-width="0.37" stroke-miterlimit="11.34" stroke-linecap="round"/>
<path fill-rule="evenodd" clip-rule="evenodd" d="M68.6604 64.6948C68.1289 63.8159 67.0864 62.0579 66.3505 61.1585C65.6351 60.2795 65.2672 60.2795 65.0014 60.3613C64.7357 60.4226 64.5926 60.5657 64.5517 60.6679C64.5108 60.7701 64.5926 60.8519 64.5517 60.9745C64.5108 61.0767 64.3473 61.1994 64.3269 61.3016C64.286 61.4038 64.3677 61.506 64.3473 61.6491C64.3473 61.7922 64.2451 62.017 64.2655 62.1601C64.2655 62.3032 64.3473 62.4054 64.3269 62.6302C64.3269 62.8551 64.2246 63.223 64.2246 63.5297C64.2246 63.8363 64.286 64.0611 64.2655 64.4495C64.2655 64.8175 64.1633 65.3285 64.3677 65.7373C64.5722 66.1461 65.0832 66.4528 65.3693 66.5958C65.6555 66.7185 65.7373 66.6572 65.8191 66.6776C65.9008 66.6776 65.9621 66.7798 66.0439 66.8003C66.1052 66.8003 66.187 66.7389 66.2688 66.7594C66.3505 66.7594 66.4118 66.8616 66.9024 66.6776C67.393 66.4937 68.2925 66.044 68.7422 65.8191C69.042 65.6692 69.0215 65.3012 68.6808 64.7153L68.6604 64.6948Z" fill="#4F5153" stroke="#4F5153" stroke-width="0.37" stroke-miterlimit="11.34" stroke-linecap="round"/>
<path fill-rule="evenodd" clip-rule="evenodd" d="M21.523 69.6825C20.5418 69.519 18.5999 69.1919 17.4961 69.2123C16.4127 69.2123 16.1878 69.5394 16.0856 69.8052C15.9834 70.0709 15.9834 70.2957 16.0448 70.3979C16.1061 70.5001 16.2083 70.5002 16.2696 70.6024C16.3309 70.7046 16.3309 70.9294 16.3718 71.0316C16.4331 71.1338 16.5353 71.1338 16.6375 71.2565C16.7397 71.3791 16.8624 71.5835 16.9646 71.6857C17.0668 71.7879 17.1895 71.788 17.353 71.9515C17.5165 72.115 17.7414 72.4421 17.9458 72.6465C18.1706 72.8509 18.3751 72.9735 18.6612 73.2393C18.927 73.505 19.254 73.9343 19.6833 74.0365C20.1126 74.1387 20.6645 73.9138 20.9302 73.7708C21.1959 73.6072 21.1959 73.505 21.2573 73.4437C21.3186 73.3824 21.4208 73.3824 21.4821 73.3415C21.5434 73.3006 21.5434 73.1779 21.5843 73.137C21.6456 73.0757 21.7478 73.0757 21.9114 72.5443C22.0749 72.0128 22.2793 70.9498 22.402 70.3979C22.4701 70.0436 22.1839 69.812 21.5434 69.7029L21.523 69.6825Z" fill="#4F5153" stroke="#4F5153" stroke-width="0.37" stroke-miterlimit="11.34" stroke-linecap="round"/>
<path fill-rule="evenodd" clip-rule="evenodd" d="M64.1225 21.7478C63.8363 22.6881 63.2435 24.5891 63.1004 25.6725C62.9573 26.7559 63.2435 27.0216 63.4888 27.1647C63.7341 27.3078 63.959 27.3282 64.0612 27.2873C64.1634 27.2464 64.1838 27.1442 64.3065 27.1034C64.4291 27.0625 64.6335 27.1034 64.7562 27.042C64.8584 27.0011 64.8788 26.899 65.0015 26.7967C65.1241 26.6945 65.349 26.6332 65.4716 26.531C65.5943 26.4288 65.5943 26.3266 65.7987 26.1835C65.9826 26.0404 66.3302 25.8769 66.5754 25.6929C66.8207 25.5089 66.9434 25.3045 67.25 25.0797C67.5566 24.8548 68.0268 24.5891 68.1903 24.1598C68.3538 23.751 68.2107 23.1786 68.0881 22.8925C67.9654 22.6063 67.8632 22.5858 67.8224 22.5245C67.761 22.4632 67.7815 22.3406 67.7406 22.2997C67.6997 22.2383 67.5975 22.2179 67.5362 22.1566C67.4749 22.0953 67.4953 21.9726 67.0047 21.7478C66.4937 21.5229 65.4716 21.155 64.9401 20.971C64.4291 20.787 64.4087 20.787 64.1225 21.7478Z" fill="#4F5153" stroke="#4F5153" stroke-width="0.37" stroke-miterlimit="11.34" stroke-linecap="round"/>
<path fill-rule="evenodd" clip-rule="evenodd" d="M78.4109 51.5716C78.5744 52.3893 78.9219 53.9837 79.0241 54.9444C79.1263 55.9051 79.0241 56.2322 79.3103 56.1709C79.5965 56.1096 80.2711 55.6803 80.7821 55.4145C81.2931 55.1488 81.6406 55.0466 81.8041 54.9444C81.9677 54.8422 81.9677 54.74 82.0903 54.6786C82.213 54.6173 82.4378 54.6173 82.6627 54.5151C82.8875 54.4129 83.1124 54.1881 83.2759 54.0859C83.4599 53.9837 83.5621 53.9837 83.6234 53.9223C83.6847 53.8814 83.6847 53.7588 83.7869 53.5953C83.9096 53.4317 84.1344 53.2069 84.2367 52.9003C84.3593 52.5937 84.3593 52.1644 84.298 51.9395C84.2367 51.7147 84.1344 51.7147 84.0118 51.6125C83.8892 51.5103 83.7869 51.3059 83.2146 51.081C82.6422 50.8562 81.6406 50.6517 80.7208 50.5904C79.8214 50.5291 79.0241 50.6517 78.6153 50.6926C78.3428 50.7335 78.2678 51.0197 78.3905 51.5511L78.4109 51.5716Z" fill="#4F5153" stroke="#4F5153" stroke-width="0.37" stroke-miterlimit="11.34" stroke-linecap="round"/>
<path fill-rule="evenodd" clip-rule="evenodd" d="M135.687 127.367C135.605 127.715 135.421 128.39 135.176 129.207C134.931 130.025 134.583 130.965 134.502 131.435C134.42 131.905 134.583 131.905 135.605 131.599C136.627 131.292 138.508 130.699 139.653 130.188C140.797 129.677 141.227 129.248 141.308 128.941C141.39 128.635 141.145 128.471 140.838 128.308C140.532 128.144 140.205 127.96 139.551 127.879C138.896 127.797 137.977 127.797 137.302 127.674C136.627 127.551 136.198 127.286 135.973 127.163C135.823 127.081 135.721 127.149 135.667 127.367H135.687Z" fill="#4F5153" stroke="#4F5153" stroke-width="0.37" stroke-miterlimit="11.34" stroke-linecap="round"/>
<path fill-rule="evenodd" clip-rule="evenodd" d="M63.9589 133.847C63.5501 134.093 63.3252 134.89 62.9982 135.81C62.6507 136.75 62.201 137.833 62.0988 138.365C61.9966 138.896 62.2214 138.896 63.5705 138.549C64.9196 138.201 67.4135 137.506 68.9465 136.914C70.4796 136.321 71.0316 135.83 71.1542 135.483C71.2768 135.135 70.9293 134.951 70.541 134.747C70.1526 134.542 69.6825 134.358 68.8444 134.256C67.9858 134.154 66.7594 134.154 65.8395 134.011C64.9401 133.868 64.3677 133.561 63.9589 133.827V133.847Z" fill="#4F5153" stroke="#4F5153" stroke-width="0.37" stroke-miterlimit="11.34" stroke-linecap="round"/>
<path fill-rule="evenodd" clip-rule="evenodd" d="M141.717 110.892C141.308 111.137 141.084 111.934 140.757 112.854C140.409 113.795 139.959 114.878 139.857 115.409C139.755 115.941 139.98 115.941 141.329 115.593C142.678 115.246 145.172 114.551 146.705 113.958C148.238 113.365 148.79 112.875 148.913 112.527C149.035 112.18 148.688 111.996 148.299 111.791C147.911 111.587 147.441 111.403 146.603 111.301C145.744 111.199 144.518 111.199 143.598 111.055C142.698 110.912 142.126 110.606 141.717 110.871V110.892Z" fill="#4F5153" stroke="#4F5153" stroke-width="0.37" stroke-miterlimit="11.34" stroke-linecap="round"/>
<path fill-rule="evenodd" clip-rule="evenodd" d="M84.4001 148.626C84.0118 148.34 83.2145 147.747 82.1925 147.4C81.1704 147.052 79.9235 146.95 79.2489 147.298C78.5539 147.645 78.4517 148.442 78.3904 148.974C78.3291 149.526 78.3291 149.812 78.3904 149.955C78.4517 150.098 78.5744 150.098 78.6153 150.343C78.6766 150.589 78.6766 151.079 79.0037 151.284C79.3512 151.468 80.0257 151.386 80.7002 151.325C81.3748 151.284 82.0494 151.284 82.5604 151.182C83.0714 151.079 83.3985 150.875 83.746 150.732C84.0935 150.589 84.4206 150.487 84.5841 150.2C84.7476 149.914 84.7476 149.424 84.7476 149.158C84.7476 148.892 84.7476 148.913 84.3592 148.606L84.4001 148.626Z" fill="#4F5153" stroke="#4F5153" stroke-width="0.37" stroke-miterlimit="11.34" stroke-linecap="round"/>
<path fill-rule="evenodd" clip-rule="evenodd" d="M56.4979 76.6121C56.2117 77.2049 55.6394 78.37 55.9255 79.5556C56.2321 80.7412 57.3973 81.9268 58.2149 82.1925C59.0326 82.4583 59.4619 81.845 59.8502 81.334C60.2386 80.8025 60.5452 80.3733 60.7088 79.9644C60.8723 79.5556 60.8723 79.1672 60.9541 78.8811C61.0154 78.5949 61.1585 78.4313 60.811 77.675C60.4635 76.9391 59.6663 75.6105 59.237 74.9972C58.8077 74.3635 58.7464 74.4657 58.5829 74.4862C58.4398 74.5066 58.1945 74.4862 57.8674 74.7315C57.5404 74.9768 57.1724 75.5083 56.968 75.774C56.8454 75.9512 56.6819 76.2373 56.4775 76.6325L56.4979 76.6121Z" fill="#4F5153" stroke="#4F5153" stroke-width="0.37" stroke-miterlimit="11.34" stroke-linecap="round"/>
<path fill-rule="evenodd" clip-rule="evenodd" d="M129.964 141.165C129.677 141.758 129.085 142.923 129.391 144.109C129.698 145.294 130.904 146.48 131.721 146.746C132.539 147.011 133.009 146.398 133.377 145.887C133.766 145.356 134.093 144.926 134.256 144.518C134.42 144.109 134.42 143.72 134.502 143.434C134.563 143.148 134.706 142.985 134.358 142.228C134.011 141.492 133.193 140.164 132.744 139.55C132.294 138.917 132.233 139.019 132.089 139.039C131.926 139.08 131.681 139.039 131.354 139.285C131.027 139.53 130.638 140.061 130.454 140.327C130.318 140.504 130.154 140.791 129.964 141.186V141.165Z" fill="#4F5153" stroke="#4F5153" stroke-width="0.37" stroke-miterlimit="11.34" stroke-linecap="round"/>
<path fill-rule="evenodd" clip-rule="evenodd" d="M118.578 2.83967C117.597 2.94187 116.288 3.16672 115.471 4.06614C114.653 4.98599 114.326 6.58041 114.551 7.37762C114.776 8.17482 115.532 8.17482 116.186 8.17482C116.84 8.17482 117.372 8.17482 117.821 8.07261C118.251 7.9704 118.578 7.74555 118.843 7.64335C119.109 7.54114 119.334 7.54114 119.763 6.84614C120.193 6.15114 120.847 4.76114 121.113 4.06614C121.399 3.37113 121.276 3.37114 121.174 3.26893C121.072 3.16672 120.949 2.96231 120.581 2.83967C120.193 2.71702 119.559 2.71702 118.578 2.83967Z" fill="#4F5153" stroke="#4F5153" stroke-width="0.37" stroke-miterlimit="11.34" stroke-linecap="round"/>
<path fill-rule="evenodd" clip-rule="evenodd" d="M41.1874 146.419C40.5333 146.521 39.1842 146.705 38.3461 147.563C37.508 148.401 37.1809 149.873 37.4058 150.609C37.6306 151.345 38.4074 151.345 39.082 151.345C39.7565 151.345 40.3084 151.345 40.7377 151.243C41.1874 151.141 41.5145 150.936 41.8006 150.854C42.0868 150.773 42.3117 150.752 42.7409 150.119C43.1702 149.485 43.8448 148.197 44.1309 147.563C44.4171 146.93 44.2945 146.93 44.1923 146.828C44.0696 146.725 43.9674 146.541 43.579 146.439C43.1907 146.337 42.5161 146.337 42.189 146.337C41.862 146.337 41.8415 146.337 41.1874 146.439V146.419Z" fill="#4F5153" stroke="#4F5153" stroke-width="0.37" stroke-miterlimit="11.34" stroke-linecap="round"/>
<path fill-rule="evenodd" clip-rule="evenodd" d="M141.472 74.6906C140.859 74.895 139.612 75.3243 138.978 75.7127C138.344 76.1011 138.344 76.4077 138.14 76.5712C137.915 76.7347 137.465 76.7347 137.241 76.7756C137.016 76.8369 137.016 76.9391 136.954 76.9391C136.893 76.9391 136.791 76.8369 136.505 76.7756C136.219 76.7143 135.769 76.7143 135.38 76.6121C134.992 76.5099 134.645 76.285 134.42 76.285C134.195 76.285 134.072 76.4894 134.072 76.7756C134.072 77.0413 134.195 77.3684 134.236 77.6342C134.297 77.8999 134.297 78.1247 134.869 78.2678C135.442 78.4314 136.566 78.5335 137.179 78.5335C137.793 78.5335 137.915 78.4314 138.263 78.5949C138.61 78.7584 139.183 79.1877 139.959 79.5556C140.757 79.9235 141.779 80.2506 142.33 80.3528C142.882 80.455 143.005 80.3528 143.393 80.2506C143.802 80.1484 144.477 80.0462 145.151 79.4534C145.826 78.8606 146.5 77.7977 146.684 77.0618C146.868 76.3259 146.521 75.8966 146.337 75.6309C146.153 75.3652 146.153 75.263 146.112 75.2016C146.051 75.1403 145.949 75.1403 145.274 75.0381C144.599 74.9359 143.353 74.711 142.719 74.6088C142.296 74.5407 141.881 74.5748 141.472 74.711V74.6906Z" fill="#4F5153" stroke="#4F5153" stroke-width="0.37" stroke-miterlimit="11.34" stroke-linecap="round"/>
<path fill-rule="evenodd" clip-rule="evenodd" d="M79.8009 152.592C80.4345 152.592 81.6814 152.592 82.4582 152.531C83.235 152.469 83.5825 152.388 83.93 152.388C84.2775 152.388 84.6045 152.49 85.0133 152.531C85.4017 152.572 85.8514 152.572 86.0354 152.674C86.1989 152.776 86.0967 152.98 86.0354 153.226C85.9741 153.471 85.9741 153.778 85.9332 153.921C85.8719 154.064 85.7697 154.064 85.647 154.513C85.5244 154.963 85.4222 155.842 84.625 156.231C83.8482 156.619 82.3764 156.517 81.5792 156.517C80.782 156.517 80.6594 156.619 80.3936 156.66C80.1075 156.721 79.6578 156.721 79.0854 156.803C78.5131 156.905 77.8385 157.089 77.7772 156.905C77.7158 156.701 78.2882 156.108 78.6153 155.331C78.9628 154.554 79.065 153.553 79.1263 153.062C79.1672 152.735 79.392 152.572 79.8009 152.572V152.592Z" fill="#4F5153" stroke="#4F5153" stroke-width="0.37" stroke-miterlimit="11.34" stroke-linecap="round"/>
<path fill-rule="evenodd" clip-rule="evenodd" d="M120.172 51.96C120.806 51.96 122.053 51.96 122.83 51.8986C123.627 51.8373 123.954 51.7351 124.301 51.7351C124.649 51.7351 124.976 51.8373 125.385 51.8986C125.773 51.96 126.223 51.96 126.386 52.0622C126.55 52.1644 126.448 52.3893 126.386 52.655C126.325 52.9207 126.325 53.2478 126.284 53.4113C126.223 53.5748 126.121 53.5748 125.998 54.045C125.875 54.5356 125.773 55.4963 124.976 55.9256C124.199 56.3548 122.727 56.2526 121.93 56.2322C121.133 56.2322 121.01 56.3344 120.745 56.3957C120.458 56.4571 120.009 56.457 119.436 56.5592C118.864 56.6614 118.189 56.8863 118.128 56.6614C118.067 56.457 118.639 55.8029 118.966 54.9444C119.314 54.0859 119.416 53.0229 119.477 52.4915C119.518 52.1371 119.743 51.96 120.152 51.96H120.172Z" fill="#4F5153" stroke="#4F5153" stroke-width="0.37" stroke-miterlimit="11.34" stroke-linecap="round"/>
<path fill-rule="evenodd" clip-rule="evenodd" d="M38.7754 77.2457C39.1637 76.796 39.9405 75.8761 40.3902 75.2629C40.8399 74.6496 40.9626 74.343 41.1874 74.0773C41.4123 73.832 41.6985 73.648 41.9846 73.4027C42.2708 73.137 42.557 72.8099 42.741 72.769C42.9249 72.7077 43.0271 72.9326 43.2111 73.1574C43.3951 73.3618 43.6608 73.5662 43.7426 73.7093C43.8448 73.8524 43.763 73.9342 44.0696 74.3225C44.3762 74.7109 45.0917 75.4059 44.9281 76.2645C44.7851 77.1025 43.7834 78.1246 43.2724 78.697C42.7818 79.2898 42.7818 79.4329 42.6592 79.6577C42.5365 79.903 42.2504 80.2301 41.9846 80.7002C41.7189 81.1704 41.4736 81.8245 41.2488 81.7223C41.0443 81.6405 40.8808 80.8024 40.4107 80.0257C39.9405 79.2285 39.1433 78.4721 38.7549 78.0838C38.496 77.8248 38.496 77.5455 38.7549 77.2457H38.7754Z" fill="#4F5153" stroke="#4F5153" stroke-width="0.37" stroke-miterlimit="11.34" stroke-linecap="round"/>
<path fill-rule="evenodd" clip-rule="evenodd" d="M157.621 53.82C157.007 53.82 155.76 53.82 154.452 54.2493C153.144 54.6786 151.795 55.5371 151.161 55.9663C150.548 56.3956 150.65 56.3956 150.875 56.3956C151.1 56.3956 151.447 56.3956 151.774 56.4569C152.122 56.5183 152.449 56.6205 153.021 56.6613C153.594 56.7227 154.37 56.7227 155.004 56.7227C155.638 56.7227 156.087 56.7227 156.537 56.8249C156.987 56.9271 157.437 57.1519 158.07 57.2541C158.704 57.3564 159.481 57.3564 159.869 57.3155C160.257 57.2746 160.257 57.1519 160.421 56.9884C160.584 56.8249 160.932 56.6 161.096 56.3956C161.259 56.1912 161.259 55.9663 160.768 55.5371C160.257 55.1078 159.256 54.4741 158.724 54.1471C158.384 53.929 158.009 53.82 157.6 53.82H157.621Z" fill="#4F5153" stroke="#4F5153" stroke-width="0.37" stroke-miterlimit="11.34" stroke-linecap="round"/>
<path fill-rule="evenodd" clip-rule="evenodd" d="M175.711 111.301C175.261 111.689 174.362 112.507 173.687 113.652C173.033 114.817 172.624 116.309 172.461 117.024C172.297 117.74 172.379 117.658 172.543 117.515C172.706 117.372 172.951 117.147 173.238 116.983C173.524 116.8 173.851 116.677 174.301 116.35C174.75 116.023 175.323 115.512 175.772 115.123C176.222 114.715 176.549 114.428 176.958 114.224C177.367 114.02 177.837 113.876 178.368 113.57C178.9 113.243 179.472 112.732 179.717 112.446C179.963 112.159 179.901 112.078 179.901 111.853C179.901 111.628 180.004 111.24 180.004 110.974C180.004 110.708 179.84 110.545 179.186 110.565C178.532 110.565 177.346 110.749 176.754 110.831C176.358 110.885 176.011 111.049 175.711 111.321V111.301Z" fill="#4F5153" stroke="#4F5153" stroke-width="0.37" stroke-miterlimit="11.34" stroke-linecap="round"/>
<path fill-rule="evenodd" clip-rule="evenodd" d="M167.678 151.161H165.122C164.244 151.161 163.569 151.161 162.894 151.222C162.22 151.284 161.566 151.386 161.28 151.427C160.993 151.488 161.116 151.488 161.157 151.55C161.218 151.611 161.218 151.713 161.259 151.815C161.32 151.917 161.423 152.02 162.036 152.285C162.649 152.551 163.753 152.98 164.591 153.737C165.429 154.493 165.981 155.556 166.431 156.087C166.88 156.619 167.207 156.619 167.432 156.68C167.657 156.742 167.759 156.844 168.434 156.782C169.109 156.721 170.315 156.517 170.989 156.149C171.643 155.781 171.766 155.249 171.827 154.82C171.889 154.391 171.888 154.064 171.275 153.491C170.662 152.899 169.456 152.04 168.822 151.611C168.414 151.325 168.025 151.182 167.657 151.182L167.678 151.161Z" fill="#4F5153" stroke="#4F5153" stroke-width="0.37" stroke-miterlimit="11.34" stroke-linecap="round"/>
<path fill-rule="evenodd" clip-rule="evenodd" d="M145.622 90.9413C145.192 90.5938 144.334 89.8784 143.659 89.306C142.964 88.7337 142.453 88.3248 141.901 87.9365C141.349 87.5481 140.756 87.2006 140.511 87.0779C140.266 86.9348 140.348 87.0166 140.348 87.0779C140.348 87.1392 140.266 87.2415 140.245 87.3641C140.225 87.4867 140.245 87.6298 140.532 88.2226C140.818 88.8154 141.39 89.8375 141.513 90.9413C141.635 92.0451 141.349 93.2103 141.329 93.8849C141.329 94.5799 141.574 94.7843 141.697 94.9682C141.819 95.1522 141.84 95.3157 142.392 95.6837C142.944 96.072 144.027 96.6853 144.804 96.8284C145.56 96.9715 146.01 96.6444 146.357 96.3378C146.684 96.0516 146.909 95.8063 146.848 94.9682C146.787 94.1301 146.419 92.6992 146.235 91.9838C146.051 91.2684 146.051 91.2684 145.622 90.9209V90.9413Z" fill="#4F5153" stroke="#4F5153" stroke-width="0.37" stroke-miterlimit="11.34" stroke-linecap="round"/>
<path fill-rule="evenodd" clip-rule="evenodd" d="M86.7917 46.0933C86.2398 45.7049 85.136 44.9077 84.5636 44.5602C83.9708 44.2127 83.93 44.3149 83.4802 44.3149C83.0305 44.3149 82.172 44.2536 81.6406 44.2944C81.1091 44.3353 80.9047 44.4784 80.8638 44.5602C80.8229 44.6624 80.9251 44.7033 80.9456 44.785C80.9456 44.8668 80.9047 44.9486 81.2931 45.3165C81.6814 45.6844 82.4787 46.3181 83.0919 46.9518C83.7051 47.5855 84.1548 48.1579 84.441 48.4645C84.7067 48.7711 84.8089 48.8324 84.8294 49.139C84.8294 49.4661 84.7885 50.0384 84.8294 50.4677C84.8703 50.897 84.952 51.1831 84.9725 51.3875C84.9725 51.5715 84.9316 51.6737 85.4222 51.9599C85.9128 52.2665 86.9144 52.7571 87.6503 52.9002C88.4066 53.0433 88.9176 52.798 89.0198 51.8986C89.1425 50.9992 88.8563 49.4047 88.5088 48.3827C88.1613 47.3606 87.7729 46.9314 87.5685 46.7065C87.4322 46.5566 87.1801 46.3522 86.8122 46.0933H86.7917Z" fill="#4F5153" stroke="#4F5153" stroke-width="0.37" stroke-miterlimit="11.34" stroke-linecap="round"/>
<path fill-rule="evenodd" clip-rule="evenodd" d="M138.283 135.299C138.876 135.442 140.062 135.708 140.511 136.403C140.961 137.098 140.695 138.222 140.266 138.815C139.837 139.407 139.264 139.469 138.958 139.469C138.651 139.469 138.631 139.367 138.079 139.06C137.527 138.753 136.505 138.222 135.769 137.915C135.053 137.609 134.645 137.527 134.093 137.465C133.541 137.425 132.825 137.425 132.417 136.995C132.008 136.546 131.885 135.646 131.926 135.115C131.946 134.583 132.13 134.42 132.212 134.297C132.294 134.174 132.253 134.072 132.662 133.909C133.071 133.725 133.929 133.479 134.379 133.398C134.829 133.316 134.869 133.398 135.013 133.479C135.156 133.541 135.401 133.561 135.585 133.725C135.769 133.888 135.871 134.154 136.219 134.42C136.566 134.685 137.138 134.931 137.425 135.053C137.711 135.176 137.711 135.176 138.304 135.299H138.283Z" fill="#4F5153" stroke="#4F5153" stroke-width="0.37" stroke-miterlimit="11.34" stroke-linecap="round"/>
<path fill-rule="evenodd" clip-rule="evenodd" d="M161.688 130.495C161.095 130.618 159.93 130.842 159.194 130.352C158.459 129.861 158.152 128.635 158.254 127.878C158.336 127.122 158.806 126.816 159.072 126.693C159.338 126.57 159.419 126.652 160.033 126.734C160.666 126.816 161.831 126.877 162.608 126.877C163.385 126.877 163.773 126.795 164.284 126.611C164.795 126.427 165.409 126.1 166.001 126.366C166.574 126.632 167.105 127.47 167.351 128.001C167.575 128.533 167.514 128.757 167.494 128.921C167.494 129.085 167.555 129.146 167.289 129.493C167.023 129.841 166.39 130.454 166.042 130.72C165.674 130.986 165.613 130.904 165.449 130.924C165.306 130.924 165.061 131.006 164.836 130.924C164.591 130.842 164.366 130.618 163.937 130.515C163.508 130.413 162.894 130.413 162.588 130.413C162.281 130.413 162.281 130.413 161.688 130.536V130.495Z" fill="#4F5153" stroke="#4F5153" stroke-width="0.37" stroke-miterlimit="11.34" stroke-linecap="round"/>
<path fill-rule="evenodd" clip-rule="evenodd" d="M56.5388 112.384C55.946 112.486 54.7809 112.711 54.045 112.241C53.3091 111.771 53.0025 110.647 53.1047 109.952C53.1864 109.257 53.6566 108.97 53.9223 108.868C54.1881 108.766 54.2698 108.827 54.8831 108.909C55.5167 108.97 56.6819 109.052 57.4587 109.052C58.2354 109.052 58.6238 108.97 59.1348 108.807C59.6459 108.623 60.2591 108.337 60.8519 108.582C61.4243 108.827 61.9557 109.604 62.201 110.095C62.4259 110.585 62.3645 110.79 62.3441 110.933C62.3441 111.076 62.4054 111.137 62.1397 111.464C61.874 111.791 61.2403 112.343 60.8928 112.589C60.5248 112.834 60.4635 112.773 60.3 112.773C60.1569 112.773 59.9116 112.854 59.6867 112.773C59.4414 112.691 59.2166 112.486 58.7873 112.384C58.3581 112.282 57.7448 112.282 57.4382 112.282C57.1316 112.282 57.1316 112.282 56.5388 112.384Z" fill="#4F5153" stroke="#4F5153" stroke-width="0.37" stroke-miterlimit="11.34" stroke-linecap="round"/>
<path fill-rule="evenodd" clip-rule="evenodd" d="M79.5555 180.923C79.0445 180.637 78.0429 180.065 77.818 179.206C77.5932 178.348 78.1451 177.203 78.697 176.692C79.2489 176.161 79.7804 176.222 80.0666 176.304C80.3323 176.386 80.3527 176.488 80.7616 176.958C81.1704 177.428 81.988 178.225 82.5604 178.736C83.1327 179.227 83.4802 179.431 83.9708 179.615C84.4614 179.799 85.136 179.963 85.3813 180.535C85.647 181.107 85.5039 182.109 85.3404 182.661C85.1769 183.213 84.9725 183.356 84.8703 183.458C84.768 183.581 84.768 183.683 84.3592 183.765C83.9504 183.867 83.0919 183.928 82.6422 183.908C82.2129 183.887 82.1925 183.765 82.0902 183.683C81.988 183.581 81.7632 183.499 81.6201 183.274C81.4975 183.07 81.477 182.743 81.2317 182.375C80.9864 182.027 80.5367 181.618 80.2914 181.414C80.0666 181.21 80.0666 181.21 79.5555 180.923Z" fill="#4F5153" stroke="#4F5153" stroke-width="0.37" stroke-miterlimit="11.34" stroke-linecap="round"/>
<path fill-rule="evenodd" clip-rule="evenodd" d="M28.4321 35.3207C27.6145 35.9544 25.9792 37.2422 25.182 37.9985C24.3643 38.7549 24.3643 38.9593 24.6914 39.0615C25.0184 39.1637 25.6726 39.1637 27.2465 39.1024C28.8205 39.041 31.3144 38.9388 32.5613 38.7344C33.8082 38.53 33.8082 38.2029 33.8082 37.835C33.8082 37.4671 33.8082 37.0378 33.3789 36.445C32.9496 35.8522 32.0707 35.1163 31.3144 34.7893C30.558 34.4622 29.9039 34.5644 29.5768 34.6257C29.3588 34.6666 28.9772 34.8983 28.4321 35.3207Z" fill="#4F5153" stroke="#4F5153" stroke-width="0.37" stroke-miterlimit="11.34" stroke-linecap="round"/>
<path fill-rule="evenodd" clip-rule="evenodd" d="M121.378 189.775C120.785 189.713 119.6 189.611 118.884 189.57C118.169 189.509 117.965 189.509 117.801 189.631C117.638 189.734 117.515 189.959 117.413 190.061C117.31 190.163 117.208 190.163 117.208 190.224C117.208 190.286 117.31 190.388 117.372 190.49C117.433 190.592 117.433 190.694 117.76 190.817C118.087 190.919 118.741 191.021 119.232 191.185C119.723 191.348 120.05 191.553 120.315 191.676C120.581 191.778 120.806 191.778 120.908 191.839C121.01 191.9 121.01 192.003 121.072 192.044C121.133 192.084 121.235 192.084 121.399 192.248C121.562 192.411 121.787 192.739 121.992 192.943C122.216 193.147 122.421 193.27 122.584 193.474C122.748 193.699 122.85 194.006 122.973 194.169C123.075 194.333 123.198 194.333 123.238 194.435C123.279 194.537 123.279 194.762 123.402 194.926C123.525 195.089 123.729 195.191 123.831 195.294C123.933 195.396 123.933 195.519 123.995 195.559C124.056 195.6 124.158 195.6 124.322 195.723C124.485 195.825 124.71 196.05 124.915 196.152C125.119 196.254 125.344 196.254 125.446 196.316C125.548 196.377 125.548 196.479 125.773 196.52C125.998 196.561 126.427 196.561 126.652 196.622C126.857 196.684 126.857 196.786 127.143 196.827C127.429 196.868 127.96 196.868 127.96 196.561C127.96 196.254 127.408 195.6 126.979 194.149C126.55 192.698 126.223 190.449 125.794 189.325C125.364 188.201 124.812 188.201 124.158 188.466C123.504 188.732 122.748 189.264 122.359 189.529C122.101 189.706 121.773 189.781 121.378 189.754V189.775Z" fill="#4F5153" stroke="#4F5153" stroke-width="0.37" stroke-miterlimit="11.34" stroke-linecap="round"/>
<path fill-rule="evenodd" clip-rule="evenodd" d="M106.374 156.353C106.15 156.701 105.7 157.396 105.475 157.927C105.25 158.479 105.25 158.867 106.047 159.256C106.845 159.644 108.439 160.033 109.216 160.196C109.993 160.36 109.993 160.257 110.238 160.094C110.463 159.951 110.912 159.746 110.912 159.256C110.912 158.765 110.463 157.988 110.013 157.477C109.563 156.987 109.114 156.782 108.541 156.578C107.969 156.374 107.294 156.19 106.947 156.087C106.715 156.019 106.524 156.101 106.374 156.333V156.353Z" fill="#4F5153" stroke="#4F5153" stroke-width="0.37" stroke-miterlimit="11.34" stroke-linecap="round"/>
<path fill-rule="evenodd" clip-rule="evenodd" d="M125.446 59.0122C125.221 59.3802 124.772 60.1365 124.547 60.7293C124.322 61.3221 124.322 61.7513 125.119 62.1806C125.916 62.6098 127.511 63.0391 128.287 63.2026C129.064 63.3662 129.064 63.264 129.309 63.1005C129.534 62.9369 129.984 62.7121 129.984 62.201C129.984 61.6696 129.534 60.811 129.085 60.2796C128.635 59.7481 128.185 59.5232 127.613 59.3188C127.04 59.094 126.366 58.8896 126.018 58.7874C125.787 58.7192 125.596 58.8078 125.446 59.0531V59.0122Z" fill="#4F5153" stroke="#4F5153" stroke-width="0.37" stroke-miterlimit="11.34" stroke-linecap="round"/>
<path fill-rule="evenodd" clip-rule="evenodd" d="M189.08 141.84C188.691 142.024 187.894 142.412 187.383 142.78C186.872 143.148 186.627 143.516 187.015 144.272C187.403 145.049 188.425 146.235 188.957 146.787C189.488 147.339 189.55 147.257 189.836 147.236C190.122 147.236 190.592 147.277 190.899 146.848C191.205 146.419 191.328 145.458 191.267 144.783C191.205 144.109 190.981 143.68 190.653 143.209C190.326 142.739 189.897 142.187 189.693 141.922C189.556 141.745 189.352 141.717 189.08 141.84Z" fill="#4F5153" stroke="#4F5153" stroke-width="0.37" stroke-miterlimit="11.34" stroke-linecap="round"/>
<path fill-rule="evenodd" clip-rule="evenodd" d="M97.0941 159.215C96.8693 158.847 96.4196 158.091 96.0107 157.6C95.6019 157.109 95.234 156.905 94.4776 157.355C93.7418 157.805 92.6379 158.929 92.1269 159.501C91.6159 160.073 91.7181 160.135 91.759 160.401C91.7998 160.666 91.7589 161.157 92.2291 161.423C92.6992 161.688 93.6395 161.729 94.3141 161.627C94.9887 161.525 95.3975 161.259 95.8472 160.891C96.2969 160.523 96.8079 160.073 97.0532 159.828C97.2304 159.678 97.244 159.474 97.0941 159.215Z" fill="#4F5153" stroke="#4F5153" stroke-width="0.37" stroke-miterlimit="11.34" stroke-linecap="round"/>
<path fill-rule="evenodd" clip-rule="evenodd" d="M146.194 84.0117C145.785 84.1957 144.967 84.5841 144.436 84.952C143.904 85.3199 143.639 85.6879 144.048 86.4442C144.456 87.221 145.519 88.4066 146.071 88.9585C146.623 89.5104 146.684 89.4286 146.971 89.4082C147.257 89.3878 147.768 89.4491 148.074 89.0198C148.381 88.5906 148.524 87.6298 148.463 86.9553C148.401 86.2807 148.156 85.8514 147.809 85.3813C147.461 84.9111 147.032 84.3592 146.807 84.0935C146.657 83.9163 146.446 83.8891 146.173 84.0117H146.194Z" fill="#4F5153" stroke="#4F5153" stroke-width="0.37" stroke-miterlimit="11.34" stroke-linecap="round"/>
<path fill-rule="evenodd" clip-rule="evenodd" d="M98.2592 44.4988C98.0344 44.8668 97.5847 45.6231 97.3598 46.2159C97.135 46.8087 97.135 47.238 97.9322 47.6672C98.7294 48.0965 100.324 48.5258 101.101 48.6893C101.877 48.8528 101.877 48.7506 102.123 48.5871C102.347 48.4236 102.797 48.1987 102.797 47.6877C102.797 47.1562 102.347 46.2977 101.898 45.7662C101.448 45.2347 100.998 45.0099 100.426 44.8054C99.8537 44.5806 99.1791 44.3762 98.8316 44.274C98.5999 44.2059 98.4092 44.2944 98.2592 44.5397V44.4988Z" fill="#4F5153" stroke="#4F5153" stroke-width="0.37" stroke-miterlimit="11.34" stroke-linecap="round"/>
<path fill-rule="evenodd" clip-rule="evenodd" d="M137.302 83.7052C137.465 84.114 137.813 84.9112 138.16 85.4427C138.508 85.9741 138.855 86.2399 139.714 85.9128C140.552 85.5857 141.901 84.6863 142.535 84.1957C143.169 83.7256 143.066 83.6438 143.066 83.3781C143.066 83.1124 143.169 82.6422 142.739 82.3152C142.31 81.9881 141.308 81.7837 140.593 81.7837C139.878 81.7837 139.407 81.9881 138.876 82.2743C138.344 82.5604 137.752 82.9284 137.445 83.1124C137.241 83.235 137.193 83.4326 137.302 83.7052Z" fill="#4F5153" stroke="#4F5153" stroke-width="0.37" stroke-miterlimit="11.34" stroke-linecap="round"/>
<path fill-rule="evenodd" clip-rule="evenodd" d="M56.9476 116.37C57.1111 116.738 57.4586 117.474 57.8061 117.965C58.1536 118.455 58.5216 118.7 59.3596 118.394C60.1977 118.087 61.5468 117.249 62.1805 116.82C62.8142 116.37 62.712 116.309 62.712 116.064C62.712 115.818 62.8142 115.389 62.3849 115.082C61.9557 114.776 60.954 114.592 60.2386 114.592C59.5232 114.592 59.053 114.776 58.5215 115.042C57.9901 115.307 57.3973 115.655 57.0907 115.818C56.8863 115.941 56.8385 116.125 56.9476 116.37Z" fill="#4F5153" stroke="#4F5153" stroke-width="0.37" stroke-miterlimit="11.34" stroke-linecap="round"/>
<path fill-rule="evenodd" clip-rule="evenodd" d="M164.53 175.343C164.693 175.752 165.02 176.549 165.347 177.081C165.674 177.612 166.022 177.878 166.84 177.551C167.657 177.224 168.945 176.324 169.538 175.834C170.131 175.364 170.049 175.282 170.049 175.016C170.049 174.75 170.151 174.28 169.742 173.953C169.313 173.626 168.373 173.422 167.678 173.422C166.983 173.422 166.533 173.626 166.042 173.912C165.531 174.198 164.959 174.566 164.673 174.75C164.482 174.873 164.441 175.07 164.55 175.343H164.53Z" fill="#4F5153" stroke="#4F5153" stroke-width="0.37" stroke-miterlimit="11.34" stroke-linecap="round"/>
<path fill-rule="evenodd" clip-rule="evenodd" d="M66.4119 140.225C66.5754 140.593 66.9229 141.329 67.2704 141.819C67.6179 142.31 67.9858 142.555 68.8239 142.249C69.662 141.942 71.0111 141.104 71.6448 140.675C72.2785 140.225 72.1763 140.164 72.1763 139.918C72.1763 139.673 72.2785 139.244 71.8492 138.937C71.42 138.631 70.4183 138.447 69.7029 138.447C68.9875 138.447 68.5173 138.631 67.9858 138.896C67.4543 139.162 66.8616 139.51 66.5549 139.673C66.3505 139.796 66.3028 139.98 66.4119 140.225Z" fill="#4F5153" stroke="#4F5153" stroke-width="0.37" stroke-miterlimit="11.34" stroke-linecap="round"/>
<path fill-rule="evenodd" clip-rule="evenodd" d="M57.5608 104.862C57.7243 105.23 58.0718 105.966 58.4193 106.456C58.7668 106.947 59.1347 107.192 59.9728 106.885C60.8109 106.579 62.1601 105.741 62.7937 105.311C63.4274 104.862 63.3252 104.8 63.3252 104.555C63.3252 104.31 63.4274 103.881 62.9982 103.574C62.5689 103.267 61.5673 103.083 60.8518 103.083C60.1364 103.083 59.6662 103.267 59.1348 103.533C58.6033 103.799 58.0105 104.146 57.7039 104.31C57.4995 104.432 57.4518 104.616 57.5608 104.862Z" fill="#4F5153" stroke="#4F5153" stroke-width="0.37" stroke-miterlimit="11.34" stroke-linecap="round"/>
<path fill-rule="evenodd" clip-rule="evenodd" d="M142.187 44.3967C142.024 44.6829 141.697 45.2552 141.349 45.5823C141.002 45.8889 140.675 45.9298 139.857 45.0508C139.039 44.1718 137.752 42.3935 137.159 41.494C136.566 40.5946 136.648 40.5946 136.648 40.3289C136.648 40.0427 136.546 39.5112 136.975 39.4704C137.384 39.4295 138.344 39.8792 139.039 40.3493C139.734 40.8195 140.184 41.3305 140.695 41.9642C141.206 42.5979 141.779 43.3542 142.065 43.7426C142.351 44.131 142.351 44.131 142.187 44.4171V44.3967Z" fill="#4F5153" stroke="#4F5153" stroke-width="0.37" stroke-miterlimit="11.34" stroke-linecap="round"/>
<path fill-rule="evenodd" clip-rule="evenodd" d="M40.7377 172.338C40.5742 172.624 40.2471 173.197 39.8996 173.524C39.5521 173.83 39.2046 173.871 38.3665 172.992C37.5284 172.113 36.2202 170.335 35.6069 169.435C34.9937 168.536 35.0755 168.536 35.0755 168.27C35.0755 167.984 34.9733 167.453 35.4026 167.412C35.8318 167.371 36.813 167.821 37.508 168.291C38.2234 168.761 38.6731 169.272 39.1842 169.906C39.6952 170.539 40.288 171.296 40.5946 171.684C40.9012 172.072 40.9012 172.072 40.7377 172.359V172.338Z" fill="#4F5153" stroke="#4F5153" stroke-width="0.37" stroke-miterlimit="11.34" stroke-linecap="round"/>
<path fill-rule="evenodd" clip-rule="evenodd" d="M59.4618 123.954C59.1756 123.79 58.5828 123.484 58.2762 123.136C57.9696 122.789 57.9083 122.441 58.7872 121.603C59.6458 120.745 61.4037 119.395 62.2827 118.762C63.1617 118.128 63.1617 118.21 63.4479 118.21C63.734 118.21 64.2655 118.087 64.3064 118.516C64.3677 118.946 63.918 119.927 63.4683 120.642C63.0186 121.358 62.528 121.828 61.8943 122.359C61.2811 122.891 60.5248 123.504 60.1364 123.811C59.748 124.117 59.7684 124.117 59.4618 123.954Z" fill="#4F5153" stroke="#4F5153" stroke-width="0.37" stroke-miterlimit="11.34" stroke-linecap="round"/>
<path fill-rule="evenodd" clip-rule="evenodd" d="M60.7905 124.915C60.9541 125.283 61.3016 126.018 61.6491 126.509C61.9966 127 62.3645 127.245 63.2026 126.938C64.0407 126.632 65.3898 125.794 66.0235 125.364C66.6571 124.915 66.5549 124.853 66.5549 124.608C66.5549 124.363 66.6572 123.933 66.2279 123.627C65.7986 123.32 64.797 123.136 64.0816 123.136C63.3661 123.136 62.8959 123.32 62.3645 123.586C61.833 123.852 61.2402 124.199 60.9336 124.363C60.7292 124.485 60.6815 124.669 60.7905 124.915Z" fill="#4F5153" stroke="#4F5153" stroke-width="0.37" stroke-miterlimit="11.34" stroke-linecap="round"/>
<path fill-rule="evenodd" clip-rule="evenodd" d="M92.2495 202.101C92.8628 201.876 94.1097 201.426 94.7025 201.14C95.2953 200.854 95.2544 200.772 95.4793 200.404C95.7041 200.036 96.2151 199.382 96.4604 198.932C96.7057 198.483 96.7057 198.237 96.6444 198.155C96.5831 198.074 96.5013 198.115 96.4195 198.094C96.3378 198.074 96.2969 197.971 95.7859 198.094C95.2748 198.196 94.3141 198.483 93.476 198.646C92.6379 198.81 91.902 198.85 91.4932 198.891C91.0844 198.932 90.9822 198.994 90.7165 198.83C90.4507 198.666 90.001 198.319 89.6126 198.094C89.2447 197.869 88.9381 197.787 88.7745 197.706C88.611 197.624 88.5497 197.522 88.0591 197.747C87.5481 197.971 86.6078 198.503 86.0967 199.034C85.5857 199.566 85.5244 200.097 86.2194 200.69C86.9144 201.283 88.4066 201.917 89.4287 202.203C90.4507 202.489 91.0435 202.407 91.3297 202.366C91.5205 202.339 91.8271 202.251 92.2495 202.101Z" fill="#4F5153" stroke="#4F5153" stroke-width="0.37" stroke-miterlimit="11.34" stroke-linecap="round"/>
<path fill-rule="evenodd" clip-rule="evenodd" d="M107.376 49.8341C107.049 49.8341 106.681 49.9976 105.904 50.0794C105.087 50.1612 103.778 50.1612 103.124 50.1612C102.47 50.1612 102.47 50.1612 102.409 50.9788C102.409 51.1423 102.388 51.3468 102.348 51.5716C102.204 51.5716 102.061 51.5716 101.918 51.5716C98.1571 51.5716 94.3141 52.7981 90.5734 54.9853C90.512 54.924 90.4507 54.924 90.3894 54.8831C90.185 54.7741 89.8511 54.665 89.3878 54.556C88.6928 54.3925 87.2619 54.0654 86.5464 54.0041C85.831 53.9223 85.831 54.0859 85.4222 54.4129C85.0134 54.7196 84.1957 55.2101 83.7051 55.619C83.235 56.0278 83.1123 56.3344 83.1123 56.4979C83.1123 56.6615 83.235 56.6615 83.2963 56.7432C83.3576 56.825 83.3576 56.9885 83.8891 57.2134C84.3797 57.4178 85.2791 57.704 86.1172 58.0515C82.54 60.9132 79.1467 64.5722 76.1828 68.7831C75.8966 68.6809 75.8353 68.6605 75.6308 68.64C75.3242 68.5991 74.7519 68.5582 73.9138 69.151C73.0961 69.7438 72.0332 70.9908 71.6652 72.0333C71.3177 73.0758 71.6653 73.9343 72.4216 74.7315C69.7438 79.5147 67.5974 84.7272 66.2074 90.0624C66.0848 90.1237 65.9417 90.2055 65.7782 90.2668C65.3694 90.4099 64.797 90.4917 64.47 90.9823C64.1429 91.4729 64.0407 92.3314 64.0407 92.7811C64.0407 93.2512 64.1429 93.333 64.1633 93.4556C64.1633 93.5783 64.1224 93.7214 64.1633 93.8236C64.1633 93.9258 64.286 94.0076 64.3064 94.1302C64.3064 94.2528 64.2655 94.396 64.6744 95.0092C64.797 95.1727 64.9401 95.3771 65.1036 95.602C64.6948 98.1571 64.4904 100.712 64.4904 103.247C64.4904 105.087 64.613 106.967 64.8175 108.827C64.3678 109.482 63.9793 110.34 63.8976 111.26C63.734 112.854 64.4904 114.592 64.8583 115.45C65.1036 116.023 65.274 116.479 65.3693 116.82C65.5124 117.331 65.7782 118.333 65.8804 119.109C65.9621 119.886 65.8395 120.458 65.8804 120.888C65.9213 121.337 66.0848 121.664 66.1666 121.91C66.2279 122.155 66.2074 122.339 66.6163 122.707C67.0455 123.075 67.9041 123.627 68.3742 123.79C68.5582 123.852 68.6604 123.872 68.7422 123.852C70.03 127.102 71.6039 130.25 73.3619 133.193C73.137 134.154 72.9326 135.033 72.8508 135.728C72.626 137.506 73.1166 137.915 73.8934 138.058C74.6497 138.201 75.6717 138.058 76.1623 137.997C76.3054 137.997 76.4076 137.956 76.4894 137.956C79.4942 142.126 82.9079 145.785 86.4851 148.606C87.0984 150.16 87.589 150.773 87.9365 150.895C88.284 151.018 88.4884 150.691 88.6928 150.221C90.5938 151.509 92.5153 152.551 94.4572 153.328C94.5185 153.451 94.5798 153.573 94.6412 153.655C94.7638 153.798 94.8865 153.798 95.05 154.064C95.234 154.309 95.4588 154.8 95.7041 155.106C95.9494 155.413 96.1743 155.576 96.4809 155.985C96.767 156.394 97.135 157.028 97.6051 157.191C98.0753 157.334 98.6681 157.028 98.9543 156.783C99.2404 156.558 99.2404 156.394 99.3018 156.312C99.3631 156.231 99.4857 156.231 99.5471 156.149C99.6084 156.087 99.6084 155.924 99.6697 155.822C99.731 155.74 99.8537 155.74 100.017 154.943C100.017 154.881 100.038 154.841 100.058 154.779C100.712 154.841 101.366 154.881 102.02 154.881C104.208 154.881 106.436 154.452 108.643 153.675C108.705 153.716 108.786 153.737 108.848 153.778C109.134 153.941 109.093 154.064 110.238 153.716C111.383 153.389 113.713 152.633 114.919 152.02C116.145 151.406 116.248 150.916 116.084 150.262C116.043 150.098 115.982 149.955 115.92 149.792C119.048 147.584 122.053 144.763 124.812 141.472C125.507 141.595 126.141 141.697 126.632 141.697C127.94 141.697 128.144 140.92 128.124 139.857C128.124 139.101 127.981 138.222 127.858 137.527C130.352 134.011 132.56 130.107 134.358 126.018C134.829 126.141 135.401 125.835 135.687 125.61C135.973 125.385 135.973 125.221 136.035 125.14C136.096 125.058 136.219 125.058 136.259 124.976C136.321 124.915 136.321 124.731 136.382 124.649C136.443 124.567 136.566 124.567 136.73 123.77C136.893 122.973 137.138 121.378 137.261 120.561C137.363 119.886 137.384 119.784 136.77 119.62C137.813 116.391 138.569 113.079 139.019 109.788C139.08 109.522 139.162 109.175 139.244 108.746C139.653 106.804 140.327 103.165 140.573 100.794C140.818 98.4228 140.634 97.319 140.368 96.8693C140.102 96.44 139.714 96.6649 139.285 96.992C139.203 97.0533 139.142 97.1146 139.06 97.176C138.058 89.2652 135.196 81.2931 131.21 74.3022C131.21 73.1371 131.292 71.1543 130.843 70.0709C130.372 68.9466 129.33 68.7831 128.798 68.6196C128.267 68.4561 128.267 68.2925 128.103 68.2108C127.94 68.1494 127.592 68.1494 127.286 68.0677C127.224 68.0677 127.184 68.0472 127.143 68.0063C125.712 66.044 124.179 64.2043 122.584 62.5281C123.054 62.0375 123.177 62.0171 123.279 61.6491C123.382 61.2607 123.504 60.4635 122.993 59.5641C122.462 58.6851 121.297 57.7244 120.336 57.9493C119.825 58.0719 119.375 58.5625 119.028 59.094C115.9 56.3957 112.609 54.3107 109.298 53.0229C109.4 52.5732 109.502 52.5323 109.543 52.3484C109.604 52.1235 109.604 51.6329 109.645 51.2241C109.706 50.8153 109.829 50.5087 109.645 50.3451C109.481 50.1816 109.011 50.1816 108.582 50.0999C108.173 50.0181 107.805 49.8545 107.458 49.8545C107.437 49.8545 107.396 49.8545 107.396 49.8545L107.376 49.8341Z" fill="#4F5153" stroke="#4F5153" stroke-width="0.37" stroke-miterlimit="11.34" stroke-linecap="round"/>
<path fill-rule="evenodd" clip-rule="evenodd" d="M108.112 170.315C107.887 170.662 107.458 171.357 107.233 171.889C107.008 172.44 107.008 172.829 107.785 173.217C108.541 173.606 110.074 173.994 110.831 174.157C111.587 174.321 111.587 174.219 111.812 174.055C112.037 173.892 112.466 173.708 112.466 173.217C112.466 172.727 112.037 171.95 111.607 171.439C111.178 170.948 110.749 170.744 110.197 170.539C109.645 170.335 109.011 170.151 108.664 170.049C108.446 169.981 108.262 170.062 108.112 170.294V170.315Z" fill="#4F5153" stroke="#4F5153" stroke-width="0.37" stroke-miterlimit="11.34" stroke-linecap="round"/>
<path fill-rule="evenodd" clip-rule="evenodd" d="M61.6287 157.723C61.0563 157.968 60.6066 158.663 60.3817 159.194C60.1569 159.746 60.1569 160.135 60.9541 160.523C61.7513 160.911 63.3457 161.3 64.1225 161.463C64.8992 161.627 64.8992 161.525 65.1445 161.361C65.3694 161.218 65.8191 161.014 65.8191 160.523C65.8191 160.033 65.3694 159.256 64.9197 158.745C64.47 158.254 64.0203 158.05 63.4479 157.845C62.8756 157.641 62.201 157.457 61.6287 157.702V157.723Z" fill="#4F5153" stroke="#4F5153" stroke-width="0.37" stroke-miterlimit="11.34" stroke-linecap="round"/>
<path fill-rule="evenodd" clip-rule="evenodd" d="M88.4679 153.982C87.8955 154.227 87.4458 154.922 87.221 155.454C86.9961 156.006 86.9961 156.394 87.7933 156.782C88.5905 157.171 90.185 157.559 90.9617 157.723C91.7385 157.866 91.7385 157.784 91.9838 157.621C92.2086 157.477 92.6583 157.273 92.6583 156.782C92.6583 156.292 92.2086 155.515 91.7589 155.004C91.3092 154.513 90.8595 154.309 90.2872 154.105C89.7148 153.9 89.0402 153.716 88.4679 153.962V153.982Z" fill="#4F5153" stroke="#4F5153" stroke-width="0.37" stroke-miterlimit="11.34" stroke-linecap="round"/>
<path fill-rule="evenodd" clip-rule="evenodd" d="M147.952 105.618C147.543 105.802 146.725 106.19 146.194 106.558C145.662 106.926 145.397 107.294 145.806 108.051C146.214 108.827 147.277 110.013 147.829 110.565C148.381 111.117 148.442 111.035 148.729 111.015C149.015 111.015 149.526 111.055 149.832 110.626C150.139 110.197 150.282 109.236 150.221 108.562C150.16 107.887 149.914 107.458 149.567 106.988C149.219 106.518 148.79 105.966 148.565 105.7C148.415 105.523 148.204 105.495 147.931 105.618H147.952Z" fill="#4F5153" stroke="#4F5153" stroke-width="0.37" stroke-miterlimit="11.34" stroke-linecap="round"/>
<path fill-rule="evenodd" clip-rule="evenodd" d="M33.6651 54.9443C33.2767 55.1283 32.4795 55.5167 31.9685 55.8846C31.4574 56.2525 31.2121 56.6205 31.6005 57.3768C31.9889 58.1536 33.011 59.3391 33.5424 59.8911C34.0739 60.443 34.1352 60.3612 34.4214 60.3408C34.7076 60.3408 35.1777 60.3816 35.4843 59.9524C35.791 59.5231 35.9136 58.5624 35.8523 57.8878C35.791 57.2133 35.5661 56.784 35.2391 56.3138C34.912 55.8437 34.4827 55.2918 34.2783 55.026C34.142 54.8489 33.9376 54.8216 33.6651 54.9443Z" fill="#4F5153" stroke="#4F5153" stroke-width="0.37" stroke-miterlimit="11.34" stroke-linecap="round"/>
<path fill-rule="evenodd" clip-rule="evenodd" d="M88.979 27.2056C87.9978 27.0421 86.0559 26.715 84.9521 26.7355C83.8687 26.7355 83.6438 27.0625 83.5416 27.3283C83.4394 27.594 83.4394 27.8189 83.5008 27.9211C83.5621 28.0233 83.6643 28.0233 83.7256 28.1255C83.7869 28.2277 83.7869 28.4525 83.8278 28.5547C83.8891 28.6569 83.9913 28.6569 84.0935 28.7796C84.1957 28.9022 84.3184 29.1067 84.4206 29.2089C84.5228 29.3111 84.6455 29.3111 84.809 29.4746C84.9725 29.6381 85.1974 29.9652 85.4018 30.1696C85.6266 30.374 85.831 30.4967 86.1172 30.7624C86.383 31.0281 86.71 31.4574 87.1393 31.5596C87.5686 31.6618 88.1205 31.437 88.3862 31.2939C88.6519 31.1508 88.6519 31.0281 88.7133 30.9668C88.7746 30.9055 88.8768 30.9055 88.9381 30.8646C88.9994 30.8237 88.9994 30.7011 89.0403 30.6602C89.1016 30.5989 89.2038 30.5989 89.3674 30.0674C89.5309 29.5359 89.7353 28.473 89.858 27.9211C89.9261 27.5668 89.6399 27.3351 88.9994 27.2261L88.979 27.2056Z" fill="#4F5153" stroke="#4F5153" stroke-width="0.37" stroke-miterlimit="11.34" stroke-linecap="round"/>
<path fill-rule="evenodd" clip-rule="evenodd" d="M55.7211 48.1783C55.3941 48.0965 54.7604 47.933 54.372 47.6877C53.9836 47.4424 53.861 47.1154 54.4947 46.1137C55.1284 45.0917 56.5184 43.3951 57.2134 42.5774C57.9084 41.7598 57.9492 41.8415 58.215 41.7598C58.4807 41.678 58.9713 41.4531 59.1144 41.8415C59.2575 42.2299 59.0735 43.2724 58.8078 44.0696C58.542 44.8668 58.1741 45.4188 57.7039 46.0729C57.2338 46.727 56.641 47.4833 56.3548 47.8717C56.0687 48.2601 56.0686 48.2601 55.7416 48.1783H55.7211Z" fill="#4F5153" stroke="#4F5153" stroke-width="0.37" stroke-miterlimit="11.34" stroke-linecap="round"/>
<path fill-rule="evenodd" clip-rule="evenodd" d="M56.6818 97.319C57.2746 96.9715 58.4807 96.297 59.1143 95.9904C59.748 95.6837 59.8298 95.7451 60.3408 95.7246C60.8723 95.7042 61.8535 95.5815 62.4871 95.5815C63.1208 95.5815 63.3661 95.6633 63.4274 95.7451C63.4887 95.8064 63.3865 95.8677 63.3661 95.929C63.3661 95.9904 63.4274 96.0517 63.0186 96.3583C62.6098 96.6649 61.7512 97.2168 61.0971 97.7278C60.443 98.2389 59.9729 98.7295 59.6867 98.9952C59.4005 99.261 59.2983 99.3018 59.2983 99.5471C59.2983 99.7924 59.4414 100.222 59.4618 100.569C59.4618 100.896 59.4005 101.142 59.4005 101.285C59.4005 101.428 59.4618 101.509 58.9304 101.755C58.3989 102.021 57.2951 102.47 56.4161 102.634C55.5576 102.797 54.9443 102.634 54.7195 101.959C54.4946 101.264 54.6582 100.017 54.9443 99.2201C55.2305 98.4024 55.6598 98.0345 55.8642 97.8505C56.0686 97.6665 56.089 97.6665 56.6818 97.319Z" fill="#4F5153" stroke="#4F5153" stroke-width="0.37" stroke-miterlimit="11.34" stroke-linecap="round"/>
<path fill-rule="evenodd" clip-rule="evenodd" d="M101.836 83.1532C97.2372 83.1532 100.303 115.348 98.7703 124.547C98.5658 126.059 98.157 127.572 97.5847 128.982C95.9902 132.846 91.6363 135.278 91.3092 139.878C90.9821 144.477 94.7433 150.364 101.857 150.343C109.134 150.343 112.793 144.599 112.466 139.878C112.139 135.176 108.112 132.887 106.456 129.146C105.802 127.674 105.189 126.141 104.923 124.547C103.39 115.348 106.456 83.1532 101.857 83.1532H101.836Z" fill="#868686" stroke="#868686" stroke-width="0.28" stroke-miterlimit="11.34" stroke-linecap="round"/>
</svg>
